<mxfile host="app.diagrams.net" agent="Mozilla/5.0 (Windows NT 10.0; Win64; x64) AppleWebKit/537.36 (KHTML, like Gecko) Chrome/136.0.0.0 Safari/537.36" version="27.1.1" pages="2">
  <diagram name="Page-1" id="yNYmZOJBVXgbaM3tx_ns">
    <mxGraphModel dx="2728" dy="1009" grid="1" gridSize="10" guides="1" tooltips="1" connect="1" arrows="1" fold="1" page="1" pageScale="1" pageWidth="827" pageHeight="1169" math="0" shadow="0">
      <root>
        <mxCell id="0" />
        <mxCell id="1" parent="0" />
        <mxCell id="MvGa4ZtVWc14RxAt6pgf-5" value="Hercules" style="rounded=0;whiteSpace=wrap;html=1;fontStyle=1;verticalAlign=top;" vertex="1" parent="1">
          <mxGeometry x="-580" y="490" width="240" height="140" as="geometry" />
        </mxCell>
        <mxCell id="_5o0ibSi2e8DYtXXYduX-51" value="Sonda" style="rounded=0;whiteSpace=wrap;html=1;verticalAlign=top;fontStyle=1;textShadow=0;fillColor=#e1d5e7;strokeColor=#9673a6;" parent="1" vertex="1">
          <mxGeometry x="-259.83000000000004" y="590" width="510" height="370" as="geometry" />
        </mxCell>
        <mxCell id="_5o0ibSi2e8DYtXXYduX-34" value="" style="rounded=0;whiteSpace=wrap;html=1;" parent="1" vertex="1">
          <mxGeometry x="1160" y="258" width="240" height="205" as="geometry" />
        </mxCell>
        <mxCell id="_5o0ibSi2e8DYtXXYduX-35" value="" style="shape=image;verticalLabelPosition=bottom;verticalAlign=top;imageAspect=0;image=https://external-content.duckduckgo.com/iu/?u=https%3A%2F%2Ftse1.mm.bing.net%2Fth%3Fid%3DOIP.nDzonxn67yDCRM7yDo4rQAHaDs%26pid%3DApi&amp;f=1&amp;ipt=1c8c3eae0abd3c5cca7b73f8b7f174f4898e963ab957952c1863577b7e49f768&amp;ipo=images;" parent="1" vertex="1">
          <mxGeometry x="1221.5" y="263" width="105" height="43" as="geometry" />
        </mxCell>
        <mxCell id="_5o0ibSi2e8DYtXXYduX-28" value="PayU" style="rounded=0;whiteSpace=wrap;html=1;verticalAlign=top;fontStyle=1" parent="1" vertex="1">
          <mxGeometry x="1160" y="78" width="240" height="130" as="geometry" />
        </mxCell>
        <mxCell id="_5o0ibSi2e8DYtXXYduX-10" value="Interoperabilidad" style="rounded=0;whiteSpace=wrap;html=1;verticalAlign=top;fontStyle=1;textShadow=0;fillColor=#dae8fc;strokeColor=#6c8ebf;" parent="1" vertex="1">
          <mxGeometry x="420" y="100" width="510" height="630" as="geometry" />
        </mxCell>
        <mxCell id="_5o0ibSi2e8DYtXXYduX-1" value="Tienda Compensar" style="rounded=0;whiteSpace=wrap;html=1;verticalAlign=top;fontStyle=1;textShadow=0;fillColor=#f8cecc;strokeColor=#b85450;" parent="1" vertex="1">
          <mxGeometry x="10" y="130" width="280" height="230" as="geometry" />
        </mxCell>
        <mxCell id="_5o0ibSi2e8DYtXXYduX-3" value="" style="shape=image;verticalLabelPosition=bottom;labelBackgroundColor=default;verticalAlign=top;aspect=fixed;imageAspect=0;image=data:image/webp,UklGRrQDAABXRUJQVlA4TKcDAAAvf8AfENcFKZJk20rW+z9gjRH8i2GFCe5tGwzaRnLkuW/8gT6Auy/jqI0kSXLM7PFf/tCWynTCjW3bVTMbz72kpv9+iKmASN688+S1QwF+WH7hN/7evz7G8N51Zqy196yp/zGpRCdDlRnIDF3OjAW+Z1ybl5+7Pk9wCCE+ICYUhvjHxwC/SIAFBlwJISYmBgYDgQhmwOBCrFFDCDHjg4FAzPgfk4EsDv5+Bkg6CtADdPWPhBBRSSWap08ZZwCwBwAlGCC0iAUKjQ1jAAAKoABarZAQQnzgiMJiIBYoEBBgwDYgAAQ26p0xQEI4vccFLvuDtdvZc7XddyFEkEGMkUsTwSlED9DHOEtkBAPjGIfmd/MaZxF1acG8f7d/3+39eftYfyFRkmTTts65xrNt27Zt27Ztq57ta5v9eXvtWWd/wY3o/wSoxf8tCqxru2GjcXU3166N1p3ZcVthu5it4PdG6x9137ix2iep1ZqN1gKvrIl98LyxOjAC++f2lr8vOGFZeQ37JmVDqa1y2lPMH3v4rH2Bf69ZCeB9UVjzdehdErYAz7Exv7xreP6UZ6d3vJjXOsdatPgTvVYFPuaEly97xYWwGQB3k1w/4eOS4hxjqrzi4+HmuhyrfC/yqkS+XYZyP0UjGCzrFAaEZL7i+gyY62j8yJCu8vVZAWfiijC3N/Pkvxt2ec3npSs2gd5/k6/xsjywAjYoojs8yleUGyAzASnPmebT4RHjXNtgqpTdhwkxScd5mxxR0ivO5ti7+czitRJ5my+O5knPnAOg9x9H3WOGVkk6BZskTWSkIsrAe57PIt4nZCznHGqciPvFUjm/weKcnJyczkN5UiNd4nZUtV7Dmny2QW4ihjDVpebz0OfYj30Vcv7uhXvLSjgjfWdgVA29ubTR3Em+nWBvArJheYiSv8LNnnI33MM9MkVnYZf2wt+INJrPMUU6kkF5Xs1XeF4VppTJMLrONR1ObAwWSOnPeVCf95LbTRHNgjnR/OrFsN9x2/9xsEgGxY7D9YrAv37ciCt8L5zQDxjbIZrKB/Q9khaF9gP971sfARfiJsVOwvAuUvwWfctkjF+hb8eky8Dj+9bdgUH3w2cq+zn0HXrfOLLSR9s/4PvyYIps0g94UKCtcFjmrDeMSmk68gbzmFjA+DBfKrqKfYf8G9ccOHbauGBPDwUXnj5s0NJDh7akHDl9tN6mzadPd5TqNs07HX68XCo8bV2vYJvZp06H71eL/1sOCAA=;" parent="1" vertex="1">
          <mxGeometry x="20" y="113" width="60" height="60" as="geometry" />
        </mxCell>
        <mxCell id="_5o0ibSi2e8DYtXXYduX-4" value="Plataforma Bienestar" style="rounded=0;whiteSpace=wrap;html=1;verticalAlign=top;fontStyle=1;textShadow=0;" parent="1" vertex="1">
          <mxGeometry x="-370" y="139.5" width="280" height="290" as="geometry" />
        </mxCell>
        <mxCell id="_5o0ibSi2e8DYtXXYduX-5" value="User" style="shape=image;verticalLabelPosition=bottom;labelBackgroundColor=default;verticalAlign=top;aspect=fixed;imageAspect=0;image=data:image/webp,UklGRuwHAABXRUJQVlA4TOAHAAAvf8AfEBWHgrZtmLT8Ye+PQERMAMNCvx1W+jTtyDlpdp2i6MzK0fZPkZQ7Ut3r7u7umuGw7u4h7tN7s67prumnQqRYbHI4gK1WiNVGkyIHcPtDttlCBKEewD3zlHhTHEKHzCKX1CDZ1p4oKuYwhn3AGrqHNsTdHcor+cJ+W2IlSVrgSpLkWNmemQss/j/i2at7Bq1NLVyCX9Dga5BjW9uxZ05lTYSt0eWrUqK2bWcESe82K0OwU9v4beN9vz0BcGPbdp303woFePOkc+SlkH6USveen7+MRsht/ovQkBNfzZB6V4IPiWwTdEEN3jQAkdtIkoRm8w+QEDDxQJqZNxi3bSM5Kazk2eO3cCQAINjE1pbstjnlBZrsZLTtubbtdrJtvAAPsM2bALgBIDlO1CQtkHlvbmaLl9296UG9DJ4aSFEbVEJIqlQxroxvQDTEKpJkJ1bJM0vO39jAAiZxEEmSIp31M0Lf2c+MKt4TFAkACEhr23azHmDWnY22q862fRftbkTbeoOtCWBzdZ7lrWfPcUuuUmn5nN+1yPbveKuQegOqVFasWJtQjG2a3PJRscYs6pa0SSvhpEoDUiyVDhdVh3Y1oBt1iVZbF05x1H4oaTOw/xjoLto0zuTFkPaRiAO7MXjaRPOFWABIE/Uxhkp6oOrVTQ44sT2GTmxZuoBJSwMDWwqDxLXWA05YGgTiaZhEO57bj5fVGEjUdhgt00CI6g8gcSrMosZEEUNhmFxeSXR81Jcl2ueNoFXSXphG7azqqXacYRwdm5yJAYY7twZ3kQZEDZw1zCNNamAH9s7FVLypu/Z2a0DWAiuEQ1hGy4sH1LqU3g2q9ED6WFHyFy5rTaKEavdR+10WJbCKjyclqCYfpAYlaH0+qL1KqKM+RkrQunwQO5R8+qBWKyElfVTP4kqgOh9EtZK6MHyAm6akP4DEGw/Pq0oyddLDKEtFc3nY0bKBeqt3UBtYLRluuB5xIIuthWDXXLWJ1GTagjW06Sz3n/Zri/RzpycT622hqrLg1gPu0BL17FVRZhOXdspx1kz07FrZPcuqaTkrtFTWbbI2ZYxbjOaK0WaTs9ByirXA5JYGRvf2ykoUo68sNdRurJLR/pvJ2oZlFGvr/Yz6NV8ptYqn2iYtp9ONheSmGw0bCju9c4hy6V6Kq/lI1WUibeZJBCMVDFcwQkFloaYaRWZqpSoK1f1zz3glQYmQvVqeIuleiqNX/HKV5uvPtQr7e1HLoVjAnp/qwly0FWKmUXoutJaqSCfDFaiHaygQsLDC/pwfXkKnIDA54NbXHDMGElzY+OimjoOo4ZAv4fJPbF4uagrRWpkJlZhmzCxr5jhz88yKb5te52nxE58noUqAEKGTw1tY6edz5Qh94hlBwdc+6ZLyLwDYEY8W1N/fCSGqOORJ0a0i2b21iidCiILG+1uZOgkO4H3QrU2M/gEopkFJbLvHE6hdI/9Wrf//CyHEs9NjJZAYo6BYwjMhhKgq/gPX2L+D2iMaYLei2SiU7L5/KJFDfFL/8ftCYkEFgeu9B5UQ4lmpgIN/Rygw1z1GQr6AP9UCBN5/s/cI6m8Ju8LQN6Jxb/rBZURNQrNvm/v7HQbiXs8ucOq6b7BVCFEuRJmAtaeGbEJr3MvpJWD97wO3TbN7Mx/EIpi4oUePp2wy55QwEPt+eqaBaMz76SVgnTNKXWcqEw8Il4ItSQ3x58kJ+8KeEAYiuifX1RJRcn1hw5MbwNpRd5PjB6hy210UC4Jm0jNGnRqJOQy4B/GxtPbxlVTZ/8cPD3/zI+AjTw3XiHRs2dnJCU2z4pnDLo0VA44Z/yc/3V6QSXm+vHAg/h+w1vBzxTUjXTzaTsiuzu4nFnbTOsMvjQyHATia076/1tWX27m7cgv5A/ASCxGnhuskWTs5oTtavXnuiHPTiQNwzPxfRP/4elzz6VnL2NbDc8Tg+PoemO08wHW/L7vZ+U5gmgUvMGFXuCRkBgDsiYeed/94rGPfvo5jV/tBo0tKNzlBYuaxF9heLzR1k/n5g9UcSavtGieK6OyEbjxe9D+vaCDnEQ1xh4qTbjbYRRAd0veFcX7xN5nf0ceKk6feoqPp4OSERnrl1MRdEXjrnFLS8yno2qzjFiW5jf6EqUeNOD1pVzy3nfzUabV2fjrpf++eD3CLw/aXC+K02gGyFNubfvA/OUbcrGq9WDBNSamoJtaHIuLlatnTKxF9lvxVKFwED5r+b7Ln1kF0WzRsa5mz+4ndqNrEVFwV2KxlM0lVoQ510ewWacNOauGfNRCNyqi6GtSlMuikxKulRxdeBSqhDdlGK9BMaiNGKxD32miuC1xNJ6q1D5fjnZwHahLnkD4PaVwd2UTy7tRBzXlrdeu8ZrvVtb4deafztl3d6bRrzvMKZh/tvOLRmYdYjMfvK7rF7wuZcDQPIRa9w4FuXuH0IQ8hFiDmUNHsPCDEfN5ncCA0QK+kbfYYJPhwHqJRBuBIaJBWg/8BEIviPBlMQoivAHZwwdfuGo2ubegEQCy++C1XiXkMsZgDAHDMyN/voo/Vums0ud1c3rYdAAAhplhBGcxEiPdAccTinVNUM4zAXiAWAb0QIhz22KhixkSPqEeIv7R6J8HrmFG/IcQ1nRDiSiYsYsa9LlFvkagfSNSjtPkjwfdlwubrzNhyzBwZLEQ0IhL1GoreXe6Ils3mWgw=;" parent="1" vertex="1">
          <mxGeometry x="-540" y="174.25" width="70" height="70" as="geometry" />
        </mxCell>
        <mxCell id="_5o0ibSi2e8DYtXXYduX-6" style="edgeStyle=orthogonalEdgeStyle;rounded=0;orthogonalLoop=1;jettySize=auto;html=1;" parent="1" source="_5o0ibSi2e8DYtXXYduX-5" target="_5o0ibSi2e8DYtXXYduX-7" edge="1">
          <mxGeometry relative="1" as="geometry" />
        </mxCell>
        <mxCell id="_5o0ibSi2e8DYtXXYduX-9" style="edgeStyle=orthogonalEdgeStyle;rounded=0;orthogonalLoop=1;jettySize=auto;html=1;" parent="1" source="_5o0ibSi2e8DYtXXYduX-7" target="_5o0ibSi2e8DYtXXYduX-8" edge="1">
          <mxGeometry relative="1" as="geometry" />
        </mxCell>
        <mxCell id="_5o0ibSi2e8DYtXXYduX-18" value="Redirect Tienda" style="edgeLabel;html=1;align=center;verticalAlign=middle;resizable=0;points=[];" parent="_5o0ibSi2e8DYtXXYduX-9" vertex="1" connectable="0">
          <mxGeometry x="-0.6286" y="2" relative="1" as="geometry">
            <mxPoint x="88" y="-6" as="offset" />
          </mxGeometry>
        </mxCell>
        <mxCell id="_5o0ibSi2e8DYtXXYduX-7" value="Comprar" style="rounded=1;whiteSpace=wrap;html=1;" parent="1" vertex="1">
          <mxGeometry x="-280" y="189" width="100" height="40.5" as="geometry" />
        </mxCell>
        <mxCell id="_5o0ibSi2e8DYtXXYduX-16" style="edgeStyle=orthogonalEdgeStyle;rounded=0;orthogonalLoop=1;jettySize=auto;html=1;" parent="1" source="_5o0ibSi2e8DYtXXYduX-8" target="_5o0ibSi2e8DYtXXYduX-15" edge="1">
          <mxGeometry relative="1" as="geometry">
            <Array as="points">
              <mxPoint x="300" y="230" />
              <mxPoint x="300" y="250" />
            </Array>
          </mxGeometry>
        </mxCell>
        <mxCell id="_5o0ibSi2e8DYtXXYduX-8" value="Comprar" style="rounded=1;whiteSpace=wrap;html=1;" parent="1" vertex="1">
          <mxGeometry x="100" y="179.5" width="100" height="57" as="geometry" />
        </mxCell>
        <mxCell id="_5o0ibSi2e8DYtXXYduX-11" value="Cognito" style="shape=image;verticalLabelPosition=bottom;labelBackgroundColor=none;verticalAlign=top;aspect=fixed;imageAspect=0;editableCssRules=.*;image=data:image/svg+xml,PHN2ZyB4bWxuczp4bGluaz0iaHR0cDovL3d3dy53My5vcmcvMTk5OS94bGluayIgeG1sbnM9Imh0dHA6Ly93d3cudzMub3JnLzIwMDAvc3ZnIiB2ZXJzaW9uPSIxLjEiIHZpZXdCb3g9Ii0wLjUgLTAuNSA4MSA4MSIgaGVpZ2h0PSI4MSIgd2lkdGg9IjgxIj4mI3hhOyAgICAmI3hhOyAgICA8dGl0bGU+SWNvbi1BcmNoaXRlY3R1cmUvNjQvQXJjaF9BbWF6b24tQ29nbml0b182NDwvdGl0bGU+JiN4YTsgICAgPGRlc2M+Q3JlYXRlZCB3aXRoIFNrZXRjaC48L2Rlc2M+JiN4YTsgICAgPGRlZnM+JiN4YTsgICAgICAgIDxsaW5lYXJHcmFkaWVudCBpZD0ibGluZWFyR3JhZGllbnQtMSIgeTI9IjAlIiB4Mj0iMTAwJSIgeTE9IjEwMCUiIHgxPSIwJSI+JiN4YTsgICAgICAgICAgICA8c3RvcCBvZmZzZXQ9IjAlIiBzdG9wLWNvbG9yPSIjQkQwODE2Ii8+JiN4YTsgICAgICAgICAgICA8c3RvcCBvZmZzZXQ9IjEwMCUiIHN0b3AtY29sb3I9IiNGRjUyNTIiLz4mI3hhOyAgICAgICAgPC9saW5lYXJHcmFkaWVudD4mI3hhOyAgICA8L2RlZnM+JiN4YTsgICAgPGcgZmlsbC1ydWxlPSJldmVub2RkIiBmaWxsPSJub25lIiBzdHJva2Utd2lkdGg9IjEiIHN0cm9rZT0ibm9uZSIgaWQ9Ikljb24tQXJjaGl0ZWN0dXJlLzY0L0FyY2hfQW1hem9uLUNvZ25pdG9fNjQiPiYjeGE7ICAgICAgICA8ZyBmaWxsPSJ1cmwoI2xpbmVhckdyYWRpZW50LTEpIiBpZD0iSWNvbi1BcmNoaXRlY3R1cmUtQkcvNjQvU2VjdXJpdHktSWRlbnRpdHktQ29tcGxpYW5jZSI+JiN4YTsgICAgICAgICAgICA8cmVjdCBoZWlnaHQ9IjgwIiB3aWR0aD0iODAiIHk9IjAiIHg9IjAiIGlkPSJSZWN0YW5nbGUiLz4mI3hhOyAgICAgICAgPC9nPiYjeGE7ICAgICAgICA8cGF0aCBmaWxsPSIjRkZGRkZGIiBpZD0iQW1hem9uLUNvZ25pdG9fSWNvbl82NF9TcXVpZCIgZD0iTTE2Ljk2MzU2MDksMzUuODA3OTIyNSBMMjkuODY4ODE5MiwzNS44MDc5MjI1IEwyOS44Njg4MTkyLDMzLjgyNTM4NDEgTDE2Ljk2MzU2MDksMzMuODI1Mzg0MSBMMTYuOTYzNTYwOSwzNS44MDc5MjI1IFogTTYxLjM3NTUxODMsNTAuMjMwODg5NSBMNjIuNzc5MjEzMyw1MS42MzI1NDQxIEw1NS40MDczMzI3LDU4Ljk5MzcwOTMgQzU1LjIxMjc2MTEsNTkuMTg3MDA2NyA1NC45NTg2MjY4LDU5LjI4NDE1MTEgNTQuNzA1NDg1Miw1OS4yODQxNTExIEM1NC40NTEzNTA5LDU5LjI4NDE1MTEgNTQuMTk3MjE2Niw1OS4xODcwMDY3IDU0LjAwMzYzNzcsNTguOTkzNzA5MyBMNTAuMjk0ODY1LDU1LjI5MTMxODggTDUxLjY5ODU2LDUzLjg4OTY2NDEgTDU0LjcwNTQ4NTIsNTYuODkxMjI3MyBMNjEuMzc1NTE4Myw1MC4yMzA4ODk1IFogTTY1Ljk0Mzk3OTgsNTUuNjkzNzc0MSBDNjUuNzE3NjQxNCw1Ny41NTczNjAyIDY0Ljk1OTIwOTMsNTkuMjkxMDkgNjMuNzQ3MTA3Nyw2MC43MDg2MDUgQzYyLjg4NjQyNjIsNjEuNzE1NzM0NSA2MS43OTk0MDY0LDYyLjU0ODQwMDYgNjAuNjA0MTgxLDYzLjExNTQwNjYgQzU5LjAwMDk1MDgsNjMuODc1NzEwMSA1Ny4yMjAwMjUxLDY0LjE2NDE2OTQgNTUuNDQ2MDQ4NSw2My45NDgwNzI3IEM1My43MjA3MTQ3LDYzLjczNzkyMzcgNTIuMDk0NjUyMiw2My4wNTc5MTMgNTAuNzM5Niw2MS45ODIzODU5IEM0OC4xMzY3MDg3LDU5LjkxNTU4OTYgNDYuODIyMzU3OCw1Ni43MTA4MTYzIDQ3LjIyMjQyMDgsNTMuNDA4ODk4NSBDNDcuNjAwNjQ0MSw1MC4yODgzODMxIDQ5LjQ5MTc2MDgsNDcuNTY2MzU3OCA1Mi4yODAyODkzLDQ2LjEyNzAzNSBDNTMuNjE2NDc5OSw0NS40MzgxMDI5IDU1LjA3OTczNzcsNDUuMDg0MjE5OCA1Ni41Njk3OTg3LDQ1LjA4NDIxOTggQzU2Ljk1MTk5MjgsNDUuMDg0MjE5OCA1Ny4zMzcxNjUyLDQ1LjEwODAxMDIgNTcuNzIxMzQ0OCw0NS4xNTQ1OTk5IEM2MC44MzQ0OTAyLDQ1LjUzNDI1NiA2My41NDk1NTgsNDcuNDM2NTAxNiA2NC45ODEwNDg5LDUwLjI0Mjc4NDcgQzY1LjgzOTc0NSw1MS45MjU5NTk4IDY2LjE3MjMwMzYsNTMuODExMzUzOCA2NS45NDM5Nzk4LDU1LjY5Mzc3NDEgTDY1Ljk0Mzk3OTgsNTUuNjkzNzc0MSBaIE02Ni43NTAwNjIsNDkuMzQzNzAzNSBDNjUuMDE3Nzc5Myw0NS45NDc2MTUyIDYxLjczMTkwMiw0My42NDU4ODgxIDU3Ljk2MTU4MTEsNDMuMTg2OTMwNSBDNTUuNjgxMzIxMyw0Mi45MDgzODM4IDUzLjQwMzA0NjgsNDMuMzE2Nzg2OCA1MS4zNjg5Nzk2LDQ0LjM2NTU0OTYgQzQ3Ljk5NTc0MzYsNDYuMTA2MjE4MyA0NS43MDg1MzQ3LDQ5LjM5ODIyMzMgNDUuMjUwODk0NCw1My4xNzA5OTM5IEM0NC43Njg0MzYzLDU3LjE2MDg1MjUgNDYuMzU3NzY4NSw2MS4wMzU3MjM4IDQ5LjUwNDY2NjEsNjMuNTM0NzEzNSBDNTEuMTQ1NjE5Myw2NC44MzcyNDEyIDUzLjExNzE0NTcsNjUuNjYwOTg1OSA1NS4yMDQ4MTk0LDY1LjkxNTc0MjEgQzU1LjY2NzQyMzMsNjUuOTcyMjQ0NSA1Ni4xMzAwMjcyLDY2IDU2LjU5MTYzODMsNjYgQzU4LjI3MTMwNzMsNjYgNTkuOTMwMTI5NCw2NS42MjkyNjUzIDYxLjQ1NTkyOCw2NC45MDU2Mzg4IEM2Mi45MDIzMDk2LDY0LjIxOTY4MDUgNjQuMjE3NjUzMyw2My4yMTI1NTEgNjUuMjU3MDIyOSw2MS45OTUyNzI0IEM2Ni43MjMyNTg4LDYwLjI4MDM3NjcgNjcuNjQyNTEwMyw1OC4xODM4NDIzIDY3LjkxNTUwNjEsNTUuOTMxNjc4NyBDNjguMTkxNDgwMSw1My42NTY3MTU4IDY3Ljc4ODQzOSw1MS4zNzg3NzkyIDY2Ljc1MDA2Miw0OS4zNDM3MDM1IEw2Ni43NTAwNjIsNDkuMzQzNzAzNSBaIE0yNi44OTA2ODI3LDQxLjc1NTUzNzggTDMwLjg2MTUzMTQsNDEuNzU1NTM3OCBMMzAuODYxNTMxNCwzOS43NzI5OTk0IEwyNi44OTA2ODI3LDM5Ljc3Mjk5OTQgTDI2Ljg5MDY4MjcsNDEuNzU1NTM3OCBaIE0xNi45NjM1NjA5LDQxLjc1NTUzNzggTDI0LjkwNTI1ODMsNDEuNzU1NTM3OCBMMjQuOTA1MjU4MywzOS43NzI5OTk0IEwxNi45NjM1NjA5LDM5Ljc3Mjk5OTQgTDE2Ljk2MzU2MDksNDEuNzU1NTM3OCBaIE0xNi4xMDU4NTc2LDE1Ljk4MjUzODQgTDYwLjUwNzg4NzksMTUuOTgyNTM4NCBDNjEuNjc3MzAyOCwxNS45ODI1Mzg0IDYyLjYyODMyMTEsMTcuMTM5MzQ5NiA2Mi42MjgzMjExLDE4LjU2MDgyOTYgTDYyLjYyODMyMTEsMjUuODk1MjMwNSBMNTkuNjUwMTg0NSwyNS44OTUyMzA1IEw1OS42NTAxODQ1LDIwLjkzODg4NDQgQzU5LjY1MDE4NDUsMjAuMzkxNzAzOCA1OS4yMDY0NDIyLDE5Ljk0NzYxNTIgNTguNjU3NDcyNCwxOS45NDc2MTUyIEwzNS44MjUwOTIzLDE5Ljk0NzYxNTIgQzM1LjI3NjEyMjQsMTkuOTQ3NjE1MiAzNC44MzIzODAxLDIwLjM5MTcwMzggMzQuODMyMzgwMSwyMC45Mzg4ODQ0IEwzNC44MzIzODAxLDI1Ljg5NTIzMDUgTDEzLjk4NTQyNDQsMjUuODk1MjMwNSBMMTMuOTg1NDI0NCwxOC41NjA4Mjk2IEMxMy45ODU0MjQ0LDE3LjE2MzE0IDE0Ljk1NzI4OTYsMTUuOTgyNTM4NCAxNi4xMDU4NTc2LDE1Ljk4MjUzODQgTDE2LjEwNTg1NzYsMTUuOTgyNTM4NCBaIE00Ny4yNTYxNzMsMjUuNjA3NzYyNCBDNDkuNTYxMjUwNywyNS42MDc3NjI0IDUxLjQzNjQ4NCwyNy40NjE0MzU4IDUxLjQzNjQ4NCwyOS43MzkzNzI1IEM1MS40MzY0ODQsMzEuMjQxMTQ1MyA1MC42MDc1NjkzLDMyLjYyMjk3NDYgNDkuMjczMzY0MiwzMy4zNDY2MDExIEM0OC4wMDY2NjM0LDM0LjAzMzU1MDcgNDYuNDc5ODcyMSwzNC4wMjQ2MjkyIDQ1LjIzMDA0NzQsMzMuMzQ3NTkyNCBDNDMuOTAwODA1OCwzMi42MjE5ODMzIDQzLjA3NTg2MiwzMS4yNDAxNTQgNDMuMDc1ODYyLDI5LjczOTM3MjUgQzQzLjA3NTg2MiwyNy40NjE0MzU4IDQ0Ljk1MDEwMjYsMjUuNjA3NzYyNCA0Ny4yNTYxNzMsMjUuNjA3NzYyNCBMNDcuMjU2MTczLDI1LjYwNzc2MjQgWiBNMTMuOTg1NDI0NCw0Ny4xMDgzOTE1IEwxMy45ODU0MjQ0LDI3Ljg3Nzc2ODkgTDM0LjgzMjM4MDEsMjcuODc3NzY4OSBMMzQuODMyMzgwMSw0NC43MjkzNDU0IEMzNC44MzIzODAxLDQ1LjI3NzUxNzMgMzUuMjc2MTIyNCw0NS43MjA2MTQ2IDM1LjgyNTA5MjMsNDUuNzIwNjE0NiBMNDYuMjAyOTA1NCw0NS43MjA2MTQ2IEw0Ni4yMDI5MDU0LDQzLjczODA3NjIgTDM3LjkxMTc3MzMsNDMuNzM4MDc2MiBDMzcuOTk4MTM5MiwzOS43NzEwMTY4IDQwLjYzNTc3NTUsMzYuMzQ0MTk5MiA0NC40MzM4OTIzLDM1LjI0OTgzOCBDNDYuMTg5MDA3NCwzNi4wNjk2MTc2IDQ4LjI4NDYyMjgsMzYuMDc3NTQ3OCA1MC4wNjY1NDEyLDM1LjI0ODg0NjcgQzUyLjIyODY2ODMsMzUuODczMzQ2MyA1NC4xMjA3Nzc3LDM3LjMxNzYyNTUgNTUuMjkzMTcwOCwzOS4yNTM1NzQzIEw1Ni45OTE3MDEzLDM4LjIyNjYxOTQgQzU1Ljc4ODUzNDIsMzYuMjQzMDg5NyA1My45NjI5MzY1LDM0LjY5NDcyNzIgNTEuODQ1NDgxNCwzMy43OTQ2NTQ4IEM1Mi44MzgxOTM2LDMyLjY5NDM0NiA1My40MjE5MDgzLDMxLjI2Mjk1MzIgNTMuNDIxOTA4MywyOS43MzkzNzI1IEM1My40MjE5MDgzLDI2LjM2ODA2NTkgNTAuNjU1MjE5NSwyMy42MjUyMjQgNDcuMjU2MTczLDIzLjYyNTIyNCBDNDMuODU2MTMzOCwyMy42MjUyMjQgNDEuMDkwNDM3NywyNi4zNjgwNjU5IDQxLjA5MDQzNzcsMjkuNzM5MzcyNSBDNDEuMDkwNDM3NywzMS4yNTcwMDU2IDQxLjY2ODE5NjIsMzIuNjgzNDQyIDQyLjY1Mzk1OTMsMzMuNzgzNzUwOCBDNDAuMDAwNDM5NywzNC44OTk5MTk5IDM3LjkyNzY1NjcsMzYuOTkyNDg5MiAzNi44MTc4MDQ1LDM5LjU3Mjc2MyBMMzYuODE3ODA0NSwyMS45MzAxNTM2IEw1Ny42NjQ3NjAyLDIxLjkzMDE1MzYgTDU3LjY2NDc2MDIsMzcuNzkwNDYwOSBMNTkuNjUwMTg0NSwzNy43OTA0NjA5IEw1OS42NTAxODQ1LDI3Ljg3Nzc2ODkgTDYyLjYyODMyMTEsMjcuODc3NzY4OSBMNjIuNjI5MzEzOCw0Mi43NDY4MDcgTDY0LjYxNDczODIsNDIuNzQ2ODA3IEw2NC42MTM3NDU0LDE4LjU2MDgyOTYgQzY0LjYxMzc0NTQsMTYuMDQ1OTc5NiA2Mi43NzIyNjQzLDE0IDYwLjUwNzg4NzksMTQgTDE2LjEwNTg1NzYsMTQgQzEzLjg0MTQ4MTEsMTQgMTIsMTYuMDQ1OTc5NiAxMiwxOC41NjA4Mjk2IEwxMiw0Ny4xMDgzOTE1IEMxMiw0OS42MjMyNDE1IDEzLjg0MTQ4MTEsNTEuNjY4MjI5OCAxNi4xMDU4NTc2LDUxLjY2ODIyOTggTDQyLjc3NDA3NzUsNTEuNjY4MjI5OCBMNDIuNzc0MDc3NSw0OS42ODU2OTE0IEwxNi4xMDU4NTc2LDQ5LjY4NTY5MTQgQzE0Ljk1NzI4OTYsNDkuNjg1NjkxNCAxMy45ODU0MjQ0LDQ4LjUwNjA4MTEgMTMuOTg1NDI0NCw0Ny4xMDgzOTE1IEwxMy45ODU0MjQ0LDQ3LjEwODM5MTUgWiIvPiYjeGE7ICAgIDwvZz4mI3hhOzwvc3ZnPg==;" parent="1" vertex="1">
          <mxGeometry x="430" y="150" width="40" height="40" as="geometry" />
        </mxCell>
        <mxCell id="_5o0ibSi2e8DYtXXYduX-13" style="edgeStyle=orthogonalEdgeStyle;rounded=0;orthogonalLoop=1;jettySize=auto;html=1;entryX=0;entryY=0.5;entryDx=0;entryDy=0;" parent="1" source="_5o0ibSi2e8DYtXXYduX-8" target="_5o0ibSi2e8DYtXXYduX-11" edge="1">
          <mxGeometry relative="1" as="geometry">
            <Array as="points">
              <mxPoint x="300" y="200" />
              <mxPoint x="300" y="170" />
            </Array>
          </mxGeometry>
        </mxCell>
        <mxCell id="_5o0ibSi2e8DYtXXYduX-14" value="POST /Token" style="edgeLabel;html=1;align=center;verticalAlign=middle;resizable=0;points=[];" parent="_5o0ibSi2e8DYtXXYduX-13" vertex="1" connectable="0">
          <mxGeometry x="0.479" y="2" relative="1" as="geometry">
            <mxPoint x="-22" y="-8" as="offset" />
          </mxGeometry>
        </mxCell>
        <mxCell id="_5o0ibSi2e8DYtXXYduX-23" style="edgeStyle=orthogonalEdgeStyle;rounded=0;orthogonalLoop=1;jettySize=auto;html=1;entryX=0;entryY=0.5;entryDx=0;entryDy=0;" parent="1" source="_5o0ibSi2e8DYtXXYduX-15" target="_5o0ibSi2e8DYtXXYduX-22" edge="1">
          <mxGeometry relative="1" as="geometry" />
        </mxCell>
        <mxCell id="_5o0ibSi2e8DYtXXYduX-15" value="ApiGateway" style="shape=image;verticalLabelPosition=bottom;labelBackgroundColor=none;verticalAlign=top;aspect=fixed;imageAspect=0;editableCssRules=.*;image=data:image/svg+xml,PHN2ZyB4bWxuczp4bGluaz0iaHR0cDovL3d3dy53My5vcmcvMTk5OS94bGluayIgeG1sbnM9Imh0dHA6Ly93d3cudzMub3JnLzIwMDAvc3ZnIiB2ZXJzaW9uPSIxLjEiIHZpZXdCb3g9Ii0wLjUgLTAuNSA4MSA4MSIgaGVpZ2h0PSI4MSIgd2lkdGg9IjgxIj4mI3hhOyAgICA8dGl0bGU+SWNvbi1BcmNoaXRlY3R1cmUvNjQvQXJjaF8gQW1hem9uLUFQSS1HYXRld2F5XzY0PC90aXRsZT4mI3hhOyAgICA8ZGVmcz4mI3hhOyAgICAgICAgPGxpbmVhckdyYWRpZW50IGlkPSJsaW5lYXJHcmFkaWVudC0xIiB5Mj0iMCUiIHgyPSIxMDAlIiB5MT0iMTAwJSIgeDE9IjAlIj4mI3hhOyAgICAgICAgICAgIDxzdG9wIG9mZnNldD0iMCUiIHN0b3AtY29sb3I9IiNCMDA4NEQiLz4mI3hhOyAgICAgICAgICAgIDxzdG9wIG9mZnNldD0iMTAwJSIgc3RvcC1jb2xvcj0iI0ZGNEY4QiIvPiYjeGE7ICAgICAgICA8L2xpbmVhckdyYWRpZW50PiYjeGE7ICAgIDwvZGVmcz4mI3hhOyAgICA8ZyBmaWxsLXJ1bGU9ImV2ZW5vZGQiIGZpbGw9Im5vbmUiIHN0cm9rZS13aWR0aD0iMSIgc3Ryb2tlPSJub25lIiBpZD0iSWNvbi1BcmNoaXRlY3R1cmUvNjQvQXJjaF8tQW1hem9uLUFQSS1HYXRld2F5XzY0Ij4mI3hhOyAgICAgICAgPGcgZmlsbD0idXJsKCNsaW5lYXJHcmFkaWVudC0xKSIgaWQ9IlJlY3RhbmdsZSI+JiN4YTsgICAgICAgICAgICA8cmVjdCBoZWlnaHQ9IjgwIiB3aWR0aD0iODAiIHk9IjAiIHg9IjAiLz4mI3hhOyAgICAgICAgPC9nPiYjeGE7ICAgICAgICA8ZyBmaWxsPSIjRkZGRkZGIiB0cmFuc2Zvcm09InRyYW5zbGF0ZSg4LjAwMDAwMCwgOC4wMDAwMDApIiBpZD0iSWNvbi1TZXJ2aWNlLzY0L0FtYXpvbi1BUEktR2F0ZXdheV82NCI+JiN4YTsgICAgICAgICAgICA8cGF0aCBpZD0iQW1hem9uLUFQSS1HYXRld2F5X0ljb25fNjRfU3F1aWQiIGQ9Ik0yNi4wNjUsNDcuNjMyMzY0MiBMMjksNDcuNjMyMzY0MiBMMjksNDUuNjE1Mjk4OSBMMjYuMDY1LDQ1LjYxNTI5ODkgTDI2LjA2NSw0Ny42MzIzNjQyIFogTTMxLDQ3LjYzMjM2NDIgTDM0LDQ3LjYzMjM2NDIgTDM0LDQ1LjYxNTI5ODkgTDMxLDQ1LjYxNTI5ODkgTDMxLDQ3LjYzMjM2NDIgWiBNMTksNi42Mjk0NjExMiBMNiwxMy4wODIwNTMgTDYsNTMuMTkzNDEzMiBMMTksNTcuNTg5NjA3IEwxOSw2LjYyOTQ2MTEyIFogTTIxLDE5LjM5MzQ1MDIgTDIxLDQ1LjYxNTI5ODkgTDI0LDQ1LjYxNTI5ODkgTDI0LDQ3LjYzMjM2NDIgTDIxLDQ3LjYzMjM2NDIgTDIxLDU4Ljk5MTQ2NzQgQzIxLDU5LjMxNjIxNDkgMjAuODQ1LDU5LjYyMDc5MTcgMjAuNTg0LDU5LjgxMDM5NTkgQzIwLjQxMiw1OS45MzU0NTM5IDIwLjIwNyw2MCAyMCw2MCBDMTkuODk0LDYwIDE5Ljc4Niw1OS45ODI4NTQ5IDE5LjY4Miw1OS45NDc1NTYzIEw0LjY4Miw1NC44NzU2NDU2IEM0LjI3NCw1NC43Mzc0NzY3IDQsNTQuMzUyMjE3MiA0LDUzLjkxOTU1NjcgTDQsMTIuNDUzNzM3MSBDNCwxMi4wNzA0OTQ3IDQuMjE3LDExLjcxODUxNjggNC41NTksMTEuNTQ5MDgzMyBMMTkuNTU5LDQuMTA0MDk1MzkgQzE5Ljg2OCwzLjk0OTc4OTg5IDIwLjIzNSwzLjk2Nzk0MzQ4IDIwLjUyOCw0LjE1MjUwNDk1IEMyMC44MjEsNC4zMzYwNTc4OSAyMSw0LjY1OTc5Njg3IDIxLDUuMDA4NzQ5MTcgTDIxLDE3LjM3NjM4NSBMMjQsMTcuMzc2Mzg1IEwyNCwxOS4zOTM0NTAyIEwyMSwxOS4zOTM0NTAyIFogTTM2LDQ3LjYzMjM2NDIgTDM5LDQ3LjYzMjM2NDIgTDM5LDQ1LjYxNTI5ODkgTDM2LDQ1LjYxNTI5ODkgTDM2LDQ3LjYzMjM2NDIgWiBNMzYuMDY1LDE5LjM5MzQ1MDIgTDM5LDE5LjM5MzQ1MDIgTDM5LDE3LjM3NjM4NSBMMzYuMDY1LDE3LjM3NjM4NSBMMzYuMDY1LDE5LjM5MzQ1MDIgWiBNMzEuMDY1LDE5LjM5MzQ1MDIgTDM0LDE5LjM5MzQ1MDIgTDM0LDE3LjM3NjM4NSBMMzEuMDY1LDE3LjM3NjM4NSBMMzEuMDY1LDE5LjM5MzQ1MDIgWiBNMjYuMDY1LDE5LjM5MzQ1MDIgTDI5LDE5LjM5MzQ1MDIgTDI5LDE3LjM3NjM4NSBMMjYuMDY1LDE3LjM3NjM4NSBMMjYuMDY1LDE5LjM5MzQ1MDIgWiBNNTgsMTMuMDgyMDUzIEw0NSw2LjYyOTQ2MTEyIEw0NSw1Ny41ODk2MDcgTDU4LDUzLjE5MzQxMzIgTDU4LDEzLjA4MjA1MyBaIE02MCw1My45MTk1NTY3IEM2MCw1NC4zNTIyMTcyIDU5LjcyNiw1NC43Mzc0NzY3IDU5LjMxOCw1NC44NzU2NDU2IEw0NC4zMTgsNTkuOTQ3NTU2MyBDNDQuMjE0LDU5Ljk4Mjg1NDkgNDQuMTA2LDYwIDQ0LDYwIEM0My43OTMsNjAgNDMuNTg4LDU5LjkzNTQ1MzkgNDMuNDE2LDU5LjgxMDM5NTkgQzQzLjE1NSw1OS42MjA3OTE3IDQzLDU5LjMxNjIxNDkgNDMsNTguOTkxNDY3NCBMNDMsNDcuNjMyMzY0MiBMNDEuMDY1LDQ3LjYzMjM2NDIgTDQxLjA2NSw0NS42MTUyOTg5IEw0Myw0NS42MTUyOTg5IEw0MywxOS4zOTM0NTAyIEw0MS4wNjUsMTkuMzkzNDUwMiBMNDEuMDY1LDE3LjM3NjM4NSBMNDMsMTcuMzc2Mzg1IEw0Myw1LjAwODc0OTE3IEM0Myw0LjY1OTc5Njg3IDQzLjE3OSw0LjMzNjA1Nzg5IDQzLjQ3Miw0LjE1MjUwNDk1IEM0My43NjUsMy45Njc5NDM0OCA0NC4xMzEsMy45NDk3ODk4OSA0NC40NDEsNC4xMDQwOTUzOSBMNTkuNDQxLDExLjU0OTA4MzMgQzU5Ljc4MywxMS43MTg1MTY4IDYwLDEyLjA3MDQ5NDcgNjAsMTIuNDUzNzM3MSBMNjAsNTMuOTE5NTU2NyBaIE0zNC45MzQsMjUuODA2NzA5MyBMMzMuMDY2LDI1LjA4MjU4MjkgTDI4LjA2NiwzOC4xOTM1MDcyIEwyOS45MzQsMzguOTE3NjMzNyBMMzQuOTM0LDI1LjgwNjcwOTMgWiBNNDEuNzA3LDMyLjIwODg3NDUgQzQyLjA5OCwzMS44MTQ1MzgzIDQyLjA5OCwzMS4xNzYxMzcxIDQxLjcwNywzMC43ODI4MDk0IEwzNy43MDcsMjYuNzQ4Njc4OCBMMzYuMjkzLDI4LjE3NDc0NCBMMzkuNTg2LDMxLjQ5NTg0MTkgTDM2LjI5MywzNC44MTY5Mzk5IEwzNy43MDcsMzYuMjQzMDA1MSBMNDEuNzA3LDMyLjIwODg3NDUgWiBNMjYuMjkzLDM2LjI0MzAwNTEgTDIyLjI5MywzMi4yMDg4NzQ1IEMyMS45MDIsMzEuODE0NTM4MyAyMS45MDIsMzEuMTc2MTM3MSAyMi4yOTMsMzAuNzgyODA5NCBMMjYuMjkzLDI2Ljc0ODY3ODggTDI3LjcwNywyOC4xNzQ3NDQgTDI0LjQxNCwzMS40OTU4NDE5IEwyNy43MDcsMzQuODE2OTM5OSBMMjYuMjkzLDM2LjI0MzAwNTEgWiIvPiYjeGE7ICAgICAgICA8L2c+JiN4YTsgICAgPC9nPiYjeGE7PC9zdmc+;" parent="1" vertex="1">
          <mxGeometry x="430" y="230" width="40" height="40" as="geometry" />
        </mxCell>
        <mxCell id="_5o0ibSi2e8DYtXXYduX-17" value="POST /Payment" style="text;html=1;align=center;verticalAlign=middle;resizable=0;points=[];autosize=1;strokeColor=none;fillColor=none;" parent="1" vertex="1">
          <mxGeometry x="295" y="228" width="110" height="30" as="geometry" />
        </mxCell>
        <mxCell id="_5o0ibSi2e8DYtXXYduX-21" style="edgeStyle=orthogonalEdgeStyle;rounded=0;orthogonalLoop=1;jettySize=auto;html=1;exitX=0.5;exitY=1;exitDx=0;exitDy=0;" parent="1" edge="1">
          <mxGeometry relative="1" as="geometry">
            <mxPoint x="563.25" y="271" as="sourcePoint" />
            <mxPoint x="563.25" y="271" as="targetPoint" />
          </mxGeometry>
        </mxCell>
        <mxCell id="_5o0ibSi2e8DYtXXYduX-25" style="edgeStyle=orthogonalEdgeStyle;rounded=0;orthogonalLoop=1;jettySize=auto;html=1;entryX=0;entryY=0.5;entryDx=0;entryDy=0;" parent="1" source="_5o0ibSi2e8DYtXXYduX-22" target="_5o0ibSi2e8DYtXXYduX-24" edge="1">
          <mxGeometry relative="1" as="geometry" />
        </mxCell>
        <mxCell id="MvUoBmO1SIilYgAonX3K-6" style="edgeStyle=orthogonalEdgeStyle;rounded=0;orthogonalLoop=1;jettySize=auto;html=1;" edge="1" parent="1" source="_5o0ibSi2e8DYtXXYduX-22" target="MvGa4ZtVWc14RxAt6pgf-4">
          <mxGeometry relative="1" as="geometry">
            <Array as="points">
              <mxPoint x="541" y="470" />
            </Array>
          </mxGeometry>
        </mxCell>
        <mxCell id="_5o0ibSi2e8DYtXXYduX-22" value="Lambda Proxy" style="shape=image;verticalLabelPosition=bottom;labelBackgroundColor=none;verticalAlign=top;aspect=fixed;imageAspect=0;editableCssRules=.*;image=data:image/svg+xml,PHN2ZyB4bWxuczp4bGluaz0iaHR0cDovL3d3dy53My5vcmcvMTk5OS94bGluayIgeG1sbnM9Imh0dHA6Ly93d3cudzMub3JnLzIwMDAvc3ZnIiB2ZXJzaW9uPSIxLjEiIHZpZXdCb3g9Ii0wLjUgLTAuNSA4MSA4MSIgaGVpZ2h0PSI4MSIgd2lkdGg9IjgxIj4mI3hhOyAgICAmI3hhOyAgICA8dGl0bGU+SWNvbi1BcmNoaXRlY3R1cmUvNjQvQXJjaF9BV1MtTGFtYmRhXzY0PC90aXRsZT4mI3hhOyAgICA8ZGVzYz5DcmVhdGVkIHdpdGggU2tldGNoLjwvZGVzYz4mI3hhOyAgICA8ZGVmcz4mI3hhOyAgICAgICAgPGxpbmVhckdyYWRpZW50IGlkPSJsaW5lYXJHcmFkaWVudC0xIiB5Mj0iMCUiIHgyPSIxMDAlIiB5MT0iMTAwJSIgeDE9IjAlIj4mI3hhOyAgICAgICAgICAgIDxzdG9wIG9mZnNldD0iMCUiIHN0b3AtY29sb3I9IiNDODUxMUIiLz4mI3hhOyAgICAgICAgICAgIDxzdG9wIG9mZnNldD0iMTAwJSIgc3RvcC1jb2xvcj0iI0ZGOTkwMCIvPiYjeGE7ICAgICAgICA8L2xpbmVhckdyYWRpZW50PiYjeGE7ICAgIDwvZGVmcz4mI3hhOyAgICA8ZyBmaWxsLXJ1bGU9ImV2ZW5vZGQiIGZpbGw9Im5vbmUiIHN0cm9rZS13aWR0aD0iMSIgc3Ryb2tlPSJub25lIiBpZD0iSWNvbi1BcmNoaXRlY3R1cmUvNjQvQXJjaF9BV1MtTGFtYmRhXzY0Ij4mI3hhOyAgICAgICAgPGcgZmlsbD0idXJsKCNsaW5lYXJHcmFkaWVudC0xKSIgaWQ9Ikljb24tQXJjaGl0ZWN0dXJlLUJHLzY0L0NvbXB1dGUiPiYjeGE7ICAgICAgICAgICAgPHJlY3QgaGVpZ2h0PSI4MCIgd2lkdGg9IjgwIiB5PSIwIiB4PSIwIiBpZD0iUmVjdGFuZ2xlIi8+JiN4YTsgICAgICAgIDwvZz4mI3hhOyAgICAgICAgPHBhdGggZmlsbD0iI0ZGRkZGRiIgaWQ9IkFXUy1MYW1iZGFfSWNvbl82NF9TcXVpZCIgZD0iTTI4LjAwNzUzNTIsNjYgTDE1LjU5MDcyNzQsNjYgTDI5LjMyMzU4ODUsMzcuMjk2IEwzNS41NDYwMjQ5LDUwLjEwNiBMMjguMDA3NTM1Miw2NiBaIE0zMC4yMTk2Njc0LDM0LjU1MyBDMzAuMDUxMjc2OCwzNC4yMDggMjkuNzAwNDYyOSwzMy45ODkgMjkuMzE3NTc0NSwzMy45ODkgTDI5LjMxNDU2NzYsMzMuOTg5IEMyOC45Mjg2NzIzLDMzLjk5IDI4LjU3Nzg1ODMsMzQuMjExIDI4LjQxMjQ3NDYsMzQuNTU4IEwxMy4wOTc5NDQsNjYuNTY5IEMxMi45NDk1OTk5LDY2Ljg3OSAxMi45NzA2NDg3LDY3LjI0MyAxMy4xNTUwNzY2LDY3LjUzNCBDMTMuMzM3NDk5OCw2Ny44MjQgMTMuNjU4MjQzOSw2OCAxNC4wMDIwNDE2LDY4IEwyOC42NDIwMDcyLDY4IEMyOS4wMjk5MDcxLDY4IDI5LjM4MTcyMzQsNjcuNzc3IDI5LjU0ODEwOTQsNjcuNDI4IEwzNy41NjM3MDYsNTAuNTI4IEMzNy42OTMwMDYsNTAuMjU0IDM3LjY5MjAwMzcsNDkuOTM3IDM3LjU1ODY5NDQsNDkuNjY1IEwzMC4yMTk2Njc0LDM0LjU1MyBaIE02NC45OTUzNDkxLDY2IEw1Mi42NTg3Mjc0LDY2IEwzMi44NjY4MDksMjQuNTcgQzMyLjcwMTQyNTMsMjQuMjIyIDMyLjM0ODYwNjcsMjQgMzEuOTYxNzA5MSwyNCBMMjMuODg5OTgyMiwyNCBMMjMuODk5MDAzMSwxNCBMMzkuNzE5NzA4MSwxNCBMNTkuNDIwNDE0OSw1NS40MjkgQzU5LjU4NTc5ODYsNTUuNzc3IDU5LjkzODYxNzIsNTYgNjAuMzI1NTE0OCw1NiBMNjQuOTk1MzQ5MSw1NiBMNjQuOTk1MzQ5MSw2NiBaIE02NS45OTc2NzQ1LDU0IEw2MC45NTk5ODY4LDU0IEw0MS4yNTkyOCwxMi41NzEgQzQxLjA5Mzg5NjMsMTIuMjIzIDQwLjc0MTA3NzcsMTIgNDAuMzUzMTc3OCwxMiBMMjIuODk3NjgsMTIgQzIyLjM0NTM5ODcsMTIgMjEuODk2MzU2OSwxMi40NDcgMjEuODk1MzU0NSwxMi45OTkgTDIxLjg4NDMyOSwyNC45OTkgQzIxLjg4NDMyOSwyNS4yNjUgMjEuOTg4NTcwOCwyNS41MTkgMjIuMTc4MDEwMywyNS43MDcgQzIyLjM2NTQ0NTIsMjUuODk1IDIyLjYyMDAzNTgsMjYgMjIuODg2NjU0NCwyNiBMMzEuMzI5MjQxNywyNiBMNTEuMTIyMTYyNSw2Ny40MyBDNTEuMjg4NTQ4NSw2Ny43NzggNTEuNjM5MzYyNCw2OCA1Mi4wMjYyNiw2OCBMNjUuOTk3Njc0NSw2OCBDNjYuNTUxOTYwNSw2OCA2Nyw2Ny41NTIgNjcsNjcgTDY3LDU1IEM2Nyw1NC40NDggNjYuNTUxOTYwNSw1NCA2NS45OTc2NzQ1LDU0IEw2NS45OTc2NzQ1LDU0IFoiLz4mI3hhOyAgICA8L2c+JiN4YTs8L3N2Zz4=;" parent="1" vertex="1">
          <mxGeometry x="520" y="229" width="41" height="41" as="geometry" />
        </mxCell>
        <mxCell id="_5o0ibSi2e8DYtXXYduX-27" style="edgeStyle=orthogonalEdgeStyle;rounded=0;orthogonalLoop=1;jettySize=auto;html=1;entryX=0.5;entryY=0;entryDx=0;entryDy=0;sourcePerimeterSpacing=22;" parent="1" source="_5o0ibSi2e8DYtXXYduX-24" target="_5o0ibSi2e8DYtXXYduX-26" edge="1">
          <mxGeometry relative="1" as="geometry">
            <Array as="points">
              <mxPoint x="675" y="310" />
              <mxPoint x="575" y="310" />
            </Array>
          </mxGeometry>
        </mxCell>
        <mxCell id="_5o0ibSi2e8DYtXXYduX-32" style="edgeStyle=orthogonalEdgeStyle;rounded=0;orthogonalLoop=1;jettySize=auto;html=1;" parent="1" source="_5o0ibSi2e8DYtXXYduX-24" target="_5o0ibSi2e8DYtXXYduX-40" edge="1">
          <mxGeometry relative="1" as="geometry">
            <mxPoint x="1117.75" y="125" as="targetPoint" />
            <Array as="points">
              <mxPoint x="675" y="140" />
            </Array>
          </mxGeometry>
        </mxCell>
        <mxCell id="_5o0ibSi2e8DYtXXYduX-33" value="POST /payments-api/service.cgi&amp;nbsp;" style="edgeLabel;html=1;align=center;verticalAlign=middle;resizable=0;points=[];labelBackgroundColor=none;" parent="_5o0ibSi2e8DYtXXYduX-32" vertex="1" connectable="0">
          <mxGeometry x="-0.6939" y="4" relative="1" as="geometry">
            <mxPoint x="357" y="-6" as="offset" />
          </mxGeometry>
        </mxCell>
        <mxCell id="_5o0ibSi2e8DYtXXYduX-42" style="edgeStyle=orthogonalEdgeStyle;rounded=0;orthogonalLoop=1;jettySize=auto;html=1;entryX=0;entryY=0.5;entryDx=0;entryDy=0;" parent="1" source="_5o0ibSi2e8DYtXXYduX-24" target="_5o0ibSi2e8DYtXXYduX-37" edge="1">
          <mxGeometry relative="1" as="geometry" />
        </mxCell>
        <mxCell id="_5o0ibSi2e8DYtXXYduX-43" value="POST /&lt;span style=&quot;color: rgb(33, 33, 33); font-family: Inter, system-ui, -apple-system, BlinkMacSystemFont, &amp;quot;Segoe UI&amp;quot;, Roboto, Oxygen, Ubuntu, Cantarell, &amp;quot;Fira Sans&amp;quot;, &amp;quot;Droid Sans&amp;quot;, Helvetica, Arial, sans-serif; font-size: 12px; text-align: left; white-space: pre-wrap;&quot;&gt;ObtencionToken&lt;/span&gt;" style="edgeLabel;html=1;align=center;verticalAlign=middle;resizable=0;points=[];" parent="_5o0ibSi2e8DYtXXYduX-42" vertex="1" connectable="0">
          <mxGeometry x="0.3472" y="-1" relative="1" as="geometry">
            <mxPoint x="8" y="-13" as="offset" />
          </mxGeometry>
        </mxCell>
        <mxCell id="_5o0ibSi2e8DYtXXYduX-44" style="edgeStyle=orthogonalEdgeStyle;rounded=0;orthogonalLoop=1;jettySize=auto;html=1;entryX=0;entryY=0.75;entryDx=0;entryDy=0;" parent="1" source="_5o0ibSi2e8DYtXXYduX-24" target="_5o0ibSi2e8DYtXXYduX-38" edge="1">
          <mxGeometry relative="1" as="geometry">
            <Array as="points">
              <mxPoint x="920" y="260" />
              <mxPoint x="920" y="377" />
              <mxPoint x="1220" y="377" />
              <mxPoint x="1220" y="375" />
            </Array>
          </mxGeometry>
        </mxCell>
        <mxCell id="_5o0ibSi2e8DYtXXYduX-46" value="POST /&lt;span style=&quot;color: rgb(33, 33, 33); font-family: Inter, system-ui, -apple-system, BlinkMacSystemFont, &amp;quot;Segoe UI&amp;quot;, Roboto, Oxygen, Ubuntu, Cantarell, &amp;quot;Fira Sans&amp;quot;, &amp;quot;Droid Sans&amp;quot;, Helvetica, Arial, sans-serif; font-size: 12px; text-align: left; white-space: pre-wrap;&quot;&gt;createTransactionPayment&lt;/span&gt;" style="edgeLabel;html=1;align=center;verticalAlign=middle;resizable=0;points=[];" parent="_5o0ibSi2e8DYtXXYduX-44" vertex="1" connectable="0">
          <mxGeometry x="0.4571" y="-1" relative="1" as="geometry">
            <mxPoint x="12" y="-10" as="offset" />
          </mxGeometry>
        </mxCell>
        <mxCell id="_5o0ibSi2e8DYtXXYduX-65" style="edgeStyle=orthogonalEdgeStyle;rounded=0;orthogonalLoop=1;jettySize=auto;html=1;entryX=0;entryY=0.5;entryDx=0;entryDy=0;" parent="1" source="_5o0ibSi2e8DYtXXYduX-24" target="_5o0ibSi2e8DYtXXYduX-41" edge="1">
          <mxGeometry relative="1" as="geometry">
            <Array as="points">
              <mxPoint x="958" y="240" />
              <mxPoint x="958" y="188" />
            </Array>
          </mxGeometry>
        </mxCell>
        <mxCell id="_5o0ibSi2e8DYtXXYduX-68" value="POST /reports-api/service.cgi&amp;nbsp;" style="edgeLabel;html=1;align=center;verticalAlign=middle;resizable=0;points=[];" parent="_5o0ibSi2e8DYtXXYduX-65" vertex="1" connectable="0">
          <mxGeometry x="0.2819" y="1" relative="1" as="geometry">
            <mxPoint x="17" y="-7" as="offset" />
          </mxGeometry>
        </mxCell>
        <mxCell id="_5o0ibSi2e8DYtXXYduX-69" style="edgeStyle=orthogonalEdgeStyle;rounded=0;orthogonalLoop=1;jettySize=auto;html=1;entryX=0;entryY=0.5;entryDx=0;entryDy=0;sourcePerimeterSpacing=20;" parent="1" source="_5o0ibSi2e8DYtXXYduX-24" target="_5o0ibSi2e8DYtXXYduX-39" edge="1">
          <mxGeometry relative="1" as="geometry">
            <Array as="points">
              <mxPoint x="690" y="310" />
              <mxPoint x="870" y="310" />
              <mxPoint x="870" y="417" />
            </Array>
          </mxGeometry>
        </mxCell>
        <mxCell id="_5o0ibSi2e8DYtXXYduX-70" value="POST /&lt;span style=&quot;color: rgb(33, 33, 33); font-family: Inter, system-ui, -apple-system, BlinkMacSystemFont, &amp;quot;Segoe UI&amp;quot;, Roboto, Oxygen, Ubuntu, Cantarell, &amp;quot;Fira Sans&amp;quot;, &amp;quot;Droid Sans&amp;quot;, Helvetica, Arial, sans-serif; font-size: 12px; text-align: left; white-space: pre-wrap;&quot;&gt;GetTransactionInformation&lt;/span&gt;" style="edgeLabel;html=1;align=center;verticalAlign=middle;resizable=0;points=[];" parent="_5o0ibSi2e8DYtXXYduX-69" vertex="1" connectable="0">
          <mxGeometry x="0.2442" y="2" relative="1" as="geometry">
            <mxPoint x="84" y="-8" as="offset" />
          </mxGeometry>
        </mxCell>
        <mxCell id="_5o0ibSi2e8DYtXXYduX-24" value="MsPagos" style="shape=image;verticalLabelPosition=bottom;labelBackgroundColor=none;verticalAlign=top;aspect=fixed;imageAspect=0;editableCssRules=.*;image=data:image/svg+xml,PHN2ZyB4bWxuczp4bGluaz0iaHR0cDovL3d3dy53My5vcmcvMTk5OS94bGluayIgeG1sbnM9Imh0dHA6Ly93d3cudzMub3JnLzIwMDAvc3ZnIiB2ZXJzaW9uPSIxLjEiIHZpZXdCb3g9Ii0wLjUgLTAuNSA4MSA4MSIgaGVpZ2h0PSI4MSIgd2lkdGg9IjgxIj4mI3hhOyAgICA8dGl0bGU+SWNvbi1BcmNoaXRlY3R1cmUvNjQvQXJjaF9BbWF6b24tRUtTLUNsb3VkXzY0PC90aXRsZT4mI3hhOyAgICA8ZGVmcz4mI3hhOyAgICAgICAgPGxpbmVhckdyYWRpZW50IGlkPSJsaW5lYXJHcmFkaWVudC0xIiB5Mj0iMCUiIHgyPSIxMDAlIiB5MT0iMTAwJSIgeDE9IjAlIj4mI3hhOyAgICAgICAgICAgIDxzdG9wIG9mZnNldD0iMCUiIHN0b3AtY29sb3I9IiNDODUxMUIiLz4mI3hhOyAgICAgICAgICAgIDxzdG9wIG9mZnNldD0iMTAwJSIgc3RvcC1jb2xvcj0iI0ZGOTkwMCIvPiYjeGE7ICAgICAgICA8L2xpbmVhckdyYWRpZW50PiYjeGE7ICAgIDwvZGVmcz4mI3hhOyAgICA8ZyBmaWxsLXJ1bGU9ImV2ZW5vZGQiIGZpbGw9Im5vbmUiIHN0cm9rZS13aWR0aD0iMSIgc3Ryb2tlPSJub25lIiBpZD0iSWNvbi1BcmNoaXRlY3R1cmUvNjQvQXJjaF9BbWF6b24tRUtTLUNsb3VkXzY0Ij4mI3hhOyAgICAgICAgPGcgZmlsbD0idXJsKCNsaW5lYXJHcmFkaWVudC0xKSIgaWQ9IlJlY3RhbmdsZSI+JiN4YTsgICAgICAgICAgICA8cmVjdCBoZWlnaHQ9IjgwIiB3aWR0aD0iODAiIHk9IjAiIHg9IjAiLz4mI3hhOyAgICAgICAgPC9nPiYjeGE7ICAgICAgICA8ZyBmaWxsPSIjRkZGRkZGIiB0cmFuc2Zvcm09InRyYW5zbGF0ZSg4LjAwMDAwMCwgOC4wMDAwMDApIiBpZD0iSWNvbi1TZXJ2aWNlLzY0L0FtYXpvbi1FS1MtQ2xvdWRfNjQiPiYjeGE7ICAgICAgICAgICAgPHBhdGggaWQ9IkZpbGwtMSIgZD0iTTUzLjIzOSw1My4zNzcwMjYgTDMxLjczNyw1My4zNTUwMjYgQzI5LjEzMyw1My4zNTIwMjYgMjYuOTA2LDUxLjQxNjAyNiAyNi42NjcsNDguOTQ5MDI2IEMyNi42NDcsNDguNzQzMDI2IDI2LjYzNiw0OC41MjgwMjYgMjYuNjM2LDQ4LjMwNTAyNiBDMjYuNjM2LDQ0LjkyOTAyNiAyOC45NjgsNDMuNzk4MDI2IDMwLjM5MSw0My40MjIwMjYgQzMwLjg0OSw0My4zMjgwMjYgMzEuMTg5LDQyLjkyMjAyNiAzMS4xODksNDIuNDQxMDI2IEMzMS4xODksNDIuMzk0MDI2IDMxLjE4Niw0Mi4zNDcwMjYgMzEuMTc5LDQyLjMwMDAyNiBDMzEuMTQ1LDQyLjAwNDAyNiAzMS4xMjgsNDEuNzAyMDI2IDMxLjEyOCw0MS4zOTYwMjYgQzMxLjEyOCwzOC42MTMwMjYgMzMuMDQ2LDM1LjYyMTAyNiAzNS40OTQsMzQuNTg0MDI2IEMzOS43NDUsMzIuNzg2MDI2IDQyLjc1NCwzNS4xNTEwMjYgNDMuODUyLDM2LjI1MzAyNiBDNDQuNzUxLDM3LjE1NDAyNiA0NS40NTMsMzguMzA5MDI2IDQ1LjkzOCwzOS42ODQwMjYgQzQ2LjA2Miw0MC4wMzMwMjYgNDYuMzY4LDQwLjI4NjAyNiA0Ni43MzQsNDAuMzQwMDI2IEM0Ny4wOTcsNDAuMzk0MDI2IDQ3LjQ2Nyw0MC4yNDMwMjYgNDcuNjg2LDM5Ljk0NTAyNiBDNDguMzIyLDM5LjA4NTAyNiA0OS4zNTIsMzguNzA4MDI2IDUwLjMwNywzOC45ODgwMjYgQzUxLjQ3NywzOS4zMzAwMjYgNTIuMjUzLDQwLjU0MTAyNiA1Mi4zOTMsNDIuMjM4MDI2IEM1Mi4zNDIsNDIuNzU2MDI2IDUyLjcsNDMuMjMxMDI2IDUzLjIxOCw0My4zMjAwMjYgQzU0LjU4Nyw0My41NTYwMjYgNTcuNzY5LDQ0LjUxNzAyNiA1Ny43NjksNDguMzU2MDI2IEM1Ny43NjksNTIuODM5MDI2IDUzLjYyNiw1My4zMzgwMjYgNTMuMjM5LDUzLjM3NzAyNiBMNTMuMjM5LDUzLjM3NzAyNiBaIE0yOS40NDQsNTcuODYyMDI2IEw2LDQ1LjM5ODAyNiBMNiwxOC41NzAwMjYgTDI2LDYuNzUyMDI2MDQgTDI2LDE2LjQ1MTAyNiBMMTUuNDYzLDIzLjE1NjAyNiBDMTUuMTc1LDIzLjMzOTAyNiAxNSwyMy42NTgwMjYgMTUsMjQuMDAwMDI2IEwxNSw0MC4wMDAwMjYgQzE1LDQwLjM3MzAyNiAxNS4yMDgsNDAuNzE0MDI2IDE1LjUzOCw0MC44ODcwMjYgTDI0LjkwMSw0NS43NTgwMjYgTDI1LjA0LDQ1LjgzNTAyNiBDMjQuNzg0LDQ2LjU5MjAyNiAyNC42MzYsNDcuNDE1MDI2IDI0LjYzNiw0OC4zMDUwMjYgQzI0LjYzNiw0OC41OTQwMjYgMjQuNjUxLDQ4Ljg3MjAyNiAyNC42NzcsNDkuMTQwMDI2IEMyNS4wMTIsNTIuNjIxMDI2IDI4LjExMyw1NS4zNTEwMjYgMzEuNzM1LDU1LjM1NTAyNiBMMzMuOTgyLDU1LjM1NjAyNiBMMjkuNDQ0LDU3Ljg2MjAyNiBaIE00NC41MDQsMjMuMTM2MDI2IEwzMywxNi40MjUwMjYgTDMzLDYuNzUyMDI2MDQgTDUzLDE4LjU3MDAyNiBMNTMsMzguNDY3MDI2IEM1Mi40MzEsMzcuODAzMDI2IDUxLjcxNiwzNy4zMTYwMjYgNTAuODY4LDM3LjA2ODAyNiBDNDkuNjE2LDM2LjcwMzAyNiA0OC4zMDgsMzYuOTI2MDI2IDQ3LjI0NSwzNy42MzcwMjYgQzQ2LjcxOCwzNi41NjcwMjYgNDYuMDU2LDM1LjYzMTAyNiA0NS4yNjgsMzQuODQxMDI2IEM0NS4xODIsMzQuNzU1MDI2IDQ1LjA4OCwzNC42ODkwMjYgNDUsMzQuNjA2MDI2IEw0NSwyNC4wMDAwMjYgQzQ1LDIzLjY0NDAyNiA0NC44MTEsMjMuMzE1MDI2IDQ0LjUwNCwyMy4xMzYwMjYgTDQ0LjUwNCwyMy4xMzYwMjYgWiBNNTUsNDEuNzI2MDI2IEw1NSwxOC4wMDAwMjYgQzU1LDE3LjY0NjAyNiA1NC44MTMsMTcuMzE4MDI2IDU0LjUwOSwxNy4xMzkwMjYgTDMyLjUwOSw0LjEzOTAyNjA0IEMzMi4xOTksMy45NTYwMjYwNCAzMS44MTcsMy45NTQwMjYwNCAzMS41MDQsNC4xMzEwMjYwNCBDMzEuMTkyLDQuMzA5MDI2MDQgMzEsNC42NDEwMjYwNCAzMSw1LjAwMDAyNjA0IEwzMSwxNy4wMDAwMjYgQzMxLDE3LjM1NTAyNiAzMS4xODgsMTcuNjg0MDI2IDMxLjQ5NiwxNy44NjMwMjYgTDQzLDI0LjU3NDAyNiBMNDMsMzMuMTE4MDI2IEM0MC40ODMsMzEuNzE0MDI2IDM3LjUzNywzMS41NDgwMjYgMzQuNzE1LDMyLjc0MjAyNiBDMzMuNzI1LDMzLjE2MTAyNiAzMi44MjcsMzMuODI4MDI2IDMyLjAzNywzNC42MjkwMjYgTDI5LjAxMSwzMS4xMjAwMjYgTDM1Ljg0MiwyMy4xOTkwMjYgTDMzLjE4LDIzLjE5OTAyNiBMMjcsMzAuMDAwMDI2IEwyNywyMy4wMDAwMjYgTDI1LDIzLjAwMDAyNiBMMjUsNDAuMDAwMDI2IEwyNyw0MC4wMDAwMjYgTDI3LDMyLjAwMDAyNiBMMzAuNjgyLDM2LjMxMTAyNiBDMjkuNzE0LDM3Ljg0MTAyNiAyOS4xMjgsMzkuNjMzMDI2IDI5LjEyOCw0MS4zOTYwMjYgQzI5LjEyOCw0MS41MDUwMjYgMjkuMTMsNDEuNjE0MDI2IDI5LjEzMyw0MS43MjMwMjYgQzI3Ljc4NSw0Mi4yMTYwMjYgMjYuNzEyLDQzLjAyNzAyNiAyNS45NDYsNDQuMDczMDI2IEwxNywzOS4zOTMwMjYgTDE3LDI0LjU0ODAyNiBMMjcuNTM3LDE3Ljg0MzAyNiBDMjcuODI1LDE3LjY2MDAyNiAyOCwxNy4zNDEwMjYgMjgsMTcuMDAwMDI2IEwyOCw1LjAwMDAyNjA0IEMyOCw0LjY0MTAyNjA0IDI3LjgwNyw0LjMwOTAyNjA0IDI3LjQ5Niw0LjEzMTAyNjA0IEMyNy4xODMsMy45NTQwMjYwNCAyNi44MDIsMy45NTYwMjYwNCAyNi40OTEsNC4xMzkwMjYwNCBMNC40OTEsMTcuMTM5MDI2IEM0LjE4NiwxNy4zMTgwMjYgNCwxNy42NDYwMjYgNCwxOC4wMDAwMjYgTDQsNDYuMDAwMDI2IEM0LDQ2LjM2OTAyNiA0LjIwNCw0Ni43MDkwMjYgNC41Myw0Ni44ODIwMjYgTDI4Ljk4Myw1OS44ODIwMjYgQzI5LjEzMSw1OS45NjAwMjYgMjkuMjkyLDYwLjAwMDAyNiAyOS40NTMsNjAuMDAwMDI2IEMyOS42Miw2MC4wMDAwMjYgMjkuNzg2LDU5Ljk1ODAyNiAyOS45MzYsNTkuODc1MDI2IEwzOC4xMTQsNTUuMzYwMDI2IEw1My4zMTksNTUuMzc0MDI2IEM1NS41NTEsNTUuMTkyMDI2IDU5Ljc2OSw1My40OTIwMjYgNTkuNzY5LDQ4LjM1NjAyNiBDNTkuNzY5LDQ0LjY3ODAyNiA1Ny41MDUsNDIuNjAzMDI2IDU1LDQxLjcyNjAyNiBMNTUsNDEuNzI2MDI2IFoiLz4mI3hhOyAgICAgICAgPC9nPiYjeGE7ICAgIDwvZz4mI3hhOzwvc3ZnPg==;" parent="1" vertex="1">
          <mxGeometry x="654.5" y="229" width="41" height="41" as="geometry" />
        </mxCell>
        <mxCell id="_5o0ibSi2e8DYtXXYduX-55" style="edgeStyle=orthogonalEdgeStyle;rounded=0;orthogonalLoop=1;jettySize=auto;html=1;" parent="1" source="_5o0ibSi2e8DYtXXYduX-26" target="_5o0ibSi2e8DYtXXYduX-54" edge="1">
          <mxGeometry relative="1" as="geometry">
            <Array as="points">
              <mxPoint x="575" y="876" />
            </Array>
          </mxGeometry>
        </mxCell>
        <mxCell id="_5o0ibSi2e8DYtXXYduX-58" value="CDC" style="edgeLabel;html=1;align=center;verticalAlign=middle;resizable=0;points=[];labelBackgroundColor=none;" parent="_5o0ibSi2e8DYtXXYduX-55" vertex="1" connectable="0">
          <mxGeometry x="-0.6994" y="3" relative="1" as="geometry">
            <mxPoint x="1" y="-4" as="offset" />
          </mxGeometry>
        </mxCell>
        <mxCell id="_5o0ibSi2e8DYtXXYduX-26" value="DocumentDB" style="shape=image;verticalLabelPosition=bottom;labelBackgroundColor=none;verticalAlign=top;aspect=fixed;imageAspect=0;editableCssRules=.*;image=data:image/svg+xml,PHN2ZyB4bWxuczp4bGluaz0iaHR0cDovL3d3dy53My5vcmcvMTk5OS94bGluayIgeG1sbnM9Imh0dHA6Ly93d3cudzMub3JnLzIwMDAvc3ZnIiB2ZXJzaW9uPSIxLjEiIHZpZXdCb3g9Ii0wLjUgLTAuNSA4MSA4MSIgaGVpZ2h0PSI4MSIgd2lkdGg9IjgxIj4mI3hhOyAgICAmI3hhOyAgICA8dGl0bGU+SWNvbi1BcmNoaXRlY3R1cmUvNjQvQXJjaF9BbWF6b24tRG9jdW1lbnREQl82NDwvdGl0bGU+JiN4YTsgICAgPGRlc2M+Q3JlYXRlZCB3aXRoIFNrZXRjaC48L2Rlc2M+JiN4YTsgICAgPGRlZnM+JiN4YTsgICAgICAgIDxsaW5lYXJHcmFkaWVudCBpZD0ibGluZWFyR3JhZGllbnQtMSIgeTI9IjAlIiB4Mj0iMTAwJSIgeTE9IjEwMCUiIHgxPSIwJSI+JiN4YTsgICAgICAgICAgICA8c3RvcCBvZmZzZXQ9IjAlIiBzdG9wLWNvbG9yPSIjMkUyN0FEIi8+JiN4YTsgICAgICAgICAgICA8c3RvcCBvZmZzZXQ9IjEwMCUiIHN0b3AtY29sb3I9IiM1MjdGRkYiLz4mI3hhOyAgICAgICAgPC9saW5lYXJHcmFkaWVudD4mI3hhOyAgICA8L2RlZnM+JiN4YTsgICAgPGcgZmlsbC1ydWxlPSJldmVub2RkIiBmaWxsPSJub25lIiBzdHJva2Utd2lkdGg9IjEiIHN0cm9rZT0ibm9uZSIgaWQ9Ikljb24tQXJjaGl0ZWN0dXJlLzY0L0FyY2hfQW1hem9uLURvY3VtZW50REJfNjQiPiYjeGE7ICAgICAgICA8ZyBmaWxsPSJ1cmwoI2xpbmVhckdyYWRpZW50LTEpIiBpZD0iSWNvbi1BcmNoaXRlY3R1cmUtQkcvNjQvRGF0YWJhc2UiPiYjeGE7ICAgICAgICAgICAgPHJlY3QgaGVpZ2h0PSI4MCIgd2lkdGg9IjgwIiB5PSIwIiB4PSIwIiBpZD0iUmVjdGFuZ2xlIi8+JiN4YTsgICAgICAgIDwvZz4mI3hhOyAgICAgICAgPHBhdGggZmlsbD0iI0ZGRkZGRiIgaWQ9IkFtYXpvbi1Eb2N1bWVudERCX0ljb25fNjRfU3F1aWQiIGQ9Ik0zNC41LDEzLjk5MjgzMjggQzQ0LjgxMywxMy45OTI4MzI4IDUyLDE3LjE0MzUwMTQgNTIsMTkuOTcxMzMxMiBDNTIsMjIuNzk5MTYwOSA0NC44MTMsMjUuOTQ5ODI5NiAzNC41LDI1Ljk0OTgyOTYgQzI0LjE4NywyNS45NDk4Mjk2IDE3LDIyLjc5OTE2MDkgMTcsMTkuOTcxMzMxMiBDMTcsMTcuMTQzNTAxNCAyNC4xODcsMTMuOTkyODMyOCAzNC41LDEzLjk5MjgzMjggTDM0LjUsMTMuOTkyODMyOCBaIE0zNC4yOTUsNjcuMDA3MTY3MiBDMjQuMTAzLDY3LjAwNzE2NzIgMTcsNjMuNzg3NzQ1OCAxNyw2MC44OTkxMzQ3IEwxNyw1Mi4yMTIzNzY1IEMyMC4xMjEsNTQuODI0OTgwMyAyNi40NzIsNTYuNTM4ODE2NSAzNC4xNjEsNTYuNTM4ODE2NSBDMzUuOTM0LDU2LjUzODgxNjUgMzcuNzE4LDU2LjQ0MDE3MTMgMzkuNDY1LDU2LjI0Njg2NjUgTDM5LjI0NCw1NC4yNjU5OTA3IEMzNy41Nyw1NC40NTEzMjQyIDM1Ljg1OSw1NC41NDU5ODM3IDM0LjE2MSw1NC41NDU5ODM3IEMyNC42NDYsNTQuNTQ1OTgzNyAxNy44Myw1MS43MjQxMzI1IDE3LDQ4Ljk5Mjk1NTIgTDE3LDM4LjI1NTU3MjEgQzIwLjEyMSw0MC44NjgxNzU5IDI2LjQ3Miw0Mi41ODEwMTU2IDM0LjE2MSw0Mi41ODEwMTU2IEMzNS45NzEsNDIuNTgxMDE1NiAzNy43NTcsNDIuNDgxMzc0IDM5LjQ2OSw0Mi4yODQwODM2IEwzOS4yNCw0MC4zMDUyMDA2IEMzNy42MDMsNDAuNDkzNTIzMyAzNS44OTUsNDAuNTg4MTgyOSAzNC4xNjEsNDAuNTg4MTgyOSBDMjQuNjQ2LDQwLjU4ODE4MjkgMTcuODMsMzcuNzY3MzI4IDE3LDM1LjAzNjE1MDcgTDE3LDIzLjU1NDQ0NDUgQzE5Ljg3OSwyNi4wMTI2MDM4IDI1LjgxOCwyNy45NDI2NjI0IDM0LjUsMjcuOTQyNjYyNCBDNDMuMTgyLDI3Ljk0MjY2MjQgNDkuMTIxLDI2LjAxMjYwMzggNTIsMjMuNTU0NDQ0NSBMNTIsMjYuOTQ2MjQ2IEw1NCwyNi45NDYyNDYgTDU0LDE5Ljk3MTMzMTIgQzU0LDE2LjEwNzIyODQgNDcuMTY2LDEyIDM0LjUsMTIgQzIxLjgzNCwxMiAxNSwxNi4xMDcyMjg0IDE1LDE5Ljk3MTMzMTIgTDE1LDYwLjg5OTEzNDcgQzE1LDY1LjUxNjUyODMgMjMuMjk1LDY5IDM0LjI5NSw2OSBDNDMuMTMsNjkgNTAuNTkyLDY2LjY2OTM4MiA1Mi44NjMsNjMuMjAxODUzIEw1MS4xODcsNjIuMTEyNzY5OSBDNDkuNTk1LDY0LjU0NTAyMjMgNDMuMjgxLDY3LjAwNzE2NzIgMzQuMjk1LDY3LjAwNzE2NzIgTDM0LjI5NSw2Ny4wMDcxNjcyIFogTTU4LjIwNyw0Mi4xNjc1MDI4IEM1OC43Nyw0Mi4xNjc1MDI4IDU5LjI2Nyw0Mi4zOTE2OTY1IDU5LjYwNiw0Mi44MDAyMjczIEM2MC4yMyw0My41NDc1Mzk2IDYwLjEyOSw0NC42Nzk0Njg2IDYwLjA2OCw0NS4wODAwMjggQzYwLjA5Nyw0Ny4xODY0NTIyIDYxLjI2LDQ3LjU5Nzk3MjIgNjEuMzk1LDQ3LjYzODgyNTMgQzYxLjgyNSw0Ny43NjgzNTk0IDYyLjEyOCw0OC4xNzE5MDggNjIuMTE3LDQ4LjYyMDI5NTQgQzYyLjEwNiw0OS4wNjg2ODI4IDYxLjgwOSw0OS40NTcyODUyIDYxLjM3Miw0OS41NjU4OTQ2IEM2MS4yNTksNDkuNjAwNzY5MiA2MC4wNjcsNTAuMDIyMjUzMyA2MC4wNjcsNTIuMTk2NDMzOSBDNjAuMDksNTMuMzY5MjE2IDU5LjUyNyw1NC42Njk1Mzk0IDU4LjIzNyw1NC43MDgzOTk2IEw1Ny40NjksNTQuNzA4Mzk5NiBMNTcuNDY5LDUyLjcxNTU2NjggTDU3Ljk5Nyw1Mi43MTU1NjY4IEM1OC4wMzcsNTIuNTgzMDQzNCA1OC4wNjgsNTIuMzc0NzkyNCA1OC4wNjcsNTIuMjEwMzgzNyBDNTguMDY3LDUwLjM5MTkyMzggNTguNjc3LDQ5LjI3NDk0MSA1OS4zMjksNDguNjAwMzY3MSBDNTguNjc3LDQ3LjkyNjc4OTYgNTguMDY3LDQ2LjgxMjc5NjEgNTguMDY3LDQ1LjAwMTMxMTEgQzU4LjA2Nyw0NC45NDA1Mjk3IDU4LjA3Myw0NC44Nzg3NTE5IDU4LjA4NCw0NC44MTg5NjY5IEM1OC4xMjIsNDQuNjA0NzM3MyA1OC4xMjIsNDQuMzIzNzQ3OSA1OC4wOSw0NC4xNjAzMzU2IEw1Ny40NjksNDQuMTYwMzM1NiBMNTcuNDY5LDQyLjE2NzUwMjggTDU4LjIwNyw0Mi4xNjc1MDI4IFogTTUzLjUyNyw0Mi4xNjc1MDI4IEw1NC4yOTYsNDIuMTY3NTAyOCBMNTQuMjk2LDQ0LjE2MDMzNTYgTDUzLjc2OSw0NC4xNjAzMzU2IEM1My43MjgsNDQuMjkyODU5IDUzLjY5Nyw0NC41MDExMSA1My42OTgsNDQuNjY1NTE4NyBDNTMuNjk4LDQ2LjQ4Mzk3ODcgNTMuMDg5LDQ3LjYwMDk2MTUgNTIuNDM3LDQ4LjI3NTUzNTQgQzUzLjA4OSw0OC45NDkxMTI4IDUzLjY5OCw1MC4wNjMxMDY0IDUzLjY5OCw1MS44NzQ1OTE0IEM1My42OTgsNTEuOTM2MzY5MiA1My42OTIsNTEuOTk3MTUwNiA1My42ODIsNTIuMDU2OTM1NiBDNTMuNjQ0LDUyLjI3MTE2NTEgNTMuNjQ0LDUyLjU1MjE1NDUgNTMuNjc2LDUyLjcxNTU2NjggTDU0LjI5Niw1Mi43MTU1NjY4IEw1NC4yOTYsNTQuNzA4Mzk5NiBMNTMuNTU4LDU0LjcwODM5OTYgQzUyLjk5NSw1NC43MDgzOTk2IDUyLjQ5OCw1NC40ODQyMDU5IDUyLjE1OCw1NC4wNzY2NzE2IEM1MS41MzUsNTMuMzI5MzU5MyA1MS42MzcsNTIuMTk3NDMwMyA1MS42OTcsNTEuNzk1ODc0NSBDNTEuNjY5LDQ5LjY5MDQ0NjYgNTAuNTA1LDQ5LjI3NzkzMDMgNTAuMzcsNDkuMjM4MDczNiBDNDkuOTM5LDQ5LjEwNzU0MyA0OS42MzcsNDguNzAzOTk0NCA0OS42NDcsNDguMjU1NjA3IEM0OS42NTgsNDcuODA4MjE2MSA0OS45NTYsNDcuNDE4NjE3MyA1MC4zOTMsNDcuMzEwMDA3OSBDNTAuNTA3LDQ3LjI3NTEzMzMgNTEuNjk4LDQ2Ljg1MzY0OTIgNTEuNjk4LDQ0LjY3OTQ2ODYgQzUxLjY3NSw0My41MDc2ODI5IDUyLjIzNyw0Mi4yMDYzNjMxIDUzLjUyNyw0Mi4xNjc1MDI4IEw1My41MjcsNDIuMTY3NTAyOCBaIE02NCw1OC44MzE1NzA3IEw0Nyw1OC44MzE1NzA3IEw0NywzNC45MTc1NzcxIEw1OCwzNC45MTc1NzcxIEw1OCwzOC45MDMyNDI3IEM1OCwzOS40NTMyNjQ2IDU4LjQ0NywzOS44OTk2NTkxIDU5LDM5Ljg5OTY1OTEgTDY0LDM5Ljg5OTY1OTEgTDY0LDU4LjgzMTU3MDcgWiBNNjAsMzQuOTE3NTc3MSBMNjAuMjQ1LDM0LjkxNzU3NzEgTDYzLjI2OCwzNy45MDY4MjYzIEw2MCwzNy45MDY4MjYzIEw2MCwzNC45MTc1NzcxIFogTTY1LjcwNCwzNy41MDgyNTk4IEw2MS4zNjEsMzMuMjEzNzA1MSBDNjEuMTc1LDMzLjAyODM3MTYgNjAuOTIxLDMyLjkyNDc0NDMgNjAuNjU3LDMyLjkyNDc0NDMgTDYwLDMyLjkyNDc0NDMgTDU5LjYzNSwzMi45MjQ3NDQzIEw1Ni41NDgsMjkuMjkxODEwMiBDNTYuMzU3LDI5LjA2NzYxNjUgNTYuMDc4LDI4LjkzOTA3ODggNTUuNzg0LDI4LjkzOTA3ODggTDQyLDI4LjkzOTA3ODggQzQxLjQ0NywyOC45MzkwNzg4IDQxLDI5LjM4NTQ3MzMgNDEsMjkuOTM1NDk1MSBMNDEsNTUuODQyMzIxNSBDNDEsNTYuMzkyMzQzMyA0MS40NDcsNTYuODM4NzM3OSA0Miw1Ni44Mzg3Mzc5IEw0NCw1Ni44Mzg3Mzc5IEw0NCw1NC44NDU5MDUxIEw0Myw1NC44NDU5MDUxIEw0MywzMC45MzE5MTE1IEw1NS4zMiwzMC45MzE5MTE1IEw1Ny4wMTQsMzIuOTI0NzQ0MyBMNDYsMzIuOTI0NzQ0MyBDNDUuNDQ3LDMyLjkyNDc0NDMgNDUsMzMuMzcxMTM4OSA0NSwzMy45MjExNjA3IEw0NSw1OS44Mjc5ODcxIEM0NSw2MC4zNzgwMDg5IDQ1LjQ0Nyw2MC44MjQ0MDM1IDQ2LDYwLjgyNDQwMzUgTDY1LDYwLjgyNDQwMzUgQzY1LjU1Myw2MC44MjQ0MDM1IDY2LDYwLjM3ODAwODkgNjYsNTkuODI3OTg3MSBMNjYsMzguMjE1NzE1NCBDNjYsMzcuOTQ5NjcyMiA2NS44OTQsMzcuNjk1NTg2MSA2NS43MDQsMzcuNTA4MjU5OCBMNjUuNzA0LDM3LjUwODI1OTggWiIvPiYjeGE7ICAgIDwvZz4mI3hhOzwvc3ZnPg==;" parent="1" vertex="1">
          <mxGeometry x="550" y="559" width="51" height="51" as="geometry" />
        </mxCell>
        <mxCell id="_5o0ibSi2e8DYtXXYduX-29" value="" style="shape=image;verticalLabelPosition=bottom;labelBackgroundColor=default;verticalAlign=top;aspect=fixed;imageAspect=0;image=data:image/webp,UklGRpIKAABXRUJQVlA4TIYKAAAvf8AfEFWHgbRtWv+2z/s7iIgJ4N/0a1HBCJAspvmAay1700in2v5XciPmwqFq+zlzv2/COdsKWprZe+8//PofCWcPCjFQ73JbV6qnNokIY4/aoWEIC8BVBmAMRpCzwQiAKWzvMMddWhjXoVTnnM3AvSrhMRHXsROLnwMJpXIYOJULY4/b5SAEC8EEXKl1IKHOMGIlMHOGiUmoMwOXcY56p9FxDgxi5c5RJMmy8pGGCU7/xvqqir8p+NhALaRIkhxJe8yPjO5Njz39XQLHCQ4AAAST2ba37Lr6bNu+bby267Jt27Zt23YTQCn6//dz4l9N77333kt67703yrf8vskvOhj+EjIrAQU5xQrdRzYKctszHZyAg1igrwCKgJhIcICGfs9tr38ZsRAFaKjLuTvIWgALKwEcdA1ICAZ2PpM4oN47EpAQC0wkxAAl5YWUrAM8ZCIhEigWcNAchHVA55rBQQcFTcKKwEA/7w1iAAAEkw6ebdu2bdu2lW3bchgAANHs/2Oybds127b7PwEa5IrLA7AMYZQR4UWWBFXTDVDLxBnsDvVC/dthw83rviaq5o5NFoZlCI9UxPo4bDQbKo1sDHmynO+GjVKp+GZd+b6y4jZ23hGJ6XXJNs05bANJIXTHlz94pErngf2PFKEezVPiAVZ45rL/PzQ+5XViqFjUhXk91a2+JhMXmBJZM+rP/KcboTMexWJUGcyheQuUmoWZjqIAbvp0MxYwMj0ZXoUjQbRY4FB3QrJh1d7fqDnUtwVP9oWKKx0HGVCFaVG7FkXYdrKkEco7l9L9WiQLKnNjEFUmj6xYRGFLRwcAZ3+YRZV4Q7n6Vrod8JUWXShx6e8C8qpNVFqEkbp3PCp5MHSdFmWob3x+wnlTfb7Q5y3SHyVE84Sfm+ATizaxNe1Fafmj7rKIk+2U/GF4cMq8RR1a5HYjODuW6rLIz/7l6LlTLfqo+uvcrBEBW04IB5OweMbBp8irCEZ2Qz+4ub1ztgkJmxjkRWWYmJfm9EMhRwFSzWXjnyYoanWQB1mSiYoKygEkdYwsyGs5/GxUuwk7k+kFE5deNTOMqCl5XstQGcxNYHJVTveZCP3qvQPWWjB0PLV5N9UPJuKY7Q0w6eJsY4kU09wu02SKxwoZRm9vgEnnJ6sC601kopbJmK3S+zf6XV1lvnhAezhkPN22bVufUjsMCCqGippgQHcuhFriDtGm8kTN7kGzNSZoqTfSpQlljXWa0RXLBctvMnbeER/IBd23Gzoml/3Q0BWlfdbHW5l6d4tC44bNDTslCAGAo7fWaOf9/WtSpXg8VlXvNAmjsQTGSWcnL5bsmKqUbapIOFpfaE+9uc79+2MMTH96jN3fVceLWALpgzyDPfHsFICZb+9B3VEUErVKF0pjD3Zzf3/dEgFDclRGs7LFE8csVbtp1k88O+J1zve3JxQALGjtAbTDpjObGBw5+/0N3SKSxOQCTmDJqq+naSh1cDhsNg8FQQtYXbZGP+/3Fw6BLYpsHjo538k+7VHPaaY93F3Qp9JdwPo1+gaOsygPpqYlTvqjqkfU0s77bwEjN1aJNCaeTOszJEpDoZn9+VE6kznCws1OWZMKoNDiiuXLE44PAIMH44XCjOenaZG3F5LyzlRgcmzkuG5gT68hHAxFIrEwMOQf3v13//6Rq+Wst1frjKdHkzfEjSzJiXQAxBEpWT64P162qTUAtEy+uryUb3LCQJDydF2uqctUKTzRQ7DQ5tXn6up4EQFH5oeaLlHEKVn8jJv9nUC7VIZTrKfcXLNVhoiMWC1h7s/vdLvyYAIUu0JfPIAMupHpT08gjS9JdSy3o+VkkT6lDrDBbtzhHsiUab6YPcfRHs3SnheHLxeXdLW1tQ0ZTZoB5nx9Y/GkXAOMP9xbhcOQt+Ctlb6AFokzN/EUBuBpsc4z2F1ATaqUlWuh816bpcAy8QV00nfTUGwrx9lJbboCRm2tRT4G8g22TU2yBNb4Y3iuk3SR3AhMvb2Jxyy5BmwR2Qz0bw5sRm2sgGyV7g/klfpxECywuLM/PgD1+cZLmkACptxcRVL5ErDJovcICKz3x1XZBjT7HfqmtkWoV0ejMUehQPACYJWpHRh/dBCfnJvJ8wH//5NF/+8q/WU6GTqZAaXu0HQf8IxP5vqOWko9kagJVGZgZ3gB1spOYKtpK5CrNX0yhJ26GXewO1zUYoffiEdlMTDr/b1CF/wIvo5CYT4hjtdl2rvNfOiXKVwhKOpDXwO0tGqPMEgzcKbuV+AXUfvVe/MlXay4IRZg/ZlOFu8RCHTmyxOYfH3JUurvi/ZwU/9GH9isK3YGQN9aT1ObqUxxRMqiKpabEumsG1jPjAd3Am/EYHExWjwELNENbA+AfKOjaTJtNIUBwYmnR9O3bh4gS/LgD2CjOHizExojYIhmyvUFuFiTzOZN835/FcHkBs0hwxcLjOeL2xbh5cES4FGLXcBpivwPPK9cDEy+PIt+kwFmvLz+aCi2axJF30p39Pa6EXNttnZ0AcrIg+HzObDaYh+wTFOXrYH3lIeAewz3WXie8/OLJVKOOmUIe7Aa6P7XsPI0oE+5ozkc6A4DQyIyZDgBCq2uYV+PszPEMf3gjlCP7ha3ABNOj5+EgiARCQUA7buBr+/SBKfd34Fv7pDDG4GbDZLCE9c52rvPUX+0ZLoAYKPupKHQoJ7Y2tq6DnVgeyD6mnQFMP3hflgAaBbLXL11opPzLxbHdMOqL3rQu02xHLm+et/w71+YB3ZHNnLmIw4ejoAj4hpKVL0izU3ALhcSbOq2mPn6qgynvWL+82rT2VYSDoWrYvlHHnZfK+4PUt2QJoHClLiCjmvF8YrDC21+h1pk807oFevlbWO2N+OPDnuBwL12IivurooXfavdbdpB/fGHpZ4ojkTJ/Nyrqm+mCPRsYOzeVvx6jqrqi6H9D5QHE9/AEhoI3cAuBdb965snGsaXP3g/qE/2AE+JX7e0GxRWGEwIAIxGY5lStWstcMRy35DlatNkYRhKsAf9TvEtvOk0W359hBBngcha3Qbx7e5BM0XFhjJ4MFbO/0n8Sxa5ZLoAJqx6RItA7m3b2JHM5i3g4tiJFGoNxPewJk25KBO5KqfReYk+1tTPSMQYpFOySXkeHWWYlGdRs74hDVShmX8hPmVBnurjsL1pSxaUvzosHQcJ25bknEEeuljI8d8mzfdFOY7SnP86WQpifJCXVl+TOUwG1HWy4Gj+BxUSFBWOibqEEiWgotVp78T4EeU9NzpAOmJH9P6lriv3T+xHcUOm96j72vuFsitmf/6sPk7vjNfOU9RPFPnZWL26VX3dsyNOJ43PTzj1t30gRnS1Y+cdoT73WkVsirN66vkPU3G5frv6//j6mOyf1hAXiND/YlF0BxooSPWcOMCWNmm4C3A+d4eHvE61NegNSFFor9Teh6fBP4EaCunZRY1i5UNlRyj7t2s0kyWFq6gf/wqom85Yo0o/uGQhyKFfxNml72l0Fzqw/C2+DGF5kwsa53ZS2mRJqFV350CJP7Q16ns5Zrl2Xz+v/vq1IIufVcbpFyh3svgTZ6HFR4bIk9ndw0dumz1AFn9Bpxy+hgk=;" parent="1" vertex="1">
          <mxGeometry x="1170" y="78" width="28" height="28" as="geometry" />
        </mxCell>
        <mxCell id="_5o0ibSi2e8DYtXXYduX-37" value="&lt;span style=&quot;color: rgb(33, 33, 33); font-family: Inter, system-ui, -apple-system, BlinkMacSystemFont, &amp;quot;Segoe UI&amp;quot;, Roboto, Oxygen, Ubuntu, Cantarell, &amp;quot;Fira Sans&amp;quot;, &amp;quot;Droid Sans&amp;quot;, Helvetica, Arial, sans-serif; text-align: left; white-space-collapse: preserve; background-color: rgb(255, 255, 255);&quot;&gt;Token&lt;/span&gt;" style="rounded=1;whiteSpace=wrap;html=1;" parent="1" vertex="1">
          <mxGeometry x="1221.5" y="313" width="107" height="27.5" as="geometry" />
        </mxCell>
        <mxCell id="_5o0ibSi2e8DYtXXYduX-38" value="&lt;span style=&quot;color: rgb(33, 33, 33); font-family: Inter, system-ui, -apple-system, BlinkMacSystemFont, &amp;quot;Segoe UI&amp;quot;, Roboto, Oxygen, Ubuntu, Cantarell, &amp;quot;Fira Sans&amp;quot;, &amp;quot;Droid Sans&amp;quot;, Helvetica, Arial, sans-serif; text-align: left; white-space-collapse: preserve; background-color: rgb(255, 255, 255);&quot;&gt;Crear Tx&lt;/span&gt;" style="rounded=1;whiteSpace=wrap;html=1;" parent="1" vertex="1">
          <mxGeometry x="1221.5" y="354.75" width="107" height="27.5" as="geometry" />
        </mxCell>
        <mxCell id="_5o0ibSi2e8DYtXXYduX-39" value="&lt;span style=&quot;color: rgb(33, 33, 33); font-family: Inter, system-ui, -apple-system, BlinkMacSystemFont, &amp;quot;Segoe UI&amp;quot;, Roboto, Oxygen, Ubuntu, Cantarell, &amp;quot;Fira Sans&amp;quot;, &amp;quot;Droid Sans&amp;quot;, Helvetica, Arial, sans-serif; text-align: left; white-space-collapse: preserve; background-color: rgb(255, 255, 255);&quot;&gt;Consultar Tx&lt;/span&gt;" style="rounded=1;whiteSpace=wrap;html=1;" parent="1" vertex="1">
          <mxGeometry x="1226.5" y="403" width="103.5" height="27.5" as="geometry" />
        </mxCell>
        <mxCell id="_5o0ibSi2e8DYtXXYduX-40" value="&lt;span style=&quot;color: rgb(33, 33, 33); font-family: Inter, system-ui, -apple-system, BlinkMacSystemFont, &amp;quot;Segoe UI&amp;quot;, Roboto, Oxygen, Ubuntu, Cantarell, &amp;quot;Fira Sans&amp;quot;, &amp;quot;Droid Sans&amp;quot;, Helvetica, Arial, sans-serif; text-align: left; white-space-collapse: preserve; background-color: rgb(255, 255, 255);&quot;&gt;Crear Tx&lt;/span&gt;" style="rounded=1;whiteSpace=wrap;html=1;" parent="1" vertex="1">
          <mxGeometry x="1219.5" y="129.25" width="110.5" height="27.5" as="geometry" />
        </mxCell>
        <mxCell id="_5o0ibSi2e8DYtXXYduX-41" value="&lt;span style=&quot;color: rgb(33, 33, 33); font-family: Inter, system-ui, -apple-system, BlinkMacSystemFont, &amp;quot;Segoe UI&amp;quot;, Roboto, Oxygen, Ubuntu, Cantarell, &amp;quot;Fira Sans&amp;quot;, &amp;quot;Droid Sans&amp;quot;, Helvetica, Arial, sans-serif; text-align: left; white-space-collapse: preserve; background-color: rgb(255, 255, 255);&quot;&gt;Consultar Tx&lt;/span&gt;" style="rounded=1;whiteSpace=wrap;html=1;" parent="1" vertex="1">
          <mxGeometry x="1220.5" y="174.25" width="107" height="27.5" as="geometry" />
        </mxCell>
        <mxCell id="_5o0ibSi2e8DYtXXYduX-47" value="" style="shape=image;verticalLabelPosition=bottom;labelBackgroundColor=default;verticalAlign=top;aspect=fixed;imageAspect=0;image=https://cdn0.iconfinder.com/data/icons/font-awesome-brands-vol-1/640/aws-64.png;" parent="1" vertex="1">
          <mxGeometry x="420" y="100" width="32" height="32" as="geometry" />
        </mxCell>
        <mxCell id="_5o0ibSi2e8DYtXXYduX-48" value="Reservar Puntos" style="rounded=1;whiteSpace=wrap;html=1;" parent="1" vertex="1">
          <mxGeometry x="-280" y="259.5" width="100" height="40.5" as="geometry" />
        </mxCell>
        <mxCell id="_5o0ibSi2e8DYtXXYduX-49" value="Confirmar Puntos" style="rounded=1;whiteSpace=wrap;html=1;" parent="1" vertex="1">
          <mxGeometry x="-280" y="315.5" width="100" height="40.5" as="geometry" />
        </mxCell>
        <mxCell id="_5o0ibSi2e8DYtXXYduX-50" value="Devolver Puntos" style="rounded=1;whiteSpace=wrap;html=1;" parent="1" vertex="1">
          <mxGeometry x="-280" y="379.5" width="100" height="40.5" as="geometry" />
        </mxCell>
        <mxCell id="_5o0ibSi2e8DYtXXYduX-52" value="" style="shape=image;verticalLabelPosition=bottom;labelBackgroundColor=default;verticalAlign=top;aspect=fixed;imageAspect=0;image=https://cdn0.iconfinder.com/data/icons/font-awesome-brands-vol-1/640/aws-64.png;" parent="1" vertex="1">
          <mxGeometry x="-259.83000000000004" y="590" width="32" height="32" as="geometry" />
        </mxCell>
        <mxCell id="_5o0ibSi2e8DYtXXYduX-62" style="edgeStyle=orthogonalEdgeStyle;rounded=0;orthogonalLoop=1;jettySize=auto;html=1;entryX=0;entryY=0.75;entryDx=0;entryDy=0;" parent="1" source="_5o0ibSi2e8DYtXXYduX-53" target="_5o0ibSi2e8DYtXXYduX-15" edge="1">
          <mxGeometry relative="1" as="geometry">
            <Array as="points">
              <mxPoint x="-5" y="570" />
              <mxPoint x="300" y="570" />
              <mxPoint x="300" y="260" />
            </Array>
          </mxGeometry>
        </mxCell>
        <mxCell id="_5o0ibSi2e8DYtXXYduX-63" value="GET /Payments" style="edgeLabel;html=1;align=center;verticalAlign=middle;resizable=0;points=[];" parent="_5o0ibSi2e8DYtXXYduX-62" vertex="1" connectable="0">
          <mxGeometry x="-0.2957" y="-4" relative="1" as="geometry">
            <mxPoint x="12" y="-14" as="offset" />
          </mxGeometry>
        </mxCell>
        <mxCell id="MvGa4ZtVWc14RxAt6pgf-6" style="edgeStyle=orthogonalEdgeStyle;rounded=0;orthogonalLoop=1;jettySize=auto;html=1;entryX=0;entryY=0.5;entryDx=0;entryDy=0;" edge="1" parent="1" source="_5o0ibSi2e8DYtXXYduX-53" target="_5o0ibSi2e8DYtXXYduX-26">
          <mxGeometry relative="1" as="geometry">
            <Array as="points">
              <mxPoint x="390" y="760" />
              <mxPoint x="390" y="584" />
            </Array>
          </mxGeometry>
        </mxCell>
        <mxCell id="MvUoBmO1SIilYgAonX3K-2" style="edgeStyle=orthogonalEdgeStyle;rounded=0;orthogonalLoop=1;jettySize=auto;html=1;targetPerimeterSpacing=20;" edge="1" parent="1" source="_5o0ibSi2e8DYtXXYduX-53" target="_5o0ibSi2e8DYtXXYduX-15">
          <mxGeometry relative="1" as="geometry">
            <Array as="points">
              <mxPoint x="330" y="750" />
              <mxPoint x="330" y="380" />
              <mxPoint x="450" y="380" />
            </Array>
          </mxGeometry>
        </mxCell>
        <mxCell id="_5o0ibSi2e8DYtXXYduX-53" value="Sonda Pagos API" style="shape=image;verticalLabelPosition=bottom;labelBackgroundColor=none;verticalAlign=top;aspect=fixed;imageAspect=0;image=https://icon.icepanel.io/AWS/svg/Containers/Fargate.svg;" parent="1" vertex="1">
          <mxGeometry x="-25.33000000000004" y="730" width="40" height="40" as="geometry" />
        </mxCell>
        <mxCell id="_5o0ibSi2e8DYtXXYduX-59" style="edgeStyle=orthogonalEdgeStyle;rounded=0;orthogonalLoop=1;jettySize=auto;html=1;sourcePerimeterSpacing=20;exitX=0;exitY=0.5;exitDx=0;exitDy=0;" parent="1" source="_5o0ibSi2e8DYtXXYduX-54" target="_5o0ibSi2e8DYtXXYduX-53" edge="1">
          <mxGeometry relative="1" as="geometry">
            <Array as="points" />
          </mxGeometry>
        </mxCell>
        <mxCell id="_5o0ibSi2e8DYtXXYduX-54" value="SQS" style="shape=image;verticalLabelPosition=bottom;labelBackgroundColor=none;verticalAlign=top;aspect=fixed;imageAspect=0;editableCssRules=.*;image=data:image/svg+xml,PHN2ZyB4bWxuczp4bGluaz0iaHR0cDovL3d3dy53My5vcmcvMTk5OS94bGluayIgeG1sbnM9Imh0dHA6Ly93d3cudzMub3JnLzIwMDAvc3ZnIiB2ZXJzaW9uPSIxLjEiIHZpZXdCb3g9Ii0wLjUgLTAuNSA4MSA4MSIgaGVpZ2h0PSI4MSIgd2lkdGg9IjgxIj4mI3hhOyAgICAmI3hhOyAgICA8dGl0bGU+SWNvbi1BcmNoaXRlY3R1cmUvNjQvQXJjaF9BV1MtU2ltcGxlLVF1ZXVlLVNlcnZpY2VfNjQ8L3RpdGxlPiYjeGE7ICAgIDxkZXNjPkNyZWF0ZWQgd2l0aCBTa2V0Y2guPC9kZXNjPiYjeGE7ICAgIDxkZWZzPiYjeGE7ICAgICAgICA8bGluZWFyR3JhZGllbnQgaWQ9ImxpbmVhckdyYWRpZW50LTEiIHkyPSIwJSIgeDI9IjEwMCUiIHkxPSIxMDAlIiB4MT0iMCUiPiYjeGE7ICAgICAgICAgICAgPHN0b3Agb2Zmc2V0PSIwJSIgc3RvcC1jb2xvcj0iI0IwMDg0RCIvPiYjeGE7ICAgICAgICAgICAgPHN0b3Agb2Zmc2V0PSIxMDAlIiBzdG9wLWNvbG9yPSIjRkY0RjhCIi8+JiN4YTsgICAgICAgIDwvbGluZWFyR3JhZGllbnQ+JiN4YTsgICAgPC9kZWZzPiYjeGE7ICAgIDxnIGZpbGwtcnVsZT0iZXZlbm9kZCIgZmlsbD0ibm9uZSIgc3Ryb2tlLXdpZHRoPSIxIiBzdHJva2U9Im5vbmUiIGlkPSJJY29uLUFyY2hpdGVjdHVyZS82NC9BcmNoX0FXUy1TaW1wbGUtUXVldWUtU2VydmljZV82NCI+JiN4YTsgICAgICAgIDxnIGZpbGw9InVybCgjbGluZWFyR3JhZGllbnQtMSkiIGlkPSJJY29uLUFyY2hpdGVjdHVyZS1CRy82NC9BcHBsaWNhdGlvbi1JbnRlZ3JhdGlvbiI+JiN4YTsgICAgICAgICAgICA8cmVjdCBoZWlnaHQ9IjgwIiB3aWR0aD0iODAiIHk9IjAiIHg9IjAiIGlkPSJSZWN0YW5nbGUiLz4mI3hhOyAgICAgICAgPC9nPiYjeGE7ICAgICAgICA8cGF0aCBmaWxsPSIjRkZGRkZGIiBpZD0iQVdTLVNpbXBsZS1RdWV1ZS1TZXJ2aWNlX0ljb25fNjRfU3F1aWQiIGQ9Ik0yOC43MTY5OTY2LDQzLjY4NzY3NTYgTDMxLjcxODkyNjUsNDAuNzIxODI2IEMzMS45MDcwNDc0LDQwLjUzNTkwMTEgMzIuMDEzMTE1Niw0MC4yODMzNjE0IDMyLjAxNDEyMzMsNDAuMDE5ODg1IEMzMi4wMTUxMTY5LDM5Ljc1NjQwODYgMzEuOTEwMDQ5MywzOS41MDI4NzQ3IDMxLjcyMjkyOSwzOS4zMTU5NTU2IEwyOC43MjA5OTkyLDM2LjMxNjMwMTQgTDI3LjMwMjA4NzEsMzcuNzE4MTk0OCBMMjguNTg5OTE0OSwzOS4wMDU3NDk0IEwyNC4wMDg5NzAxLDM5LjAwNTc0OTQgTDI0LjAwODk3MDEsNDAuOTk0MjUwNiBMMjguNjA1OTI1Miw0MC45OTQyNTA2IEwyNy4zMDYwODk2LDQyLjI3NzgyODIgTDI4LjcxNjk5NjYsNDMuNjg3Njc1NiBaIE01MS42Mjc3MjUsNDMuNzc4MTUyNCBMNTUuNjMwMjk4LDQwLjc5MzQxMiBDNTUuODgwNDU4OSw0MC42MDU0OTg2IDU2LjAyOTU1NDcsNDAuMzExMjAwNCA1Ni4wMjk1NTQ3LDM5Ljk5OTAwNTcgQzU2LjAyOTU1NDcsMzkuNjg1ODE2OCA1NS44ODA0NTg5LDM5LjM5MDUyNDQgNTUuNjI5Mjk3NCwzOS4yMDI2MTEgTDUxLjYyNjcyNDMsMzYuMjIxODQ3NiBMNTAuNDI1OTUyNCwzNy44MTI2NDg2IEw1Mi4wMjY5ODE2LDM5LjAwNTc0OTQgTDQ4LjAyNDQwODUsMzkuMDA1NzQ5NCBMNDguMDI0NDA4NSw0MC45OTQyNTA2IEw1Mi4wMjU5ODEsNDAuOTk0MjUwNiBMNTAuNDI0OTUxOCw0Mi4xODczNTE0IEw1MS42Mjc3MjUsNDMuNzc4MTUyNCBaIE0zNS4yMDgxNjk1LDQwIEMzNS4yMDgxNjk1LDQyLjExMDc5NDEgMzQuODQyOTM0Nyw0NC4xMDEyODM5IDM0LjE2MDQ5Niw0NS44MzMyNjg1IEMzNS45NjA2NTMzLDQ1LjE0MTI3IDM3Ljk5MDk1ODUsNDQuNzk1MjcwOCA0MC4wMTkyNjI0LDQ0Ljc5NTI3MDggQzQyLjA0NzU2NjMsNDQuNzk1MjcwOCA0NC4wNzc4NzE1LDQ1LjE0MTI3IDQ1Ljg3NzAyODEsNDUuODMzMjY4NSBDNDUuMTk1NTksNDQuMTAxMjgzOSA0NC44MzAzNTUyLDQyLjExMDc5NDEgNDQuODMwMzU1Miw0MCBDNDQuODMwMzU1MiwzNy44ODkyMDU5IDQ1LjE5NTU5LDM1Ljg5OTcxMDQgNDUuODc3MDI4MSwzNC4xNjY3MzE1IEM0Mi4yNzc3MTQyLDM1LjU0OTczNDEgMzcuNzYwODEwNSwzNS41NDk3MzQxIDM0LjE2MDQ5NiwzNC4xNjY3MzE1IEMzNC44NDI5MzQ3LDM1Ljg5OTcxMDQgMzUuMjA4MTY5NSwzNy44ODkyMDU5IDM1LjIwODE2OTUsNDAgTDM1LjIwODE2OTUsNDAgWiBNMzAuMzA2MDE4Miw0OS42NTExOTA5IEMzMC4xMTA4OTI3LDQ5LjQ1NzMxMjEgMzAuMDEyODI5Nyw0OS4yMDI3ODM5IDMwLjAxMjgyOTcsNDguOTQ4MjU1NyBDMzAuMDEyODI5Nyw0OC42OTM3Mjc2IDMwLjExMDg5MjcsNDguNDM5MTk5NCAzMC4zMDYwMTgyLDQ4LjI0NTMyMDUgQzMyLjEyMjE4NTcsNDYuNDQwNzU1NiAzMy4yMDY4ODMsNDMuMzU3NTg0NCAzMy4yMDY4ODMsNDAgQzMzLjIwNjg4MywzNi42NDI0MTU2IDMyLjEyMjE4NTcsMzMuNTU5MjQ0NCAzMC4zMDYwMTgyLDMxLjc1NDY3OTUgQzMwLjExMDg5MjcsMzEuNTYwODAwNiAzMC4wMTI4Mjk3LDMxLjMwNjI3MjQgMzAuMDEyODI5NywzMS4wNTE3NDQzIEMzMC4wMTI4Mjk3LDMwLjc5NzIxNjEgMzAuMTEwODkyNywzMC41NDI2ODc5IDMwLjMwNjAxODIsMzAuMzQ4ODA5MSBDMzAuNjk3MjY5NywyOS45NjAwNTcxIDMxLjMyOTY3NjIsMjkuOTYwMDU3MSAzMS43MjA5Mjc3LDMwLjM0ODgwOTEgQzM1LjU5ODQyMDQsMzQuMjAxNTMwMyA0NC40NDAxMDQ0LDM0LjIwMTUzMDMgNDguMzE3NTk3LDMwLjM0ODgwOTEgQzQ4LjcwODg0ODUsMjkuOTYwMDU3MSA0OS4zNDEyNTUxLDI5Ljk2MDA1NzEgNDkuNzMyNTA2NiwzMC4zNDg4MDkxIEM0OS45Mjc2MzIsMzAuNTQyNjg3OSA1MC4wMjU2OTUxLDMwLjc5NzIxNjEgNTAuMDI1Njk1MSwzMS4wNTE3NDQzIEM1MC4wMjU2OTUxLDMxLjMwNjI3MjQgNDkuOTI3NjMyLDMxLjU2MDgwMDYgNDkuNzMyNTA2NiwzMS43NTQ2Nzk1IEM0Ny45MTYzMzkxLDMzLjU1OTI0NDQgNDYuODMxNjQxOCwzNi42NDI0MTU2IDQ2LjgzMTY0MTgsNDAgQzQ2LjgzMTY0MTgsNDMuMzU3NTg0NCA0Ny45MTYzMzkxLDQ2LjQ0MDc1NTYgNDkuNzMyNTA2Niw0OC4yNDUzMjA1IEM0OS45Mjc2MzIsNDguNDM5MTk5NCA1MC4wMjU2OTUxLDQ4LjY5MzcyNzYgNTAuMDI1Njk1MSw0OC45NDgyNTU3IEM1MC4wMjU2OTUxLDQ5LjIwMjc4MzkgNDkuOTI3NjMyLDQ5LjQ1NzMxMjEgNDkuNzMyNTA2Niw0OS42NTExOTA5IEM0OS41MzczODEyLDQ5Ljg0NTA2OTggNDkuMjgxMjE2NSw0OS45NDI1MDY0IDQ5LjAyNTA1MTgsNDkuOTQyNTA2NCBDNDguNzY4ODg3MSw0OS45NDI1MDY0IDQ4LjUxMjcyMjUsNDkuODQ1MDY5OCA0OC4zMTc1OTcsNDkuNjUxMTkwOSBDNDQuNDQwMTA0NCw0NS43OTg0Njk3IDM1LjU5ODQyMDQsNDUuNzk4NDY5NyAzMS43MjA5Mjc3LDQ5LjY1MTE5MDkgQzMxLjMyOTY3NjIsNTAuMDM5OTQyOSAzMC42OTcyNjk3LDUwLjAzOTk0MjkgMzAuMzA2MDE4Miw0OS42NTExOTA5IEwzMC4zMDYwMTgyLDQ5LjY1MTE5MDkgWiBNNjYuMDAwOTY0OSw0MC4wMDQ5NzEzIEM2Ni4wMDA5NjQ5LDM5LjA3ODMyOTcgNjUuNjM3NzMxNCwzOC4yMDczNjYxIDY0Ljk3ODMwNzUsMzcuNTUyMTU0OSBDNjQuMjk3ODcwMSwzNi44NzUwNzAyIDYzLjQwMzI5NSwzNi41MzgwMTkzIDYyLjUwOTcyMDUsMzYuNTM4MDE5MyBDNjEuNjE2MTQ2MSwzNi41MzgwMTkzIDYwLjcyMTU3MSwzNi44NzUwNzAyIDYwLjA0MTEzMzYsMzcuNTUyMTU0OSBDNTguNjc5MjU4MSwzOC45MDQzMzU4IDU4LjY3OTI1ODEsNDEuMTA0NjEyNSA2MC4wNDExMzM2LDQyLjQ1Nzc4NzYgQzYxLjQwMjAwODQsNDMuODA5OTY4NCA2My42MTU0MzEzLDQzLjgxMDk2MjcgNjQuOTc4MzA3NSw0Mi40NTc3ODc2IEM2NS42Mzc3MzE0LDQxLjgwMjU3NjQgNjYuMDAwOTY0OSw0MC45MzE2MTI4IDY2LjAwMDk2NDksNDAuMDA0OTcxMyBMNjYuMDAwOTY0OSw0MC4wMDQ5NzEzIFogTTY2LjM5MzIxNzEsNDMuODYzNjU4IEM2NS4zMjI1Mjg4LDQ0LjkyNzUwNjIgNjMuOTE2NjI1LDQ1LjQ1OTQzMDMgNjIuNTA5NzIwNSw0NS40NTk0MzAzIEM2MS4xMDI4MTYxLDQ1LjQ1OTQzMDMgNTkuNjk2OTEyMyw0NC45Mjc1MDYyIDU4LjYyNjIyNCw0My44NjM2NTggQzU2LjQ4Mzg0NjgsNDEuNzM1OTYxNiA1Ni40ODM4NDY4LDM4LjI3Mzk4MDkgNTguNjI2MjI0LDM2LjE0NjI4NDUgQzYwLjc2ODYwMTIsMzQuMDE2NTk5NyA2NC4yNTI4NDExLDM0LjAxODU4ODIgNjYuMzkzMjE3MSwzNi4xNDYyODQ1IEM2OC41MzU1OTQzLDM4LjI3Mzk4MDkgNjguNTM1NTk0Myw0MS43MzU5NjE2IDY2LjM5MzIxNzEsNDMuODYzNjU4IEw2Ni4zOTMyMTcxLDQzLjg2MzY1OCBaIE0yMC45ODAwMjI5LDQwLjAyNzgzOSBDMjAuOTgwMDIyOSwzOS4xMDExOTc0IDIwLjYxNjc4OTQsMzguMjMwMjMzOSAxOS45NTczNjU0LDM3LjU3NTAyMjcgQzE5LjI5Nzk0MTUsMzYuOTE5ODExNSAxOC40MjEzNzgsMzYuNTU4ODk4NSAxNy40ODg3Nzg1LDM2LjU1ODg5ODUgQzE2LjU1NzE3OTYsMzYuNTU4ODk4NSAxNS42ODA2MTYxLDM2LjkxOTgxMTUgMTUuMDIwMTkxNiwzNy41NzUwMjI3IEMxNC4zNjA3Njc2LDM4LjIzMDIzMzkgMTMuOTk4NTM0OCwzOS4xMDExOTc0IDEzLjk5ODUzNDgsNDAuMDI3ODM5IEMxMy45OTg1MzQ4LDQwLjk1MzQ4NjQgMTQuMzYwNzY3Niw0MS44MjQ0NDk5IDE1LjAyMDE5MTYsNDIuNDgwNjU1MyBDMTYuMzQwMDQsNDMuNzkwMDgzNCAxOC42Mzg1MTc2LDQzLjc5MDA4MzQgMTkuOTU3MzY1NCw0Mi40ODA2NTUzIEMyMC42MTY3ODk0LDQxLjgyNDQ0OTkgMjAuOTgwMDIyOSw0MC45NTM0ODY0IDIwLjk4MDAyMjksNDAuMDI3ODM5IEwyMC45ODAwMjI5LDQwLjAyNzgzOSBaIE0yMS4zNzIyNzUsNDMuODg2NTI1NyBDMjAuMzAxNTg2Nyw0NC45NTAzNzM5IDE4Ljg5NTY4MjksNDUuNDgyMjk4IDE3LjQ4ODc3ODUsNDUuNDgyMjk4IEMxNi4wODI4NzQ3LDQ1LjQ4MjI5OCAxNC42NzY5NzA5LDQ0Ljk1MDM3MzkgMTMuNjA1MjgyLDQzLjg4NjUyNTcgQzExLjQ2NDkwNiw0MS43NTg4Mjk0IDExLjQ2NDkwNiwzOC4yOTY4NDg3IDEzLjYwNTI4MiwzNi4xNjkxNTIzIEMxNS43NDc2NTkyLDM0LjA0MTQ1NTkgMTkuMjMwODk4NCwzNC4wNDE0NTU5IDIxLjM3MjI3NSwzNi4xNjkxNTIzIEMyMy41MTM2NTE2LDM4LjI5Njg0ODcgMjMuNTEzNjUxNiw0MS43NTg4Mjk0IDIxLjM3MjI3NSw0My44ODY1MjU3IEwyMS4zNzIyNzUsNDMuODg2NTI1NyBaIE01NC44OTU4MjU5LDU0Ljg1NjA5MyBDNTAuOTAxMjU4LDU4LjgyNjEzNTggNDUuNTg4ODQyOCw2MS4wMTE0OTg3IDM5LjkzOTIxMDksNjEuMDExNDk4NyBDMzQuMjg3NTc3Nyw2MS4wMTE0OTg3IDI4Ljk3NjE2MzIsNTguODI2MTM1OCAyNC45ODE1OTUzLDU0Ljg1NjA5MyBDMjIuMjQxODM0LDUyLjEzNDgyOSAyMC43MzM4NjQ2LDQ4Ljg4MjYzNTIgMTkuOTUxMzYxNiw0Ni42MzQ2MzQ1IEwxOC4wNjAxNDU4LDQ3LjI4NDg3NDQgQzE4LjkxMTY5MzIsNDkuNzMwNzMxIDIwLjU1Nzc1MTQsNTMuMjczMjQ2IDIzLjU2NjY4NTcsNTYuMjYxOTYzNCBDMjcuOTM5NDk2OCw2MC42MDc4MzMgMzMuNzUzMjM0Miw2MyAzOS45MzkyMTA5LDYzIEM0Ni4xMjQxODcsNjMgNTEuOTM3OTI0NCw2MC42MDc4MzMgNTYuMzEwNzM1NSw1Ni4yNjE5NjM0IEM1OC44MzczNTk3LDUzLjc1MzQ2OTEgNjAuODQ5NjUzMyw1MC41NjM5MTMgNjEuOTc5Mzc5Niw0Ny4yODE4OTE3IEw2MC4wODYxNjI1LDQ2LjYzNzYxNzMgQzU5LjA1MzQ5ODcsNDkuNjM4MjY1NyA1Ny4yMTAzMTM4LDUyLjU1NzM4NTYgNTQuODk1ODI1OSw1NC44NTYwOTMgTDU0Ljg5NTgyNTksNTQuODU2MDkzIFogTTE5Ljk1MDM2MDksMzMuMzY2MzU5NyBMMTguMDYxMTQ2NSwzMi43MTQxMzEzIEMxOS4yNzE5MjQ4LDI5LjI1MDE2MjEgMjEuMjI5MTgzLDI2LjA2MDYwNjEgMjMuNTcyNjg5NiwyMy43MzMwNjUzIEMyNy45NDM0OTk0LDE5LjM5MTE3MjggMzMuNzU1MjM1NSwxNyAzOS45MzkyMTA5LDE3IEM0Ni4xMjMxODYzLDE3IDUxLjkzNDkyMjUsMTkuMzkxMTcyOCA1Ni4zMDQ3MzE2LDIzLjczMzA2NTMgQzU4Ljc3MTMxNzMsMjYuMTgzODkzMSA2MC44Mzk2NDY5LDI5LjQ1Njk2NjIgNjEuOTc3Mzc4MywzMi43MTQxMzEzIEw2MC4wODgxNjM4LDMzLjM2NjM1OTcgQzU5LjA0NDQ5MjksMzAuMzgzNjA3OCA1Ny4xNTAyNzUyLDI3LjM4NDk0NzkgNTQuODg5ODIyLDI1LjEzODkzNTcgQzUwLjg5ODI1NiwyMS4xNzE4NzU3IDQ1LjU4Nzg0MjIsMTguOTg4NTAxMyAzOS45MzkyMTA5LDE4Ljk4ODUwMTMgQzM0LjI4OTU3OSwxOC45ODg1MDEzIDI4Ljk4MDE2NTgsMjEuMTcxODc1NyAyNC45ODc1OTkyLDI1LjEzODkzNTcgQzIyLjg1NDIyNzcsMjcuMjU5NjcyMyAyMS4wNjUwNzc1LDMwLjE4MTc3NSAxOS45NTAzNjA5LDMzLjM2NjM1OTcgTDE5Ljk1MDM2MDksMzMuMzY2MzU5NyBaIi8+JiN4YTsgICAgPC9nPiYjeGE7PC9zdmc+;" parent="1" vertex="1">
          <mxGeometry x="139.99999999999994" y="850" width="51" height="51" as="geometry" />
        </mxCell>
        <mxCell id="MvUoBmO1SIilYgAonX3K-8" style="edgeStyle=orthogonalEdgeStyle;rounded=0;orthogonalLoop=1;jettySize=auto;html=1;" edge="1" parent="1" source="MvGa4ZtVWc14RxAt6pgf-4" target="MvUoBmO1SIilYgAonX3K-7">
          <mxGeometry relative="1" as="geometry">
            <Array as="points">
              <mxPoint x="150" y="460" />
            </Array>
          </mxGeometry>
        </mxCell>
        <mxCell id="MvUoBmO1SIilYgAonX3K-9" style="edgeStyle=orthogonalEdgeStyle;rounded=0;orthogonalLoop=1;jettySize=auto;html=1;entryX=0.5;entryY=1;entryDx=0;entryDy=0;" edge="1" parent="1" source="MvGa4ZtVWc14RxAt6pgf-4" target="_5o0ibSi2e8DYtXXYduX-4">
          <mxGeometry relative="1" as="geometry" />
        </mxCell>
        <mxCell id="MvUoBmO1SIilYgAonX3K-11" style="edgeStyle=orthogonalEdgeStyle;rounded=0;orthogonalLoop=1;jettySize=auto;html=1;sourcePerimeterSpacing=20;" edge="1" parent="1" source="MvGa4ZtVWc14RxAt6pgf-4" target="MvUoBmO1SIilYgAonX3K-10">
          <mxGeometry relative="1" as="geometry">
            <Array as="points">
              <mxPoint x="490" y="520" />
              <mxPoint x="-460" y="520" />
            </Array>
          </mxGeometry>
        </mxCell>
        <mxCell id="MvGa4ZtVWc14RxAt6pgf-4" value="MsNotificacion" style="shape=image;verticalLabelPosition=bottom;labelBackgroundColor=none;verticalAlign=top;aspect=fixed;imageAspect=0;editableCssRules=.*;image=data:image/svg+xml,PHN2ZyB4bWxuczp4bGluaz0iaHR0cDovL3d3dy53My5vcmcvMTk5OS94bGluayIgeG1sbnM9Imh0dHA6Ly93d3cudzMub3JnLzIwMDAvc3ZnIiB2ZXJzaW9uPSIxLjEiIHZpZXdCb3g9Ii0wLjUgLTAuNSA4MSA4MSIgaGVpZ2h0PSI4MSIgd2lkdGg9IjgxIj4mI3hhOyAgICA8dGl0bGU+SWNvbi1BcmNoaXRlY3R1cmUvNjQvQXJjaF9BbWF6b24tRUtTLUNsb3VkXzY0PC90aXRsZT4mI3hhOyAgICA8ZGVmcz4mI3hhOyAgICAgICAgPGxpbmVhckdyYWRpZW50IGlkPSJsaW5lYXJHcmFkaWVudC0xIiB5Mj0iMCUiIHgyPSIxMDAlIiB5MT0iMTAwJSIgeDE9IjAlIj4mI3hhOyAgICAgICAgICAgIDxzdG9wIG9mZnNldD0iMCUiIHN0b3AtY29sb3I9IiNDODUxMUIiLz4mI3hhOyAgICAgICAgICAgIDxzdG9wIG9mZnNldD0iMTAwJSIgc3RvcC1jb2xvcj0iI0ZGOTkwMCIvPiYjeGE7ICAgICAgICA8L2xpbmVhckdyYWRpZW50PiYjeGE7ICAgIDwvZGVmcz4mI3hhOyAgICA8ZyBmaWxsLXJ1bGU9ImV2ZW5vZGQiIGZpbGw9Im5vbmUiIHN0cm9rZS13aWR0aD0iMSIgc3Ryb2tlPSJub25lIiBpZD0iSWNvbi1BcmNoaXRlY3R1cmUvNjQvQXJjaF9BbWF6b24tRUtTLUNsb3VkXzY0Ij4mI3hhOyAgICAgICAgPGcgZmlsbD0idXJsKCNsaW5lYXJHcmFkaWVudC0xKSIgaWQ9IlJlY3RhbmdsZSI+JiN4YTsgICAgICAgICAgICA8cmVjdCBoZWlnaHQ9IjgwIiB3aWR0aD0iODAiIHk9IjAiIHg9IjAiLz4mI3hhOyAgICAgICAgPC9nPiYjeGE7ICAgICAgICA8ZyBmaWxsPSIjRkZGRkZGIiB0cmFuc2Zvcm09InRyYW5zbGF0ZSg4LjAwMDAwMCwgOC4wMDAwMDApIiBpZD0iSWNvbi1TZXJ2aWNlLzY0L0FtYXpvbi1FS1MtQ2xvdWRfNjQiPiYjeGE7ICAgICAgICAgICAgPHBhdGggaWQ9IkZpbGwtMSIgZD0iTTUzLjIzOSw1My4zNzcwMjYgTDMxLjczNyw1My4zNTUwMjYgQzI5LjEzMyw1My4zNTIwMjYgMjYuOTA2LDUxLjQxNjAyNiAyNi42NjcsNDguOTQ5MDI2IEMyNi42NDcsNDguNzQzMDI2IDI2LjYzNiw0OC41MjgwMjYgMjYuNjM2LDQ4LjMwNTAyNiBDMjYuNjM2LDQ0LjkyOTAyNiAyOC45NjgsNDMuNzk4MDI2IDMwLjM5MSw0My40MjIwMjYgQzMwLjg0OSw0My4zMjgwMjYgMzEuMTg5LDQyLjkyMjAyNiAzMS4xODksNDIuNDQxMDI2IEMzMS4xODksNDIuMzk0MDI2IDMxLjE4Niw0Mi4zNDcwMjYgMzEuMTc5LDQyLjMwMDAyNiBDMzEuMTQ1LDQyLjAwNDAyNiAzMS4xMjgsNDEuNzAyMDI2IDMxLjEyOCw0MS4zOTYwMjYgQzMxLjEyOCwzOC42MTMwMjYgMzMuMDQ2LDM1LjYyMTAyNiAzNS40OTQsMzQuNTg0MDI2IEMzOS43NDUsMzIuNzg2MDI2IDQyLjc1NCwzNS4xNTEwMjYgNDMuODUyLDM2LjI1MzAyNiBDNDQuNzUxLDM3LjE1NDAyNiA0NS40NTMsMzguMzA5MDI2IDQ1LjkzOCwzOS42ODQwMjYgQzQ2LjA2Miw0MC4wMzMwMjYgNDYuMzY4LDQwLjI4NjAyNiA0Ni43MzQsNDAuMzQwMDI2IEM0Ny4wOTcsNDAuMzk0MDI2IDQ3LjQ2Nyw0MC4yNDMwMjYgNDcuNjg2LDM5Ljk0NTAyNiBDNDguMzIyLDM5LjA4NTAyNiA0OS4zNTIsMzguNzA4MDI2IDUwLjMwNywzOC45ODgwMjYgQzUxLjQ3NywzOS4zMzAwMjYgNTIuMjUzLDQwLjU0MTAyNiA1Mi4zOTMsNDIuMjM4MDI2IEM1Mi4zNDIsNDIuNzU2MDI2IDUyLjcsNDMuMjMxMDI2IDUzLjIxOCw0My4zMjAwMjYgQzU0LjU4Nyw0My41NTYwMjYgNTcuNzY5LDQ0LjUxNzAyNiA1Ny43NjksNDguMzU2MDI2IEM1Ny43NjksNTIuODM5MDI2IDUzLjYyNiw1My4zMzgwMjYgNTMuMjM5LDUzLjM3NzAyNiBMNTMuMjM5LDUzLjM3NzAyNiBaIE0yOS40NDQsNTcuODYyMDI2IEw2LDQ1LjM5ODAyNiBMNiwxOC41NzAwMjYgTDI2LDYuNzUyMDI2MDQgTDI2LDE2LjQ1MTAyNiBMMTUuNDYzLDIzLjE1NjAyNiBDMTUuMTc1LDIzLjMzOTAyNiAxNSwyMy42NTgwMjYgMTUsMjQuMDAwMDI2IEwxNSw0MC4wMDAwMjYgQzE1LDQwLjM3MzAyNiAxNS4yMDgsNDAuNzE0MDI2IDE1LjUzOCw0MC44ODcwMjYgTDI0LjkwMSw0NS43NTgwMjYgTDI1LjA0LDQ1LjgzNTAyNiBDMjQuNzg0LDQ2LjU5MjAyNiAyNC42MzYsNDcuNDE1MDI2IDI0LjYzNiw0OC4zMDUwMjYgQzI0LjYzNiw0OC41OTQwMjYgMjQuNjUxLDQ4Ljg3MjAyNiAyNC42NzcsNDkuMTQwMDI2IEMyNS4wMTIsNTIuNjIxMDI2IDI4LjExMyw1NS4zNTEwMjYgMzEuNzM1LDU1LjM1NTAyNiBMMzMuOTgyLDU1LjM1NjAyNiBMMjkuNDQ0LDU3Ljg2MjAyNiBaIE00NC41MDQsMjMuMTM2MDI2IEwzMywxNi40MjUwMjYgTDMzLDYuNzUyMDI2MDQgTDUzLDE4LjU3MDAyNiBMNTMsMzguNDY3MDI2IEM1Mi40MzEsMzcuODAzMDI2IDUxLjcxNiwzNy4zMTYwMjYgNTAuODY4LDM3LjA2ODAyNiBDNDkuNjE2LDM2LjcwMzAyNiA0OC4zMDgsMzYuOTI2MDI2IDQ3LjI0NSwzNy42MzcwMjYgQzQ2LjcxOCwzNi41NjcwMjYgNDYuMDU2LDM1LjYzMTAyNiA0NS4yNjgsMzQuODQxMDI2IEM0NS4xODIsMzQuNzU1MDI2IDQ1LjA4OCwzNC42ODkwMjYgNDUsMzQuNjA2MDI2IEw0NSwyNC4wMDAwMjYgQzQ1LDIzLjY0NDAyNiA0NC44MTEsMjMuMzE1MDI2IDQ0LjUwNCwyMy4xMzYwMjYgTDQ0LjUwNCwyMy4xMzYwMjYgWiBNNTUsNDEuNzI2MDI2IEw1NSwxOC4wMDAwMjYgQzU1LDE3LjY0NjAyNiA1NC44MTMsMTcuMzE4MDI2IDU0LjUwOSwxNy4xMzkwMjYgTDMyLjUwOSw0LjEzOTAyNjA0IEMzMi4xOTksMy45NTYwMjYwNCAzMS44MTcsMy45NTQwMjYwNCAzMS41MDQsNC4xMzEwMjYwNCBDMzEuMTkyLDQuMzA5MDI2MDQgMzEsNC42NDEwMjYwNCAzMSw1LjAwMDAyNjA0IEwzMSwxNy4wMDAwMjYgQzMxLDE3LjM1NTAyNiAzMS4xODgsMTcuNjg0MDI2IDMxLjQ5NiwxNy44NjMwMjYgTDQzLDI0LjU3NDAyNiBMNDMsMzMuMTE4MDI2IEM0MC40ODMsMzEuNzE0MDI2IDM3LjUzNywzMS41NDgwMjYgMzQuNzE1LDMyLjc0MjAyNiBDMzMuNzI1LDMzLjE2MTAyNiAzMi44MjcsMzMuODI4MDI2IDMyLjAzNywzNC42MjkwMjYgTDI5LjAxMSwzMS4xMjAwMjYgTDM1Ljg0MiwyMy4xOTkwMjYgTDMzLjE4LDIzLjE5OTAyNiBMMjcsMzAuMDAwMDI2IEwyNywyMy4wMDAwMjYgTDI1LDIzLjAwMDAyNiBMMjUsNDAuMDAwMDI2IEwyNyw0MC4wMDAwMjYgTDI3LDMyLjAwMDAyNiBMMzAuNjgyLDM2LjMxMTAyNiBDMjkuNzE0LDM3Ljg0MTAyNiAyOS4xMjgsMzkuNjMzMDI2IDI5LjEyOCw0MS4zOTYwMjYgQzI5LjEyOCw0MS41MDUwMjYgMjkuMTMsNDEuNjE0MDI2IDI5LjEzMyw0MS43MjMwMjYgQzI3Ljc4NSw0Mi4yMTYwMjYgMjYuNzEyLDQzLjAyNzAyNiAyNS45NDYsNDQuMDczMDI2IEwxNywzOS4zOTMwMjYgTDE3LDI0LjU0ODAyNiBMMjcuNTM3LDE3Ljg0MzAyNiBDMjcuODI1LDE3LjY2MDAyNiAyOCwxNy4zNDEwMjYgMjgsMTcuMDAwMDI2IEwyOCw1LjAwMDAyNjA0IEMyOCw0LjY0MTAyNjA0IDI3LjgwNyw0LjMwOTAyNjA0IDI3LjQ5Niw0LjEzMTAyNjA0IEMyNy4xODMsMy45NTQwMjYwNCAyNi44MDIsMy45NTYwMjYwNCAyNi40OTEsNC4xMzkwMjYwNCBMNC40OTEsMTcuMTM5MDI2IEM0LjE4NiwxNy4zMTgwMjYgNCwxNy42NDYwMjYgNCwxOC4wMDAwMjYgTDQsNDYuMDAwMDI2IEM0LDQ2LjM2OTAyNiA0LjIwNCw0Ni43MDkwMjYgNC41Myw0Ni44ODIwMjYgTDI4Ljk4Myw1OS44ODIwMjYgQzI5LjEzMSw1OS45NjAwMjYgMjkuMjkyLDYwLjAwMDAyNiAyOS40NTMsNjAuMDAwMDI2IEMyOS42Miw2MC4wMDAwMjYgMjkuNzg2LDU5Ljk1ODAyNiAyOS45MzYsNTkuODc1MDI2IEwzOC4xMTQsNTUuMzYwMDI2IEw1My4zMTksNTUuMzc0MDI2IEM1NS41NTEsNTUuMTkyMDI2IDU5Ljc2OSw1My40OTIwMjYgNTkuNzY5LDQ4LjM1NjAyNiBDNTkuNzY5LDQ0LjY3ODAyNiA1Ny41MDUsNDIuNjAzMDI2IDU1LDQxLjcyNjAyNiBMNTUsNDEuNzI2MDI2IFoiLz4mI3hhOyAgICAgICAgPC9nPiYjeGE7ICAgIDwvZz4mI3hhOzwvc3ZnPg==;" vertex="1" parent="1">
          <mxGeometry x="470" y="450" width="40" height="40" as="geometry" />
        </mxCell>
        <mxCell id="MvUoBmO1SIilYgAonX3K-3" value="POST /Receiver" style="text;html=1;align=center;verticalAlign=middle;resizable=0;points=[];autosize=1;strokeColor=none;fillColor=none;" vertex="1" parent="1">
          <mxGeometry x="320" y="349.5" width="110" height="30" as="geometry" />
        </mxCell>
        <mxCell id="MvUoBmO1SIilYgAonX3K-7" value="Notificación" style="rounded=1;whiteSpace=wrap;html=1;" vertex="1" parent="1">
          <mxGeometry x="100" y="263" width="100" height="57" as="geometry" />
        </mxCell>
        <mxCell id="MvUoBmO1SIilYgAonX3K-10" value="Notificación" style="rounded=1;whiteSpace=wrap;html=1;" vertex="1" parent="1">
          <mxGeometry x="-510" y="548" width="100" height="42" as="geometry" />
        </mxCell>
      </root>
    </mxGraphModel>
  </diagram>
  <diagram id="2uN5Rm7hFbSzBm_mMPxA" name="3DS">
    <mxGraphModel dx="3021" dy="-4" grid="1" gridSize="10" guides="1" tooltips="1" connect="1" arrows="1" fold="1" page="1" pageScale="1" pageWidth="827" pageHeight="1169" math="0" shadow="0">
      <root>
        <mxCell id="0" />
        <mxCell id="1" parent="0" />
        <mxCell id="_cskd8p5I6brAU5aOjfc-1" value="Hercules" style="rounded=0;whiteSpace=wrap;html=1;fontStyle=1;verticalAlign=top;" vertex="1" parent="1">
          <mxGeometry x="-150" y="1582" width="240" height="140" as="geometry" />
        </mxCell>
        <mxCell id="_cskd8p5I6brAU5aOjfc-2" value="Sonda" style="rounded=0;whiteSpace=wrap;html=1;verticalAlign=top;fontStyle=1;textShadow=0;fillColor=#e1d5e7;strokeColor=#9673a6;" vertex="1" parent="1">
          <mxGeometry x="170.16999999999996" y="1682" width="510" height="370" as="geometry" />
        </mxCell>
        <mxCell id="_cskd8p5I6brAU5aOjfc-3" value="" style="rounded=0;whiteSpace=wrap;html=1;" vertex="1" parent="1">
          <mxGeometry x="1590" y="1350" width="240" height="205" as="geometry" />
        </mxCell>
        <mxCell id="_cskd8p5I6brAU5aOjfc-4" value="" style="shape=image;verticalLabelPosition=bottom;verticalAlign=top;imageAspect=0;image=https://external-content.duckduckgo.com/iu/?u=https%3A%2F%2Ftse1.mm.bing.net%2Fth%3Fid%3DOIP.nDzonxn67yDCRM7yDo4rQAHaDs%26pid%3DApi&amp;f=1&amp;ipt=1c8c3eae0abd3c5cca7b73f8b7f174f4898e963ab957952c1863577b7e49f768&amp;ipo=images;" vertex="1" parent="1">
          <mxGeometry x="1651.5" y="1355" width="105" height="43" as="geometry" />
        </mxCell>
        <mxCell id="_cskd8p5I6brAU5aOjfc-5" value="PayU" style="rounded=0;whiteSpace=wrap;html=1;verticalAlign=top;fontStyle=1" vertex="1" parent="1">
          <mxGeometry x="1590" y="1170" width="240" height="130" as="geometry" />
        </mxCell>
        <mxCell id="_cskd8p5I6brAU5aOjfc-6" value="Interoperabilidad" style="rounded=0;whiteSpace=wrap;html=1;verticalAlign=top;fontStyle=1;textShadow=0;fillColor=#dae8fc;strokeColor=#6c8ebf;" vertex="1" parent="1">
          <mxGeometry x="850" y="1192" width="510" height="630" as="geometry" />
        </mxCell>
        <mxCell id="_cskd8p5I6brAU5aOjfc-7" value="Tienda Compensar" style="rounded=0;whiteSpace=wrap;html=1;verticalAlign=top;fontStyle=1;textShadow=0;fillColor=#f8cecc;strokeColor=#b85450;" vertex="1" parent="1">
          <mxGeometry x="440" y="1222" width="280" height="230" as="geometry" />
        </mxCell>
        <mxCell id="_cskd8p5I6brAU5aOjfc-8" value="" style="shape=image;verticalLabelPosition=bottom;labelBackgroundColor=default;verticalAlign=top;aspect=fixed;imageAspect=0;image=data:image/webp,UklGRrQDAABXRUJQVlA4TKcDAAAvf8AfENcFKZJk20rW+z9gjRH8i2GFCe5tGwzaRnLkuW/8gT6Auy/jqI0kSXLM7PFf/tCWynTCjW3bVTMbz72kpv9+iKmASN688+S1QwF+WH7hN/7evz7G8N51Zqy196yp/zGpRCdDlRnIDF3OjAW+Z1ybl5+7Pk9wCCE+ICYUhvjHxwC/SIAFBlwJISYmBgYDgQhmwOBCrFFDCDHjg4FAzPgfk4EsDv5+Bkg6CtADdPWPhBBRSSWap08ZZwCwBwAlGCC0iAUKjQ1jAAAKoABarZAQQnzgiMJiIBYoEBBgwDYgAAQ26p0xQEI4vccFLvuDtdvZc7XddyFEkEGMkUsTwSlED9DHOEtkBAPjGIfmd/MaZxF1acG8f7d/3+39eftYfyFRkmTTts65xrNt27Zt27Ztq57ta5v9eXvtWWd/wY3o/wSoxf8tCqxru2GjcXU3166N1p3ZcVthu5it4PdG6x9137ix2iep1ZqN1gKvrIl98LyxOjAC++f2lr8vOGFZeQ37JmVDqa1y2lPMH3v4rH2Bf69ZCeB9UVjzdehdErYAz7Exv7xreP6UZ6d3vJjXOsdatPgTvVYFPuaEly97xYWwGQB3k1w/4eOS4hxjqrzi4+HmuhyrfC/yqkS+XYZyP0UjGCzrFAaEZL7i+gyY62j8yJCu8vVZAWfiijC3N/Pkvxt2ec3npSs2gd5/k6/xsjywAjYoojs8yleUGyAzASnPmebT4RHjXNtgqpTdhwkxScd5mxxR0ivO5ti7+czitRJ5my+O5knPnAOg9x9H3WOGVkk6BZskTWSkIsrAe57PIt4nZCznHGqciPvFUjm/weKcnJyczkN5UiNd4nZUtV7Dmny2QW4ihjDVpebz0OfYj30Vcv7uhXvLSjgjfWdgVA29ubTR3Em+nWBvArJheYiSv8LNnnI33MM9MkVnYZf2wt+INJrPMUU6kkF5Xs1XeF4VppTJMLrONR1ObAwWSOnPeVCf95LbTRHNgjnR/OrFsN9x2/9xsEgGxY7D9YrAv37ciCt8L5zQDxjbIZrKB/Q9khaF9gP971sfARfiJsVOwvAuUvwWfctkjF+hb8eky8Dj+9bdgUH3w2cq+zn0HXrfOLLSR9s/4PvyYIps0g94UKCtcFjmrDeMSmk68gbzmFjA+DBfKrqKfYf8G9ccOHbauGBPDwUXnj5s0NJDh7akHDl9tN6mzadPd5TqNs07HX68XCo8bV2vYJvZp06H71eL/1sOCAA=;" vertex="1" parent="1">
          <mxGeometry x="450" y="1205" width="60" height="60" as="geometry" />
        </mxCell>
        <mxCell id="_cskd8p5I6brAU5aOjfc-9" value="Plataforma Bienestar" style="rounded=0;whiteSpace=wrap;html=1;verticalAlign=top;fontStyle=1;textShadow=0;" vertex="1" parent="1">
          <mxGeometry x="60" y="1231.5" width="280" height="290" as="geometry" />
        </mxCell>
        <mxCell id="_cskd8p5I6brAU5aOjfc-10" value="User" style="shape=image;verticalLabelPosition=bottom;labelBackgroundColor=default;verticalAlign=top;aspect=fixed;imageAspect=0;image=data:image/webp,UklGRuwHAABXRUJQVlA4TOAHAAAvf8AfEBWHgrZtmLT8Ye+PQERMAMNCvx1W+jTtyDlpdp2i6MzK0fZPkZQ7Ut3r7u7umuGw7u4h7tN7s67prumnQqRYbHI4gK1WiNVGkyIHcPtDttlCBKEewD3zlHhTHEKHzCKX1CDZ1p4oKuYwhn3AGrqHNsTdHcor+cJ+W2IlSVrgSpLkWNmemQss/j/i2at7Bq1NLVyCX9Dga5BjW9uxZ05lTYSt0eWrUqK2bWcESe82K0OwU9v4beN9vz0BcGPbdp303woFePOkc+SlkH6USveen7+MRsht/ovQkBNfzZB6V4IPiWwTdEEN3jQAkdtIkoRm8w+QEDDxQJqZNxi3bSM5Kazk2eO3cCQAINjE1pbstjnlBZrsZLTtubbtdrJtvAAPsM2bALgBIDlO1CQtkHlvbmaLl9296UG9DJ4aSFEbVEJIqlQxroxvQDTEKpJkJ1bJM0vO39jAAiZxEEmSIp31M0Lf2c+MKt4TFAkACEhr23azHmDWnY22q862fRftbkTbeoOtCWBzdZ7lrWfPcUuuUmn5nN+1yPbveKuQegOqVFasWJtQjG2a3PJRscYs6pa0SSvhpEoDUiyVDhdVh3Y1oBt1iVZbF05x1H4oaTOw/xjoLto0zuTFkPaRiAO7MXjaRPOFWABIE/Uxhkp6oOrVTQ44sT2GTmxZuoBJSwMDWwqDxLXWA05YGgTiaZhEO57bj5fVGEjUdhgt00CI6g8gcSrMosZEEUNhmFxeSXR81Jcl2ueNoFXSXphG7azqqXacYRwdm5yJAYY7twZ3kQZEDZw1zCNNamAH9s7FVLypu/Z2a0DWAiuEQ1hGy4sH1LqU3g2q9ED6WFHyFy5rTaKEavdR+10WJbCKjyclqCYfpAYlaH0+qL1KqKM+RkrQunwQO5R8+qBWKyElfVTP4kqgOh9EtZK6MHyAm6akP4DEGw/Pq0oyddLDKEtFc3nY0bKBeqt3UBtYLRluuB5xIIuthWDXXLWJ1GTagjW06Sz3n/Zri/RzpycT622hqrLg1gPu0BL17FVRZhOXdspx1kz07FrZPcuqaTkrtFTWbbI2ZYxbjOaK0WaTs9ByirXA5JYGRvf2ykoUo68sNdRurJLR/pvJ2oZlFGvr/Yz6NV8ptYqn2iYtp9ONheSmGw0bCju9c4hy6V6Kq/lI1WUibeZJBCMVDFcwQkFloaYaRWZqpSoK1f1zz3glQYmQvVqeIuleiqNX/HKV5uvPtQr7e1HLoVjAnp/qwly0FWKmUXoutJaqSCfDFaiHaygQsLDC/pwfXkKnIDA54NbXHDMGElzY+OimjoOo4ZAv4fJPbF4uagrRWpkJlZhmzCxr5jhz88yKb5te52nxE58noUqAEKGTw1tY6edz5Qh94hlBwdc+6ZLyLwDYEY8W1N/fCSGqOORJ0a0i2b21iidCiILG+1uZOgkO4H3QrU2M/gEopkFJbLvHE6hdI/9Wrf//CyHEs9NjJZAYo6BYwjMhhKgq/gPX2L+D2iMaYLei2SiU7L5/KJFDfFL/8ftCYkEFgeu9B5UQ4lmpgIN/Rygw1z1GQr6AP9UCBN5/s/cI6m8Ju8LQN6Jxb/rBZURNQrNvm/v7HQbiXs8ucOq6b7BVCFEuRJmAtaeGbEJr3MvpJWD97wO3TbN7Mx/EIpi4oUePp2wy55QwEPt+eqaBaMz76SVgnTNKXWcqEw8Il4ItSQ3x58kJ+8KeEAYiuifX1RJRcn1hw5MbwNpRd5PjB6hy210UC4Jm0jNGnRqJOQy4B/GxtPbxlVTZ/8cPD3/zI+AjTw3XiHRs2dnJCU2z4pnDLo0VA44Z/yc/3V6QSXm+vHAg/h+w1vBzxTUjXTzaTsiuzu4nFnbTOsMvjQyHATia076/1tWX27m7cgv5A/ASCxGnhuskWTs5oTtavXnuiHPTiQNwzPxfRP/4elzz6VnL2NbDc8Tg+PoemO08wHW/L7vZ+U5gmgUvMGFXuCRkBgDsiYeed/94rGPfvo5jV/tBo0tKNzlBYuaxF9heLzR1k/n5g9UcSavtGieK6OyEbjxe9D+vaCDnEQ1xh4qTbjbYRRAd0veFcX7xN5nf0ceKk6feoqPp4OSERnrl1MRdEXjrnFLS8yno2qzjFiW5jf6EqUeNOD1pVzy3nfzUabV2fjrpf++eD3CLw/aXC+K02gGyFNubfvA/OUbcrGq9WDBNSamoJtaHIuLlatnTKxF9lvxVKFwED5r+b7Ln1kF0WzRsa5mz+4ndqNrEVFwV2KxlM0lVoQ510ewWacNOauGfNRCNyqi6GtSlMuikxKulRxdeBSqhDdlGK9BMaiNGKxD32miuC1xNJ6q1D5fjnZwHahLnkD4PaVwd2UTy7tRBzXlrdeu8ZrvVtb4deafztl3d6bRrzvMKZh/tvOLRmYdYjMfvK7rF7wuZcDQPIRa9w4FuXuH0IQ8hFiDmUNHsPCDEfN5ncCA0QK+kbfYYJPhwHqJRBuBIaJBWg/8BEIviPBlMQoivAHZwwdfuGo2ubegEQCy++C1XiXkMsZgDAHDMyN/voo/Vums0ud1c3rYdAAAhplhBGcxEiPdAccTinVNUM4zAXiAWAb0QIhz22KhixkSPqEeIv7R6J8HrmFG/IcQ1nRDiSiYsYsa9LlFvkagfSNSjtPkjwfdlwubrzNhyzBwZLEQ0IhL1GoreXe6Ils3mWgw=;" vertex="1" parent="1">
          <mxGeometry x="-110" y="1266.25" width="70" height="70" as="geometry" />
        </mxCell>
        <mxCell id="_cskd8p5I6brAU5aOjfc-11" style="edgeStyle=orthogonalEdgeStyle;rounded=0;orthogonalLoop=1;jettySize=auto;html=1;" edge="1" parent="1" source="_cskd8p5I6brAU5aOjfc-10" target="_cskd8p5I6brAU5aOjfc-14">
          <mxGeometry relative="1" as="geometry" />
        </mxCell>
        <mxCell id="_cskd8p5I6brAU5aOjfc-12" style="edgeStyle=orthogonalEdgeStyle;rounded=0;orthogonalLoop=1;jettySize=auto;html=1;" edge="1" parent="1" source="_cskd8p5I6brAU5aOjfc-14" target="_cskd8p5I6brAU5aOjfc-16">
          <mxGeometry relative="1" as="geometry" />
        </mxCell>
        <mxCell id="_cskd8p5I6brAU5aOjfc-13" value="Redirect Tienda" style="edgeLabel;html=1;align=center;verticalAlign=middle;resizable=0;points=[];" vertex="1" connectable="0" parent="_cskd8p5I6brAU5aOjfc-12">
          <mxGeometry x="-0.6286" y="2" relative="1" as="geometry">
            <mxPoint x="88" y="-6" as="offset" />
          </mxGeometry>
        </mxCell>
        <mxCell id="_cskd8p5I6brAU5aOjfc-14" value="Comprar" style="rounded=1;whiteSpace=wrap;html=1;" vertex="1" parent="1">
          <mxGeometry x="150" y="1281" width="100" height="40.5" as="geometry" />
        </mxCell>
        <mxCell id="_cskd8p5I6brAU5aOjfc-15" style="edgeStyle=orthogonalEdgeStyle;rounded=0;orthogonalLoop=1;jettySize=auto;html=1;" edge="1" parent="1" source="_cskd8p5I6brAU5aOjfc-16" target="_cskd8p5I6brAU5aOjfc-21">
          <mxGeometry relative="1" as="geometry">
            <Array as="points">
              <mxPoint x="730" y="1322" />
              <mxPoint x="730" y="1342" />
            </Array>
          </mxGeometry>
        </mxCell>
        <mxCell id="_cskd8p5I6brAU5aOjfc-16" value="Comprar" style="rounded=1;whiteSpace=wrap;html=1;" vertex="1" parent="1">
          <mxGeometry x="530" y="1271.5" width="100" height="57" as="geometry" />
        </mxCell>
        <mxCell id="_cskd8p5I6brAU5aOjfc-17" value="Cognito" style="shape=image;verticalLabelPosition=bottom;labelBackgroundColor=none;verticalAlign=top;aspect=fixed;imageAspect=0;editableCssRules=.*;image=data:image/svg+xml,PHN2ZyB4bWxuczp4bGluaz0iaHR0cDovL3d3dy53My5vcmcvMTk5OS94bGluayIgeG1sbnM9Imh0dHA6Ly93d3cudzMub3JnLzIwMDAvc3ZnIiB2ZXJzaW9uPSIxLjEiIHZpZXdCb3g9Ii0wLjUgLTAuNSA4MSA4MSIgaGVpZ2h0PSI4MSIgd2lkdGg9IjgxIj4mI3hhOyAgICAmI3hhOyAgICA8dGl0bGU+SWNvbi1BcmNoaXRlY3R1cmUvNjQvQXJjaF9BbWF6b24tQ29nbml0b182NDwvdGl0bGU+JiN4YTsgICAgPGRlc2M+Q3JlYXRlZCB3aXRoIFNrZXRjaC48L2Rlc2M+JiN4YTsgICAgPGRlZnM+JiN4YTsgICAgICAgIDxsaW5lYXJHcmFkaWVudCBpZD0ibGluZWFyR3JhZGllbnQtMSIgeTI9IjAlIiB4Mj0iMTAwJSIgeTE9IjEwMCUiIHgxPSIwJSI+JiN4YTsgICAgICAgICAgICA8c3RvcCBvZmZzZXQ9IjAlIiBzdG9wLWNvbG9yPSIjQkQwODE2Ii8+JiN4YTsgICAgICAgICAgICA8c3RvcCBvZmZzZXQ9IjEwMCUiIHN0b3AtY29sb3I9IiNGRjUyNTIiLz4mI3hhOyAgICAgICAgPC9saW5lYXJHcmFkaWVudD4mI3hhOyAgICA8L2RlZnM+JiN4YTsgICAgPGcgZmlsbC1ydWxlPSJldmVub2RkIiBmaWxsPSJub25lIiBzdHJva2Utd2lkdGg9IjEiIHN0cm9rZT0ibm9uZSIgaWQ9Ikljb24tQXJjaGl0ZWN0dXJlLzY0L0FyY2hfQW1hem9uLUNvZ25pdG9fNjQiPiYjeGE7ICAgICAgICA8ZyBmaWxsPSJ1cmwoI2xpbmVhckdyYWRpZW50LTEpIiBpZD0iSWNvbi1BcmNoaXRlY3R1cmUtQkcvNjQvU2VjdXJpdHktSWRlbnRpdHktQ29tcGxpYW5jZSI+JiN4YTsgICAgICAgICAgICA8cmVjdCBoZWlnaHQ9IjgwIiB3aWR0aD0iODAiIHk9IjAiIHg9IjAiIGlkPSJSZWN0YW5nbGUiLz4mI3hhOyAgICAgICAgPC9nPiYjeGE7ICAgICAgICA8cGF0aCBmaWxsPSIjRkZGRkZGIiBpZD0iQW1hem9uLUNvZ25pdG9fSWNvbl82NF9TcXVpZCIgZD0iTTE2Ljk2MzU2MDksMzUuODA3OTIyNSBMMjkuODY4ODE5MiwzNS44MDc5MjI1IEwyOS44Njg4MTkyLDMzLjgyNTM4NDEgTDE2Ljk2MzU2MDksMzMuODI1Mzg0MSBMMTYuOTYzNTYwOSwzNS44MDc5MjI1IFogTTYxLjM3NTUxODMsNTAuMjMwODg5NSBMNjIuNzc5MjEzMyw1MS42MzI1NDQxIEw1NS40MDczMzI3LDU4Ljk5MzcwOTMgQzU1LjIxMjc2MTEsNTkuMTg3MDA2NyA1NC45NTg2MjY4LDU5LjI4NDE1MTEgNTQuNzA1NDg1Miw1OS4yODQxNTExIEM1NC40NTEzNTA5LDU5LjI4NDE1MTEgNTQuMTk3MjE2Niw1OS4xODcwMDY3IDU0LjAwMzYzNzcsNTguOTkzNzA5MyBMNTAuMjk0ODY1LDU1LjI5MTMxODggTDUxLjY5ODU2LDUzLjg4OTY2NDEgTDU0LjcwNTQ4NTIsNTYuODkxMjI3MyBMNjEuMzc1NTE4Myw1MC4yMzA4ODk1IFogTTY1Ljk0Mzk3OTgsNTUuNjkzNzc0MSBDNjUuNzE3NjQxNCw1Ny41NTczNjAyIDY0Ljk1OTIwOTMsNTkuMjkxMDkgNjMuNzQ3MTA3Nyw2MC43MDg2MDUgQzYyLjg4NjQyNjIsNjEuNzE1NzM0NSA2MS43OTk0MDY0LDYyLjU0ODQwMDYgNjAuNjA0MTgxLDYzLjExNTQwNjYgQzU5LjAwMDk1MDgsNjMuODc1NzEwMSA1Ny4yMjAwMjUxLDY0LjE2NDE2OTQgNTUuNDQ2MDQ4NSw2My45NDgwNzI3IEM1My43MjA3MTQ3LDYzLjczNzkyMzcgNTIuMDk0NjUyMiw2My4wNTc5MTMgNTAuNzM5Niw2MS45ODIzODU5IEM0OC4xMzY3MDg3LDU5LjkxNTU4OTYgNDYuODIyMzU3OCw1Ni43MTA4MTYzIDQ3LjIyMjQyMDgsNTMuNDA4ODk4NSBDNDcuNjAwNjQ0MSw1MC4yODgzODMxIDQ5LjQ5MTc2MDgsNDcuNTY2MzU3OCA1Mi4yODAyODkzLDQ2LjEyNzAzNSBDNTMuNjE2NDc5OSw0NS40MzgxMDI5IDU1LjA3OTczNzcsNDUuMDg0MjE5OCA1Ni41Njk3OTg3LDQ1LjA4NDIxOTggQzU2Ljk1MTk5MjgsNDUuMDg0MjE5OCA1Ny4zMzcxNjUyLDQ1LjEwODAxMDIgNTcuNzIxMzQ0OCw0NS4xNTQ1OTk5IEM2MC44MzQ0OTAyLDQ1LjUzNDI1NiA2My41NDk1NTgsNDcuNDM2NTAxNiA2NC45ODEwNDg5LDUwLjI0Mjc4NDcgQzY1LjgzOTc0NSw1MS45MjU5NTk4IDY2LjE3MjMwMzYsNTMuODExMzUzOCA2NS45NDM5Nzk4LDU1LjY5Mzc3NDEgTDY1Ljk0Mzk3OTgsNTUuNjkzNzc0MSBaIE02Ni43NTAwNjIsNDkuMzQzNzAzNSBDNjUuMDE3Nzc5Myw0NS45NDc2MTUyIDYxLjczMTkwMiw0My42NDU4ODgxIDU3Ljk2MTU4MTEsNDMuMTg2OTMwNSBDNTUuNjgxMzIxMyw0Mi45MDgzODM4IDUzLjQwMzA0NjgsNDMuMzE2Nzg2OCA1MS4zNjg5Nzk2LDQ0LjM2NTU0OTYgQzQ3Ljk5NTc0MzYsNDYuMTA2MjE4MyA0NS43MDg1MzQ3LDQ5LjM5ODIyMzMgNDUuMjUwODk0NCw1My4xNzA5OTM5IEM0NC43Njg0MzYzLDU3LjE2MDg1MjUgNDYuMzU3NzY4NSw2MS4wMzU3MjM4IDQ5LjUwNDY2NjEsNjMuNTM0NzEzNSBDNTEuMTQ1NjE5Myw2NC44MzcyNDEyIDUzLjExNzE0NTcsNjUuNjYwOTg1OSA1NS4yMDQ4MTk0LDY1LjkxNTc0MjEgQzU1LjY2NzQyMzMsNjUuOTcyMjQ0NSA1Ni4xMzAwMjcyLDY2IDU2LjU5MTYzODMsNjYgQzU4LjI3MTMwNzMsNjYgNTkuOTMwMTI5NCw2NS42MjkyNjUzIDYxLjQ1NTkyOCw2NC45MDU2Mzg4IEM2Mi45MDIzMDk2LDY0LjIxOTY4MDUgNjQuMjE3NjUzMyw2My4yMTI1NTEgNjUuMjU3MDIyOSw2MS45OTUyNzI0IEM2Ni43MjMyNTg4LDYwLjI4MDM3NjcgNjcuNjQyNTEwMyw1OC4xODM4NDIzIDY3LjkxNTUwNjEsNTUuOTMxNjc4NyBDNjguMTkxNDgwMSw1My42NTY3MTU4IDY3Ljc4ODQzOSw1MS4zNzg3NzkyIDY2Ljc1MDA2Miw0OS4zNDM3MDM1IEw2Ni43NTAwNjIsNDkuMzQzNzAzNSBaIE0yNi44OTA2ODI3LDQxLjc1NTUzNzggTDMwLjg2MTUzMTQsNDEuNzU1NTM3OCBMMzAuODYxNTMxNCwzOS43NzI5OTk0IEwyNi44OTA2ODI3LDM5Ljc3Mjk5OTQgTDI2Ljg5MDY4MjcsNDEuNzU1NTM3OCBaIE0xNi45NjM1NjA5LDQxLjc1NTUzNzggTDI0LjkwNTI1ODMsNDEuNzU1NTM3OCBMMjQuOTA1MjU4MywzOS43NzI5OTk0IEwxNi45NjM1NjA5LDM5Ljc3Mjk5OTQgTDE2Ljk2MzU2MDksNDEuNzU1NTM3OCBaIE0xNi4xMDU4NTc2LDE1Ljk4MjUzODQgTDYwLjUwNzg4NzksMTUuOTgyNTM4NCBDNjEuNjc3MzAyOCwxNS45ODI1Mzg0IDYyLjYyODMyMTEsMTcuMTM5MzQ5NiA2Mi42MjgzMjExLDE4LjU2MDgyOTYgTDYyLjYyODMyMTEsMjUuODk1MjMwNSBMNTkuNjUwMTg0NSwyNS44OTUyMzA1IEw1OS42NTAxODQ1LDIwLjkzODg4NDQgQzU5LjY1MDE4NDUsMjAuMzkxNzAzOCA1OS4yMDY0NDIyLDE5Ljk0NzYxNTIgNTguNjU3NDcyNCwxOS45NDc2MTUyIEwzNS44MjUwOTIzLDE5Ljk0NzYxNTIgQzM1LjI3NjEyMjQsMTkuOTQ3NjE1MiAzNC44MzIzODAxLDIwLjM5MTcwMzggMzQuODMyMzgwMSwyMC45Mzg4ODQ0IEwzNC44MzIzODAxLDI1Ljg5NTIzMDUgTDEzLjk4NTQyNDQsMjUuODk1MjMwNSBMMTMuOTg1NDI0NCwxOC41NjA4Mjk2IEMxMy45ODU0MjQ0LDE3LjE2MzE0IDE0Ljk1NzI4OTYsMTUuOTgyNTM4NCAxNi4xMDU4NTc2LDE1Ljk4MjUzODQgTDE2LjEwNTg1NzYsMTUuOTgyNTM4NCBaIE00Ny4yNTYxNzMsMjUuNjA3NzYyNCBDNDkuNTYxMjUwNywyNS42MDc3NjI0IDUxLjQzNjQ4NCwyNy40NjE0MzU4IDUxLjQzNjQ4NCwyOS43MzkzNzI1IEM1MS40MzY0ODQsMzEuMjQxMTQ1MyA1MC42MDc1NjkzLDMyLjYyMjk3NDYgNDkuMjczMzY0MiwzMy4zNDY2MDExIEM0OC4wMDY2NjM0LDM0LjAzMzU1MDcgNDYuNDc5ODcyMSwzNC4wMjQ2MjkyIDQ1LjIzMDA0NzQsMzMuMzQ3NTkyNCBDNDMuOTAwODA1OCwzMi42MjE5ODMzIDQzLjA3NTg2MiwzMS4yNDAxNTQgNDMuMDc1ODYyLDI5LjczOTM3MjUgQzQzLjA3NTg2MiwyNy40NjE0MzU4IDQ0Ljk1MDEwMjYsMjUuNjA3NzYyNCA0Ny4yNTYxNzMsMjUuNjA3NzYyNCBMNDcuMjU2MTczLDI1LjYwNzc2MjQgWiBNMTMuOTg1NDI0NCw0Ny4xMDgzOTE1IEwxMy45ODU0MjQ0LDI3Ljg3Nzc2ODkgTDM0LjgzMjM4MDEsMjcuODc3NzY4OSBMMzQuODMyMzgwMSw0NC43MjkzNDU0IEMzNC44MzIzODAxLDQ1LjI3NzUxNzMgMzUuMjc2MTIyNCw0NS43MjA2MTQ2IDM1LjgyNTA5MjMsNDUuNzIwNjE0NiBMNDYuMjAyOTA1NCw0NS43MjA2MTQ2IEw0Ni4yMDI5MDU0LDQzLjczODA3NjIgTDM3LjkxMTc3MzMsNDMuNzM4MDc2MiBDMzcuOTk4MTM5MiwzOS43NzEwMTY4IDQwLjYzNTc3NTUsMzYuMzQ0MTk5MiA0NC40MzM4OTIzLDM1LjI0OTgzOCBDNDYuMTg5MDA3NCwzNi4wNjk2MTc2IDQ4LjI4NDYyMjgsMzYuMDc3NTQ3OCA1MC4wNjY1NDEyLDM1LjI0ODg0NjcgQzUyLjIyODY2ODMsMzUuODczMzQ2MyA1NC4xMjA3Nzc3LDM3LjMxNzYyNTUgNTUuMjkzMTcwOCwzOS4yNTM1NzQzIEw1Ni45OTE3MDEzLDM4LjIyNjYxOTQgQzU1Ljc4ODUzNDIsMzYuMjQzMDg5NyA1My45NjI5MzY1LDM0LjY5NDcyNzIgNTEuODQ1NDgxNCwzMy43OTQ2NTQ4IEM1Mi44MzgxOTM2LDMyLjY5NDM0NiA1My40MjE5MDgzLDMxLjI2Mjk1MzIgNTMuNDIxOTA4MywyOS43MzkzNzI1IEM1My40MjE5MDgzLDI2LjM2ODA2NTkgNTAuNjU1MjE5NSwyMy42MjUyMjQgNDcuMjU2MTczLDIzLjYyNTIyNCBDNDMuODU2MTMzOCwyMy42MjUyMjQgNDEuMDkwNDM3NywyNi4zNjgwNjU5IDQxLjA5MDQzNzcsMjkuNzM5MzcyNSBDNDEuMDkwNDM3NywzMS4yNTcwMDU2IDQxLjY2ODE5NjIsMzIuNjgzNDQyIDQyLjY1Mzk1OTMsMzMuNzgzNzUwOCBDNDAuMDAwNDM5NywzNC44OTk5MTk5IDM3LjkyNzY1NjcsMzYuOTkyNDg5MiAzNi44MTc4MDQ1LDM5LjU3Mjc2MyBMMzYuODE3ODA0NSwyMS45MzAxNTM2IEw1Ny42NjQ3NjAyLDIxLjkzMDE1MzYgTDU3LjY2NDc2MDIsMzcuNzkwNDYwOSBMNTkuNjUwMTg0NSwzNy43OTA0NjA5IEw1OS42NTAxODQ1LDI3Ljg3Nzc2ODkgTDYyLjYyODMyMTEsMjcuODc3NzY4OSBMNjIuNjI5MzEzOCw0Mi43NDY4MDcgTDY0LjYxNDczODIsNDIuNzQ2ODA3IEw2NC42MTM3NDU0LDE4LjU2MDgyOTYgQzY0LjYxMzc0NTQsMTYuMDQ1OTc5NiA2Mi43NzIyNjQzLDE0IDYwLjUwNzg4NzksMTQgTDE2LjEwNTg1NzYsMTQgQzEzLjg0MTQ4MTEsMTQgMTIsMTYuMDQ1OTc5NiAxMiwxOC41NjA4Mjk2IEwxMiw0Ny4xMDgzOTE1IEMxMiw0OS42MjMyNDE1IDEzLjg0MTQ4MTEsNTEuNjY4MjI5OCAxNi4xMDU4NTc2LDUxLjY2ODIyOTggTDQyLjc3NDA3NzUsNTEuNjY4MjI5OCBMNDIuNzc0MDc3NSw0OS42ODU2OTE0IEwxNi4xMDU4NTc2LDQ5LjY4NTY5MTQgQzE0Ljk1NzI4OTYsNDkuNjg1NjkxNCAxMy45ODU0MjQ0LDQ4LjUwNjA4MTEgMTMuOTg1NDI0NCw0Ny4xMDgzOTE1IEwxMy45ODU0MjQ0LDQ3LjEwODM5MTUgWiIvPiYjeGE7ICAgIDwvZz4mI3hhOzwvc3ZnPg==;" vertex="1" parent="1">
          <mxGeometry x="860" y="1242" width="40" height="40" as="geometry" />
        </mxCell>
        <mxCell id="_cskd8p5I6brAU5aOjfc-18" style="edgeStyle=orthogonalEdgeStyle;rounded=0;orthogonalLoop=1;jettySize=auto;html=1;entryX=0;entryY=0.5;entryDx=0;entryDy=0;" edge="1" parent="1" source="_cskd8p5I6brAU5aOjfc-16" target="_cskd8p5I6brAU5aOjfc-17">
          <mxGeometry relative="1" as="geometry">
            <Array as="points">
              <mxPoint x="730" y="1292" />
              <mxPoint x="730" y="1262" />
            </Array>
          </mxGeometry>
        </mxCell>
        <mxCell id="_cskd8p5I6brAU5aOjfc-19" value="POST /Token" style="edgeLabel;html=1;align=center;verticalAlign=middle;resizable=0;points=[];" vertex="1" connectable="0" parent="_cskd8p5I6brAU5aOjfc-18">
          <mxGeometry x="0.479" y="2" relative="1" as="geometry">
            <mxPoint x="-22" y="-8" as="offset" />
          </mxGeometry>
        </mxCell>
        <mxCell id="_cskd8p5I6brAU5aOjfc-20" style="edgeStyle=orthogonalEdgeStyle;rounded=0;orthogonalLoop=1;jettySize=auto;html=1;entryX=0;entryY=0.5;entryDx=0;entryDy=0;" edge="1" parent="1" source="_cskd8p5I6brAU5aOjfc-21" target="_cskd8p5I6brAU5aOjfc-26">
          <mxGeometry relative="1" as="geometry" />
        </mxCell>
        <mxCell id="_cskd8p5I6brAU5aOjfc-21" value="ApiGateway" style="shape=image;verticalLabelPosition=bottom;labelBackgroundColor=none;verticalAlign=top;aspect=fixed;imageAspect=0;editableCssRules=.*;image=data:image/svg+xml,PHN2ZyB4bWxuczp4bGluaz0iaHR0cDovL3d3dy53My5vcmcvMTk5OS94bGluayIgeG1sbnM9Imh0dHA6Ly93d3cudzMub3JnLzIwMDAvc3ZnIiB2ZXJzaW9uPSIxLjEiIHZpZXdCb3g9Ii0wLjUgLTAuNSA4MSA4MSIgaGVpZ2h0PSI4MSIgd2lkdGg9IjgxIj4mI3hhOyAgICA8dGl0bGU+SWNvbi1BcmNoaXRlY3R1cmUvNjQvQXJjaF8gQW1hem9uLUFQSS1HYXRld2F5XzY0PC90aXRsZT4mI3hhOyAgICA8ZGVmcz4mI3hhOyAgICAgICAgPGxpbmVhckdyYWRpZW50IGlkPSJsaW5lYXJHcmFkaWVudC0xIiB5Mj0iMCUiIHgyPSIxMDAlIiB5MT0iMTAwJSIgeDE9IjAlIj4mI3hhOyAgICAgICAgICAgIDxzdG9wIG9mZnNldD0iMCUiIHN0b3AtY29sb3I9IiNCMDA4NEQiLz4mI3hhOyAgICAgICAgICAgIDxzdG9wIG9mZnNldD0iMTAwJSIgc3RvcC1jb2xvcj0iI0ZGNEY4QiIvPiYjeGE7ICAgICAgICA8L2xpbmVhckdyYWRpZW50PiYjeGE7ICAgIDwvZGVmcz4mI3hhOyAgICA8ZyBmaWxsLXJ1bGU9ImV2ZW5vZGQiIGZpbGw9Im5vbmUiIHN0cm9rZS13aWR0aD0iMSIgc3Ryb2tlPSJub25lIiBpZD0iSWNvbi1BcmNoaXRlY3R1cmUvNjQvQXJjaF8tQW1hem9uLUFQSS1HYXRld2F5XzY0Ij4mI3hhOyAgICAgICAgPGcgZmlsbD0idXJsKCNsaW5lYXJHcmFkaWVudC0xKSIgaWQ9IlJlY3RhbmdsZSI+JiN4YTsgICAgICAgICAgICA8cmVjdCBoZWlnaHQ9IjgwIiB3aWR0aD0iODAiIHk9IjAiIHg9IjAiLz4mI3hhOyAgICAgICAgPC9nPiYjeGE7ICAgICAgICA8ZyBmaWxsPSIjRkZGRkZGIiB0cmFuc2Zvcm09InRyYW5zbGF0ZSg4LjAwMDAwMCwgOC4wMDAwMDApIiBpZD0iSWNvbi1TZXJ2aWNlLzY0L0FtYXpvbi1BUEktR2F0ZXdheV82NCI+JiN4YTsgICAgICAgICAgICA8cGF0aCBpZD0iQW1hem9uLUFQSS1HYXRld2F5X0ljb25fNjRfU3F1aWQiIGQ9Ik0yNi4wNjUsNDcuNjMyMzY0MiBMMjksNDcuNjMyMzY0MiBMMjksNDUuNjE1Mjk4OSBMMjYuMDY1LDQ1LjYxNTI5ODkgTDI2LjA2NSw0Ny42MzIzNjQyIFogTTMxLDQ3LjYzMjM2NDIgTDM0LDQ3LjYzMjM2NDIgTDM0LDQ1LjYxNTI5ODkgTDMxLDQ1LjYxNTI5ODkgTDMxLDQ3LjYzMjM2NDIgWiBNMTksNi42Mjk0NjExMiBMNiwxMy4wODIwNTMgTDYsNTMuMTkzNDEzMiBMMTksNTcuNTg5NjA3IEwxOSw2LjYyOTQ2MTEyIFogTTIxLDE5LjM5MzQ1MDIgTDIxLDQ1LjYxNTI5ODkgTDI0LDQ1LjYxNTI5ODkgTDI0LDQ3LjYzMjM2NDIgTDIxLDQ3LjYzMjM2NDIgTDIxLDU4Ljk5MTQ2NzQgQzIxLDU5LjMxNjIxNDkgMjAuODQ1LDU5LjYyMDc5MTcgMjAuNTg0LDU5LjgxMDM5NTkgQzIwLjQxMiw1OS45MzU0NTM5IDIwLjIwNyw2MCAyMCw2MCBDMTkuODk0LDYwIDE5Ljc4Niw1OS45ODI4NTQ5IDE5LjY4Miw1OS45NDc1NTYzIEw0LjY4Miw1NC44NzU2NDU2IEM0LjI3NCw1NC43Mzc0NzY3IDQsNTQuMzUyMjE3MiA0LDUzLjkxOTU1NjcgTDQsMTIuNDUzNzM3MSBDNCwxMi4wNzA0OTQ3IDQuMjE3LDExLjcxODUxNjggNC41NTksMTEuNTQ5MDgzMyBMMTkuNTU5LDQuMTA0MDk1MzkgQzE5Ljg2OCwzLjk0OTc4OTg5IDIwLjIzNSwzLjk2Nzk0MzQ4IDIwLjUyOCw0LjE1MjUwNDk1IEMyMC44MjEsNC4zMzYwNTc4OSAyMSw0LjY1OTc5Njg3IDIxLDUuMDA4NzQ5MTcgTDIxLDE3LjM3NjM4NSBMMjQsMTcuMzc2Mzg1IEwyNCwxOS4zOTM0NTAyIEwyMSwxOS4zOTM0NTAyIFogTTM2LDQ3LjYzMjM2NDIgTDM5LDQ3LjYzMjM2NDIgTDM5LDQ1LjYxNTI5ODkgTDM2LDQ1LjYxNTI5ODkgTDM2LDQ3LjYzMjM2NDIgWiBNMzYuMDY1LDE5LjM5MzQ1MDIgTDM5LDE5LjM5MzQ1MDIgTDM5LDE3LjM3NjM4NSBMMzYuMDY1LDE3LjM3NjM4NSBMMzYuMDY1LDE5LjM5MzQ1MDIgWiBNMzEuMDY1LDE5LjM5MzQ1MDIgTDM0LDE5LjM5MzQ1MDIgTDM0LDE3LjM3NjM4NSBMMzEuMDY1LDE3LjM3NjM4NSBMMzEuMDY1LDE5LjM5MzQ1MDIgWiBNMjYuMDY1LDE5LjM5MzQ1MDIgTDI5LDE5LjM5MzQ1MDIgTDI5LDE3LjM3NjM4NSBMMjYuMDY1LDE3LjM3NjM4NSBMMjYuMDY1LDE5LjM5MzQ1MDIgWiBNNTgsMTMuMDgyMDUzIEw0NSw2LjYyOTQ2MTEyIEw0NSw1Ny41ODk2MDcgTDU4LDUzLjE5MzQxMzIgTDU4LDEzLjA4MjA1MyBaIE02MCw1My45MTk1NTY3IEM2MCw1NC4zNTIyMTcyIDU5LjcyNiw1NC43Mzc0NzY3IDU5LjMxOCw1NC44NzU2NDU2IEw0NC4zMTgsNTkuOTQ3NTU2MyBDNDQuMjE0LDU5Ljk4Mjg1NDkgNDQuMTA2LDYwIDQ0LDYwIEM0My43OTMsNjAgNDMuNTg4LDU5LjkzNTQ1MzkgNDMuNDE2LDU5LjgxMDM5NTkgQzQzLjE1NSw1OS42MjA3OTE3IDQzLDU5LjMxNjIxNDkgNDMsNTguOTkxNDY3NCBMNDMsNDcuNjMyMzY0MiBMNDEuMDY1LDQ3LjYzMjM2NDIgTDQxLjA2NSw0NS42MTUyOTg5IEw0Myw0NS42MTUyOTg5IEw0MywxOS4zOTM0NTAyIEw0MS4wNjUsMTkuMzkzNDUwMiBMNDEuMDY1LDE3LjM3NjM4NSBMNDMsMTcuMzc2Mzg1IEw0Myw1LjAwODc0OTE3IEM0Myw0LjY1OTc5Njg3IDQzLjE3OSw0LjMzNjA1Nzg5IDQzLjQ3Miw0LjE1MjUwNDk1IEM0My43NjUsMy45Njc5NDM0OCA0NC4xMzEsMy45NDk3ODk4OSA0NC40NDEsNC4xMDQwOTUzOSBMNTkuNDQxLDExLjU0OTA4MzMgQzU5Ljc4MywxMS43MTg1MTY4IDYwLDEyLjA3MDQ5NDcgNjAsMTIuNDUzNzM3MSBMNjAsNTMuOTE5NTU2NyBaIE0zNC45MzQsMjUuODA2NzA5MyBMMzMuMDY2LDI1LjA4MjU4MjkgTDI4LjA2NiwzOC4xOTM1MDcyIEwyOS45MzQsMzguOTE3NjMzNyBMMzQuOTM0LDI1LjgwNjcwOTMgWiBNNDEuNzA3LDMyLjIwODg3NDUgQzQyLjA5OCwzMS44MTQ1MzgzIDQyLjA5OCwzMS4xNzYxMzcxIDQxLjcwNywzMC43ODI4MDk0IEwzNy43MDcsMjYuNzQ4Njc4OCBMMzYuMjkzLDI4LjE3NDc0NCBMMzkuNTg2LDMxLjQ5NTg0MTkgTDM2LjI5MywzNC44MTY5Mzk5IEwzNy43MDcsMzYuMjQzMDA1MSBMNDEuNzA3LDMyLjIwODg3NDUgWiBNMjYuMjkzLDM2LjI0MzAwNTEgTDIyLjI5MywzMi4yMDg4NzQ1IEMyMS45MDIsMzEuODE0NTM4MyAyMS45MDIsMzEuMTc2MTM3MSAyMi4yOTMsMzAuNzgyODA5NCBMMjYuMjkzLDI2Ljc0ODY3ODggTDI3LjcwNywyOC4xNzQ3NDQgTDI0LjQxNCwzMS40OTU4NDE5IEwyNy43MDcsMzQuODE2OTM5OSBMMjYuMjkzLDM2LjI0MzAwNTEgWiIvPiYjeGE7ICAgICAgICA8L2c+JiN4YTsgICAgPC9nPiYjeGE7PC9zdmc+;" vertex="1" parent="1">
          <mxGeometry x="860" y="1322" width="40" height="40" as="geometry" />
        </mxCell>
        <mxCell id="_cskd8p5I6brAU5aOjfc-22" value="POST /Payment" style="text;html=1;align=center;verticalAlign=middle;resizable=0;points=[];autosize=1;strokeColor=none;fillColor=none;" vertex="1" parent="1">
          <mxGeometry x="725" y="1320" width="110" height="30" as="geometry" />
        </mxCell>
        <mxCell id="_cskd8p5I6brAU5aOjfc-23" style="edgeStyle=orthogonalEdgeStyle;rounded=0;orthogonalLoop=1;jettySize=auto;html=1;exitX=0.5;exitY=1;exitDx=0;exitDy=0;" edge="1" parent="1">
          <mxGeometry relative="1" as="geometry">
            <mxPoint x="993.25" y="1363" as="sourcePoint" />
            <mxPoint x="993.25" y="1363" as="targetPoint" />
          </mxGeometry>
        </mxCell>
        <mxCell id="_cskd8p5I6brAU5aOjfc-24" style="edgeStyle=orthogonalEdgeStyle;rounded=0;orthogonalLoop=1;jettySize=auto;html=1;entryX=0;entryY=0.5;entryDx=0;entryDy=0;" edge="1" parent="1" source="_cskd8p5I6brAU5aOjfc-26" target="_cskd8p5I6brAU5aOjfc-38">
          <mxGeometry relative="1" as="geometry" />
        </mxCell>
        <mxCell id="_cskd8p5I6brAU5aOjfc-25" style="edgeStyle=orthogonalEdgeStyle;rounded=0;orthogonalLoop=1;jettySize=auto;html=1;sourcePerimeterSpacing=20;" edge="1" parent="1" source="_cskd8p5I6brAU5aOjfc-26" target="_cskd8p5I6brAU5aOjfc-63">
          <mxGeometry relative="1" as="geometry">
            <Array as="points">
              <mxPoint x="971" y="1562" />
            </Array>
          </mxGeometry>
        </mxCell>
        <mxCell id="_cskd8p5I6brAU5aOjfc-26" value="Lambda Proxy" style="shape=image;verticalLabelPosition=bottom;labelBackgroundColor=none;verticalAlign=top;aspect=fixed;imageAspect=0;editableCssRules=.*;image=data:image/svg+xml,PHN2ZyB4bWxuczp4bGluaz0iaHR0cDovL3d3dy53My5vcmcvMTk5OS94bGluayIgeG1sbnM9Imh0dHA6Ly93d3cudzMub3JnLzIwMDAvc3ZnIiB2ZXJzaW9uPSIxLjEiIHZpZXdCb3g9Ii0wLjUgLTAuNSA4MSA4MSIgaGVpZ2h0PSI4MSIgd2lkdGg9IjgxIj4mI3hhOyAgICAmI3hhOyAgICA8dGl0bGU+SWNvbi1BcmNoaXRlY3R1cmUvNjQvQXJjaF9BV1MtTGFtYmRhXzY0PC90aXRsZT4mI3hhOyAgICA8ZGVzYz5DcmVhdGVkIHdpdGggU2tldGNoLjwvZGVzYz4mI3hhOyAgICA8ZGVmcz4mI3hhOyAgICAgICAgPGxpbmVhckdyYWRpZW50IGlkPSJsaW5lYXJHcmFkaWVudC0xIiB5Mj0iMCUiIHgyPSIxMDAlIiB5MT0iMTAwJSIgeDE9IjAlIj4mI3hhOyAgICAgICAgICAgIDxzdG9wIG9mZnNldD0iMCUiIHN0b3AtY29sb3I9IiNDODUxMUIiLz4mI3hhOyAgICAgICAgICAgIDxzdG9wIG9mZnNldD0iMTAwJSIgc3RvcC1jb2xvcj0iI0ZGOTkwMCIvPiYjeGE7ICAgICAgICA8L2xpbmVhckdyYWRpZW50PiYjeGE7ICAgIDwvZGVmcz4mI3hhOyAgICA8ZyBmaWxsLXJ1bGU9ImV2ZW5vZGQiIGZpbGw9Im5vbmUiIHN0cm9rZS13aWR0aD0iMSIgc3Ryb2tlPSJub25lIiBpZD0iSWNvbi1BcmNoaXRlY3R1cmUvNjQvQXJjaF9BV1MtTGFtYmRhXzY0Ij4mI3hhOyAgICAgICAgPGcgZmlsbD0idXJsKCNsaW5lYXJHcmFkaWVudC0xKSIgaWQ9Ikljb24tQXJjaGl0ZWN0dXJlLUJHLzY0L0NvbXB1dGUiPiYjeGE7ICAgICAgICAgICAgPHJlY3QgaGVpZ2h0PSI4MCIgd2lkdGg9IjgwIiB5PSIwIiB4PSIwIiBpZD0iUmVjdGFuZ2xlIi8+JiN4YTsgICAgICAgIDwvZz4mI3hhOyAgICAgICAgPHBhdGggZmlsbD0iI0ZGRkZGRiIgaWQ9IkFXUy1MYW1iZGFfSWNvbl82NF9TcXVpZCIgZD0iTTI4LjAwNzUzNTIsNjYgTDE1LjU5MDcyNzQsNjYgTDI5LjMyMzU4ODUsMzcuMjk2IEwzNS41NDYwMjQ5LDUwLjEwNiBMMjguMDA3NTM1Miw2NiBaIE0zMC4yMTk2Njc0LDM0LjU1MyBDMzAuMDUxMjc2OCwzNC4yMDggMjkuNzAwNDYyOSwzMy45ODkgMjkuMzE3NTc0NSwzMy45ODkgTDI5LjMxNDU2NzYsMzMuOTg5IEMyOC45Mjg2NzIzLDMzLjk5IDI4LjU3Nzg1ODMsMzQuMjExIDI4LjQxMjQ3NDYsMzQuNTU4IEwxMy4wOTc5NDQsNjYuNTY5IEMxMi45NDk1OTk5LDY2Ljg3OSAxMi45NzA2NDg3LDY3LjI0MyAxMy4xNTUwNzY2LDY3LjUzNCBDMTMuMzM3NDk5OCw2Ny44MjQgMTMuNjU4MjQzOSw2OCAxNC4wMDIwNDE2LDY4IEwyOC42NDIwMDcyLDY4IEMyOS4wMjk5MDcxLDY4IDI5LjM4MTcyMzQsNjcuNzc3IDI5LjU0ODEwOTQsNjcuNDI4IEwzNy41NjM3MDYsNTAuNTI4IEMzNy42OTMwMDYsNTAuMjU0IDM3LjY5MjAwMzcsNDkuOTM3IDM3LjU1ODY5NDQsNDkuNjY1IEwzMC4yMTk2Njc0LDM0LjU1MyBaIE02NC45OTUzNDkxLDY2IEw1Mi42NTg3Mjc0LDY2IEwzMi44NjY4MDksMjQuNTcgQzMyLjcwMTQyNTMsMjQuMjIyIDMyLjM0ODYwNjcsMjQgMzEuOTYxNzA5MSwyNCBMMjMuODg5OTgyMiwyNCBMMjMuODk5MDAzMSwxNCBMMzkuNzE5NzA4MSwxNCBMNTkuNDIwNDE0OSw1NS40MjkgQzU5LjU4NTc5ODYsNTUuNzc3IDU5LjkzODYxNzIsNTYgNjAuMzI1NTE0OCw1NiBMNjQuOTk1MzQ5MSw1NiBMNjQuOTk1MzQ5MSw2NiBaIE02NS45OTc2NzQ1LDU0IEw2MC45NTk5ODY4LDU0IEw0MS4yNTkyOCwxMi41NzEgQzQxLjA5Mzg5NjMsMTIuMjIzIDQwLjc0MTA3NzcsMTIgNDAuMzUzMTc3OCwxMiBMMjIuODk3NjgsMTIgQzIyLjM0NTM5ODcsMTIgMjEuODk2MzU2OSwxMi40NDcgMjEuODk1MzU0NSwxMi45OTkgTDIxLjg4NDMyOSwyNC45OTkgQzIxLjg4NDMyOSwyNS4yNjUgMjEuOTg4NTcwOCwyNS41MTkgMjIuMTc4MDEwMywyNS43MDcgQzIyLjM2NTQ0NTIsMjUuODk1IDIyLjYyMDAzNTgsMjYgMjIuODg2NjU0NCwyNiBMMzEuMzI5MjQxNywyNiBMNTEuMTIyMTYyNSw2Ny40MyBDNTEuMjg4NTQ4NSw2Ny43NzggNTEuNjM5MzYyNCw2OCA1Mi4wMjYyNiw2OCBMNjUuOTk3Njc0NSw2OCBDNjYuNTUxOTYwNSw2OCA2Nyw2Ny41NTIgNjcsNjcgTDY3LDU1IEM2Nyw1NC40NDggNjYuNTUxOTYwNSw1NCA2NS45OTc2NzQ1LDU0IEw2NS45OTc2NzQ1LDU0IFoiLz4mI3hhOyAgICA8L2c+JiN4YTs8L3N2Zz4=;" vertex="1" parent="1">
          <mxGeometry x="950" y="1321" width="41" height="41" as="geometry" />
        </mxCell>
        <mxCell id="_cskd8p5I6brAU5aOjfc-27" style="edgeStyle=orthogonalEdgeStyle;rounded=0;orthogonalLoop=1;jettySize=auto;html=1;entryX=0.5;entryY=0;entryDx=0;entryDy=0;sourcePerimeterSpacing=22;targetPerimeterSpacing=20;" edge="1" parent="1" source="_cskd8p5I6brAU5aOjfc-38" target="_cskd8p5I6brAU5aOjfc-41">
          <mxGeometry relative="1" as="geometry">
            <Array as="points">
              <mxPoint x="1090" y="1402" />
              <mxPoint x="1005" y="1402" />
            </Array>
          </mxGeometry>
        </mxCell>
        <mxCell id="_cskd8p5I6brAU5aOjfc-28" style="edgeStyle=orthogonalEdgeStyle;rounded=0;orthogonalLoop=1;jettySize=auto;html=1;" edge="1" parent="1" source="_cskd8p5I6brAU5aOjfc-38" target="_cskd8p5I6brAU5aOjfc-46">
          <mxGeometry relative="1" as="geometry">
            <mxPoint x="1547.75" y="1217" as="targetPoint" />
            <Array as="points">
              <mxPoint x="1105" y="1232" />
            </Array>
          </mxGeometry>
        </mxCell>
        <mxCell id="_cskd8p5I6brAU5aOjfc-29" value="POST /payments-api/service.cgi&amp;nbsp;" style="edgeLabel;html=1;align=center;verticalAlign=middle;resizable=0;points=[];labelBackgroundColor=none;" vertex="1" connectable="0" parent="_cskd8p5I6brAU5aOjfc-28">
          <mxGeometry x="-0.6939" y="4" relative="1" as="geometry">
            <mxPoint x="357" y="-6" as="offset" />
          </mxGeometry>
        </mxCell>
        <mxCell id="_cskd8p5I6brAU5aOjfc-30" style="edgeStyle=orthogonalEdgeStyle;rounded=0;orthogonalLoop=1;jettySize=auto;html=1;entryX=0;entryY=0.5;entryDx=0;entryDy=0;" edge="1" parent="1" source="_cskd8p5I6brAU5aOjfc-38" target="_cskd8p5I6brAU5aOjfc-43">
          <mxGeometry relative="1" as="geometry" />
        </mxCell>
        <mxCell id="_cskd8p5I6brAU5aOjfc-31" value="POST /&lt;span style=&quot;color: rgb(33, 33, 33); font-family: Inter, system-ui, -apple-system, BlinkMacSystemFont, &amp;quot;Segoe UI&amp;quot;, Roboto, Oxygen, Ubuntu, Cantarell, &amp;quot;Fira Sans&amp;quot;, &amp;quot;Droid Sans&amp;quot;, Helvetica, Arial, sans-serif; font-size: 12px; text-align: left; white-space: pre-wrap;&quot;&gt;ObtencionToken&lt;/span&gt;" style="edgeLabel;html=1;align=center;verticalAlign=middle;resizable=0;points=[];" vertex="1" connectable="0" parent="_cskd8p5I6brAU5aOjfc-30">
          <mxGeometry x="0.3472" y="-1" relative="1" as="geometry">
            <mxPoint x="8" y="-13" as="offset" />
          </mxGeometry>
        </mxCell>
        <mxCell id="_cskd8p5I6brAU5aOjfc-32" style="edgeStyle=orthogonalEdgeStyle;rounded=0;orthogonalLoop=1;jettySize=auto;html=1;entryX=0;entryY=0.75;entryDx=0;entryDy=0;" edge="1" parent="1" source="_cskd8p5I6brAU5aOjfc-38" target="_cskd8p5I6brAU5aOjfc-44">
          <mxGeometry relative="1" as="geometry">
            <Array as="points">
              <mxPoint x="1350" y="1352" />
              <mxPoint x="1350" y="1469" />
              <mxPoint x="1650" y="1469" />
              <mxPoint x="1650" y="1467" />
            </Array>
          </mxGeometry>
        </mxCell>
        <mxCell id="_cskd8p5I6brAU5aOjfc-33" value="POST /&lt;span style=&quot;color: rgb(33, 33, 33); font-family: Inter, system-ui, -apple-system, BlinkMacSystemFont, &amp;quot;Segoe UI&amp;quot;, Roboto, Oxygen, Ubuntu, Cantarell, &amp;quot;Fira Sans&amp;quot;, &amp;quot;Droid Sans&amp;quot;, Helvetica, Arial, sans-serif; font-size: 12px; text-align: left; white-space: pre-wrap;&quot;&gt;createTransactionPayment&lt;/span&gt;" style="edgeLabel;html=1;align=center;verticalAlign=middle;resizable=0;points=[];" vertex="1" connectable="0" parent="_cskd8p5I6brAU5aOjfc-32">
          <mxGeometry x="0.4571" y="-1" relative="1" as="geometry">
            <mxPoint x="12" y="-10" as="offset" />
          </mxGeometry>
        </mxCell>
        <mxCell id="_cskd8p5I6brAU5aOjfc-34" style="edgeStyle=orthogonalEdgeStyle;rounded=0;orthogonalLoop=1;jettySize=auto;html=1;entryX=0;entryY=0.5;entryDx=0;entryDy=0;" edge="1" parent="1" source="_cskd8p5I6brAU5aOjfc-38" target="_cskd8p5I6brAU5aOjfc-47">
          <mxGeometry relative="1" as="geometry">
            <Array as="points">
              <mxPoint x="1388" y="1332" />
              <mxPoint x="1388" y="1280" />
            </Array>
          </mxGeometry>
        </mxCell>
        <mxCell id="_cskd8p5I6brAU5aOjfc-35" value="POST /reports-api/service.cgi&amp;nbsp;" style="edgeLabel;html=1;align=center;verticalAlign=middle;resizable=0;points=[];" vertex="1" connectable="0" parent="_cskd8p5I6brAU5aOjfc-34">
          <mxGeometry x="0.2819" y="1" relative="1" as="geometry">
            <mxPoint x="17" y="-7" as="offset" />
          </mxGeometry>
        </mxCell>
        <mxCell id="_cskd8p5I6brAU5aOjfc-36" style="edgeStyle=orthogonalEdgeStyle;rounded=0;orthogonalLoop=1;jettySize=auto;html=1;entryX=0;entryY=0.5;entryDx=0;entryDy=0;sourcePerimeterSpacing=20;" edge="1" parent="1" source="_cskd8p5I6brAU5aOjfc-38" target="_cskd8p5I6brAU5aOjfc-45">
          <mxGeometry relative="1" as="geometry">
            <Array as="points">
              <mxPoint x="1120" y="1402" />
              <mxPoint x="1300" y="1402" />
              <mxPoint x="1300" y="1509" />
            </Array>
          </mxGeometry>
        </mxCell>
        <mxCell id="_cskd8p5I6brAU5aOjfc-37" value="POST /&lt;span style=&quot;color: rgb(33, 33, 33); font-family: Inter, system-ui, -apple-system, BlinkMacSystemFont, &amp;quot;Segoe UI&amp;quot;, Roboto, Oxygen, Ubuntu, Cantarell, &amp;quot;Fira Sans&amp;quot;, &amp;quot;Droid Sans&amp;quot;, Helvetica, Arial, sans-serif; font-size: 12px; text-align: left; white-space: pre-wrap;&quot;&gt;GetTransactionInformation&lt;/span&gt;" style="edgeLabel;html=1;align=center;verticalAlign=middle;resizable=0;points=[];" vertex="1" connectable="0" parent="_cskd8p5I6brAU5aOjfc-36">
          <mxGeometry x="0.2442" y="2" relative="1" as="geometry">
            <mxPoint x="84" y="-8" as="offset" />
          </mxGeometry>
        </mxCell>
        <mxCell id="_cskd8p5I6brAU5aOjfc-72" style="edgeStyle=orthogonalEdgeStyle;rounded=0;orthogonalLoop=1;jettySize=auto;html=1;sourcePerimeterSpacing=20;" edge="1" parent="1" source="_cskd8p5I6brAU5aOjfc-38" target="_cskd8p5I6brAU5aOjfc-69">
          <mxGeometry relative="1" as="geometry" />
        </mxCell>
        <mxCell id="_cskd8p5I6brAU5aOjfc-38" value="MsPagos" style="shape=image;verticalLabelPosition=bottom;labelBackgroundColor=none;verticalAlign=top;aspect=fixed;imageAspect=0;editableCssRules=.*;image=data:image/svg+xml,PHN2ZyB4bWxuczp4bGluaz0iaHR0cDovL3d3dy53My5vcmcvMTk5OS94bGluayIgeG1sbnM9Imh0dHA6Ly93d3cudzMub3JnLzIwMDAvc3ZnIiB2ZXJzaW9uPSIxLjEiIHZpZXdCb3g9Ii0wLjUgLTAuNSA4MSA4MSIgaGVpZ2h0PSI4MSIgd2lkdGg9IjgxIj4mI3hhOyAgICA8dGl0bGU+SWNvbi1BcmNoaXRlY3R1cmUvNjQvQXJjaF9BbWF6b24tRUtTLUNsb3VkXzY0PC90aXRsZT4mI3hhOyAgICA8ZGVmcz4mI3hhOyAgICAgICAgPGxpbmVhckdyYWRpZW50IGlkPSJsaW5lYXJHcmFkaWVudC0xIiB5Mj0iMCUiIHgyPSIxMDAlIiB5MT0iMTAwJSIgeDE9IjAlIj4mI3hhOyAgICAgICAgICAgIDxzdG9wIG9mZnNldD0iMCUiIHN0b3AtY29sb3I9IiNDODUxMUIiLz4mI3hhOyAgICAgICAgICAgIDxzdG9wIG9mZnNldD0iMTAwJSIgc3RvcC1jb2xvcj0iI0ZGOTkwMCIvPiYjeGE7ICAgICAgICA8L2xpbmVhckdyYWRpZW50PiYjeGE7ICAgIDwvZGVmcz4mI3hhOyAgICA8ZyBmaWxsLXJ1bGU9ImV2ZW5vZGQiIGZpbGw9Im5vbmUiIHN0cm9rZS13aWR0aD0iMSIgc3Ryb2tlPSJub25lIiBpZD0iSWNvbi1BcmNoaXRlY3R1cmUvNjQvQXJjaF9BbWF6b24tRUtTLUNsb3VkXzY0Ij4mI3hhOyAgICAgICAgPGcgZmlsbD0idXJsKCNsaW5lYXJHcmFkaWVudC0xKSIgaWQ9IlJlY3RhbmdsZSI+JiN4YTsgICAgICAgICAgICA8cmVjdCBoZWlnaHQ9IjgwIiB3aWR0aD0iODAiIHk9IjAiIHg9IjAiLz4mI3hhOyAgICAgICAgPC9nPiYjeGE7ICAgICAgICA8ZyBmaWxsPSIjRkZGRkZGIiB0cmFuc2Zvcm09InRyYW5zbGF0ZSg4LjAwMDAwMCwgOC4wMDAwMDApIiBpZD0iSWNvbi1TZXJ2aWNlLzY0L0FtYXpvbi1FS1MtQ2xvdWRfNjQiPiYjeGE7ICAgICAgICAgICAgPHBhdGggaWQ9IkZpbGwtMSIgZD0iTTUzLjIzOSw1My4zNzcwMjYgTDMxLjczNyw1My4zNTUwMjYgQzI5LjEzMyw1My4zNTIwMjYgMjYuOTA2LDUxLjQxNjAyNiAyNi42NjcsNDguOTQ5MDI2IEMyNi42NDcsNDguNzQzMDI2IDI2LjYzNiw0OC41MjgwMjYgMjYuNjM2LDQ4LjMwNTAyNiBDMjYuNjM2LDQ0LjkyOTAyNiAyOC45NjgsNDMuNzk4MDI2IDMwLjM5MSw0My40MjIwMjYgQzMwLjg0OSw0My4zMjgwMjYgMzEuMTg5LDQyLjkyMjAyNiAzMS4xODksNDIuNDQxMDI2IEMzMS4xODksNDIuMzk0MDI2IDMxLjE4Niw0Mi4zNDcwMjYgMzEuMTc5LDQyLjMwMDAyNiBDMzEuMTQ1LDQyLjAwNDAyNiAzMS4xMjgsNDEuNzAyMDI2IDMxLjEyOCw0MS4zOTYwMjYgQzMxLjEyOCwzOC42MTMwMjYgMzMuMDQ2LDM1LjYyMTAyNiAzNS40OTQsMzQuNTg0MDI2IEMzOS43NDUsMzIuNzg2MDI2IDQyLjc1NCwzNS4xNTEwMjYgNDMuODUyLDM2LjI1MzAyNiBDNDQuNzUxLDM3LjE1NDAyNiA0NS40NTMsMzguMzA5MDI2IDQ1LjkzOCwzOS42ODQwMjYgQzQ2LjA2Miw0MC4wMzMwMjYgNDYuMzY4LDQwLjI4NjAyNiA0Ni43MzQsNDAuMzQwMDI2IEM0Ny4wOTcsNDAuMzk0MDI2IDQ3LjQ2Nyw0MC4yNDMwMjYgNDcuNjg2LDM5Ljk0NTAyNiBDNDguMzIyLDM5LjA4NTAyNiA0OS4zNTIsMzguNzA4MDI2IDUwLjMwNywzOC45ODgwMjYgQzUxLjQ3NywzOS4zMzAwMjYgNTIuMjUzLDQwLjU0MTAyNiA1Mi4zOTMsNDIuMjM4MDI2IEM1Mi4zNDIsNDIuNzU2MDI2IDUyLjcsNDMuMjMxMDI2IDUzLjIxOCw0My4zMjAwMjYgQzU0LjU4Nyw0My41NTYwMjYgNTcuNzY5LDQ0LjUxNzAyNiA1Ny43NjksNDguMzU2MDI2IEM1Ny43NjksNTIuODM5MDI2IDUzLjYyNiw1My4zMzgwMjYgNTMuMjM5LDUzLjM3NzAyNiBMNTMuMjM5LDUzLjM3NzAyNiBaIE0yOS40NDQsNTcuODYyMDI2IEw2LDQ1LjM5ODAyNiBMNiwxOC41NzAwMjYgTDI2LDYuNzUyMDI2MDQgTDI2LDE2LjQ1MTAyNiBMMTUuNDYzLDIzLjE1NjAyNiBDMTUuMTc1LDIzLjMzOTAyNiAxNSwyMy42NTgwMjYgMTUsMjQuMDAwMDI2IEwxNSw0MC4wMDAwMjYgQzE1LDQwLjM3MzAyNiAxNS4yMDgsNDAuNzE0MDI2IDE1LjUzOCw0MC44ODcwMjYgTDI0LjkwMSw0NS43NTgwMjYgTDI1LjA0LDQ1LjgzNTAyNiBDMjQuNzg0LDQ2LjU5MjAyNiAyNC42MzYsNDcuNDE1MDI2IDI0LjYzNiw0OC4zMDUwMjYgQzI0LjYzNiw0OC41OTQwMjYgMjQuNjUxLDQ4Ljg3MjAyNiAyNC42NzcsNDkuMTQwMDI2IEMyNS4wMTIsNTIuNjIxMDI2IDI4LjExMyw1NS4zNTEwMjYgMzEuNzM1LDU1LjM1NTAyNiBMMzMuOTgyLDU1LjM1NjAyNiBMMjkuNDQ0LDU3Ljg2MjAyNiBaIE00NC41MDQsMjMuMTM2MDI2IEwzMywxNi40MjUwMjYgTDMzLDYuNzUyMDI2MDQgTDUzLDE4LjU3MDAyNiBMNTMsMzguNDY3MDI2IEM1Mi40MzEsMzcuODAzMDI2IDUxLjcxNiwzNy4zMTYwMjYgNTAuODY4LDM3LjA2ODAyNiBDNDkuNjE2LDM2LjcwMzAyNiA0OC4zMDgsMzYuOTI2MDI2IDQ3LjI0NSwzNy42MzcwMjYgQzQ2LjcxOCwzNi41NjcwMjYgNDYuMDU2LDM1LjYzMTAyNiA0NS4yNjgsMzQuODQxMDI2IEM0NS4xODIsMzQuNzU1MDI2IDQ1LjA4OCwzNC42ODkwMjYgNDUsMzQuNjA2MDI2IEw0NSwyNC4wMDAwMjYgQzQ1LDIzLjY0NDAyNiA0NC44MTEsMjMuMzE1MDI2IDQ0LjUwNCwyMy4xMzYwMjYgTDQ0LjUwNCwyMy4xMzYwMjYgWiBNNTUsNDEuNzI2MDI2IEw1NSwxOC4wMDAwMjYgQzU1LDE3LjY0NjAyNiA1NC44MTMsMTcuMzE4MDI2IDU0LjUwOSwxNy4xMzkwMjYgTDMyLjUwOSw0LjEzOTAyNjA0IEMzMi4xOTksMy45NTYwMjYwNCAzMS44MTcsMy45NTQwMjYwNCAzMS41MDQsNC4xMzEwMjYwNCBDMzEuMTkyLDQuMzA5MDI2MDQgMzEsNC42NDEwMjYwNCAzMSw1LjAwMDAyNjA0IEwzMSwxNy4wMDAwMjYgQzMxLDE3LjM1NTAyNiAzMS4xODgsMTcuNjg0MDI2IDMxLjQ5NiwxNy44NjMwMjYgTDQzLDI0LjU3NDAyNiBMNDMsMzMuMTE4MDI2IEM0MC40ODMsMzEuNzE0MDI2IDM3LjUzNywzMS41NDgwMjYgMzQuNzE1LDMyLjc0MjAyNiBDMzMuNzI1LDMzLjE2MTAyNiAzMi44MjcsMzMuODI4MDI2IDMyLjAzNywzNC42MjkwMjYgTDI5LjAxMSwzMS4xMjAwMjYgTDM1Ljg0MiwyMy4xOTkwMjYgTDMzLjE4LDIzLjE5OTAyNiBMMjcsMzAuMDAwMDI2IEwyNywyMy4wMDAwMjYgTDI1LDIzLjAwMDAyNiBMMjUsNDAuMDAwMDI2IEwyNyw0MC4wMDAwMjYgTDI3LDMyLjAwMDAyNiBMMzAuNjgyLDM2LjMxMTAyNiBDMjkuNzE0LDM3Ljg0MTAyNiAyOS4xMjgsMzkuNjMzMDI2IDI5LjEyOCw0MS4zOTYwMjYgQzI5LjEyOCw0MS41MDUwMjYgMjkuMTMsNDEuNjE0MDI2IDI5LjEzMyw0MS43MjMwMjYgQzI3Ljc4NSw0Mi4yMTYwMjYgMjYuNzEyLDQzLjAyNzAyNiAyNS45NDYsNDQuMDczMDI2IEwxNywzOS4zOTMwMjYgTDE3LDI0LjU0ODAyNiBMMjcuNTM3LDE3Ljg0MzAyNiBDMjcuODI1LDE3LjY2MDAyNiAyOCwxNy4zNDEwMjYgMjgsMTcuMDAwMDI2IEwyOCw1LjAwMDAyNjA0IEMyOCw0LjY0MTAyNjA0IDI3LjgwNyw0LjMwOTAyNjA0IDI3LjQ5Niw0LjEzMTAyNjA0IEMyNy4xODMsMy45NTQwMjYwNCAyNi44MDIsMy45NTYwMjYwNCAyNi40OTEsNC4xMzkwMjYwNCBMNC40OTEsMTcuMTM5MDI2IEM0LjE4NiwxNy4zMTgwMjYgNCwxNy42NDYwMjYgNCwxOC4wMDAwMjYgTDQsNDYuMDAwMDI2IEM0LDQ2LjM2OTAyNiA0LjIwNCw0Ni43MDkwMjYgNC41Myw0Ni44ODIwMjYgTDI4Ljk4Myw1OS44ODIwMjYgQzI5LjEzMSw1OS45NjAwMjYgMjkuMjkyLDYwLjAwMDAyNiAyOS40NTMsNjAuMDAwMDI2IEMyOS42Miw2MC4wMDAwMjYgMjkuNzg2LDU5Ljk1ODAyNiAyOS45MzYsNTkuODc1MDI2IEwzOC4xMTQsNTUuMzYwMDI2IEw1My4zMTksNTUuMzc0MDI2IEM1NS41NTEsNTUuMTkyMDI2IDU5Ljc2OSw1My40OTIwMjYgNTkuNzY5LDQ4LjM1NjAyNiBDNTkuNzY5LDQ0LjY3ODAyNiA1Ny41MDUsNDIuNjAzMDI2IDU1LDQxLjcyNjAyNiBMNTUsNDEuNzI2MDI2IFoiLz4mI3hhOyAgICAgICAgPC9nPiYjeGE7ICAgIDwvZz4mI3hhOzwvc3ZnPg==;" vertex="1" parent="1">
          <mxGeometry x="1084.5" y="1321" width="41" height="41" as="geometry" />
        </mxCell>
        <mxCell id="_cskd8p5I6brAU5aOjfc-39" style="edgeStyle=orthogonalEdgeStyle;rounded=0;orthogonalLoop=1;jettySize=auto;html=1;" edge="1" parent="1" source="_cskd8p5I6brAU5aOjfc-41" target="_cskd8p5I6brAU5aOjfc-59">
          <mxGeometry relative="1" as="geometry">
            <Array as="points">
              <mxPoint x="1005" y="1968" />
            </Array>
          </mxGeometry>
        </mxCell>
        <mxCell id="_cskd8p5I6brAU5aOjfc-40" value="CDC" style="edgeLabel;html=1;align=center;verticalAlign=middle;resizable=0;points=[];labelBackgroundColor=none;" vertex="1" connectable="0" parent="_cskd8p5I6brAU5aOjfc-39">
          <mxGeometry x="-0.6994" y="3" relative="1" as="geometry">
            <mxPoint x="1" y="-4" as="offset" />
          </mxGeometry>
        </mxCell>
        <mxCell id="_cskd8p5I6brAU5aOjfc-41" value="DocumentDB" style="shape=image;verticalLabelPosition=bottom;labelBackgroundColor=none;verticalAlign=top;aspect=fixed;imageAspect=0;editableCssRules=.*;image=data:image/svg+xml,PHN2ZyB4bWxuczp4bGluaz0iaHR0cDovL3d3dy53My5vcmcvMTk5OS94bGluayIgeG1sbnM9Imh0dHA6Ly93d3cudzMub3JnLzIwMDAvc3ZnIiB2ZXJzaW9uPSIxLjEiIHZpZXdCb3g9Ii0wLjUgLTAuNSA4MSA4MSIgaGVpZ2h0PSI4MSIgd2lkdGg9IjgxIj4mI3hhOyAgICAmI3hhOyAgICA8dGl0bGU+SWNvbi1BcmNoaXRlY3R1cmUvNjQvQXJjaF9BbWF6b24tRG9jdW1lbnREQl82NDwvdGl0bGU+JiN4YTsgICAgPGRlc2M+Q3JlYXRlZCB3aXRoIFNrZXRjaC48L2Rlc2M+JiN4YTsgICAgPGRlZnM+JiN4YTsgICAgICAgIDxsaW5lYXJHcmFkaWVudCBpZD0ibGluZWFyR3JhZGllbnQtMSIgeTI9IjAlIiB4Mj0iMTAwJSIgeTE9IjEwMCUiIHgxPSIwJSI+JiN4YTsgICAgICAgICAgICA8c3RvcCBvZmZzZXQ9IjAlIiBzdG9wLWNvbG9yPSIjMkUyN0FEIi8+JiN4YTsgICAgICAgICAgICA8c3RvcCBvZmZzZXQ9IjEwMCUiIHN0b3AtY29sb3I9IiM1MjdGRkYiLz4mI3hhOyAgICAgICAgPC9saW5lYXJHcmFkaWVudD4mI3hhOyAgICA8L2RlZnM+JiN4YTsgICAgPGcgZmlsbC1ydWxlPSJldmVub2RkIiBmaWxsPSJub25lIiBzdHJva2Utd2lkdGg9IjEiIHN0cm9rZT0ibm9uZSIgaWQ9Ikljb24tQXJjaGl0ZWN0dXJlLzY0L0FyY2hfQW1hem9uLURvY3VtZW50REJfNjQiPiYjeGE7ICAgICAgICA8ZyBmaWxsPSJ1cmwoI2xpbmVhckdyYWRpZW50LTEpIiBpZD0iSWNvbi1BcmNoaXRlY3R1cmUtQkcvNjQvRGF0YWJhc2UiPiYjeGE7ICAgICAgICAgICAgPHJlY3QgaGVpZ2h0PSI4MCIgd2lkdGg9IjgwIiB5PSIwIiB4PSIwIiBpZD0iUmVjdGFuZ2xlIi8+JiN4YTsgICAgICAgIDwvZz4mI3hhOyAgICAgICAgPHBhdGggZmlsbD0iI0ZGRkZGRiIgaWQ9IkFtYXpvbi1Eb2N1bWVudERCX0ljb25fNjRfU3F1aWQiIGQ9Ik0zNC41LDEzLjk5MjgzMjggQzQ0LjgxMywxMy45OTI4MzI4IDUyLDE3LjE0MzUwMTQgNTIsMTkuOTcxMzMxMiBDNTIsMjIuNzk5MTYwOSA0NC44MTMsMjUuOTQ5ODI5NiAzNC41LDI1Ljk0OTgyOTYgQzI0LjE4NywyNS45NDk4Mjk2IDE3LDIyLjc5OTE2MDkgMTcsMTkuOTcxMzMxMiBDMTcsMTcuMTQzNTAxNCAyNC4xODcsMTMuOTkyODMyOCAzNC41LDEzLjk5MjgzMjggTDM0LjUsMTMuOTkyODMyOCBaIE0zNC4yOTUsNjcuMDA3MTY3MiBDMjQuMTAzLDY3LjAwNzE2NzIgMTcsNjMuNzg3NzQ1OCAxNyw2MC44OTkxMzQ3IEwxNyw1Mi4yMTIzNzY1IEMyMC4xMjEsNTQuODI0OTgwMyAyNi40NzIsNTYuNTM4ODE2NSAzNC4xNjEsNTYuNTM4ODE2NSBDMzUuOTM0LDU2LjUzODgxNjUgMzcuNzE4LDU2LjQ0MDE3MTMgMzkuNDY1LDU2LjI0Njg2NjUgTDM5LjI0NCw1NC4yNjU5OTA3IEMzNy41Nyw1NC40NTEzMjQyIDM1Ljg1OSw1NC41NDU5ODM3IDM0LjE2MSw1NC41NDU5ODM3IEMyNC42NDYsNTQuNTQ1OTgzNyAxNy44Myw1MS43MjQxMzI1IDE3LDQ4Ljk5Mjk1NTIgTDE3LDM4LjI1NTU3MjEgQzIwLjEyMSw0MC44NjgxNzU5IDI2LjQ3Miw0Mi41ODEwMTU2IDM0LjE2MSw0Mi41ODEwMTU2IEMzNS45NzEsNDIuNTgxMDE1NiAzNy43NTcsNDIuNDgxMzc0IDM5LjQ2OSw0Mi4yODQwODM2IEwzOS4yNCw0MC4zMDUyMDA2IEMzNy42MDMsNDAuNDkzNTIzMyAzNS44OTUsNDAuNTg4MTgyOSAzNC4xNjEsNDAuNTg4MTgyOSBDMjQuNjQ2LDQwLjU4ODE4MjkgMTcuODMsMzcuNzY3MzI4IDE3LDM1LjAzNjE1MDcgTDE3LDIzLjU1NDQ0NDUgQzE5Ljg3OSwyNi4wMTI2MDM4IDI1LjgxOCwyNy45NDI2NjI0IDM0LjUsMjcuOTQyNjYyNCBDNDMuMTgyLDI3Ljk0MjY2MjQgNDkuMTIxLDI2LjAxMjYwMzggNTIsMjMuNTU0NDQ0NSBMNTIsMjYuOTQ2MjQ2IEw1NCwyNi45NDYyNDYgTDU0LDE5Ljk3MTMzMTIgQzU0LDE2LjEwNzIyODQgNDcuMTY2LDEyIDM0LjUsMTIgQzIxLjgzNCwxMiAxNSwxNi4xMDcyMjg0IDE1LDE5Ljk3MTMzMTIgTDE1LDYwLjg5OTEzNDcgQzE1LDY1LjUxNjUyODMgMjMuMjk1LDY5IDM0LjI5NSw2OSBDNDMuMTMsNjkgNTAuNTkyLDY2LjY2OTM4MiA1Mi44NjMsNjMuMjAxODUzIEw1MS4xODcsNjIuMTEyNzY5OSBDNDkuNTk1LDY0LjU0NTAyMjMgNDMuMjgxLDY3LjAwNzE2NzIgMzQuMjk1LDY3LjAwNzE2NzIgTDM0LjI5NSw2Ny4wMDcxNjcyIFogTTU4LjIwNyw0Mi4xNjc1MDI4IEM1OC43Nyw0Mi4xNjc1MDI4IDU5LjI2Nyw0Mi4zOTE2OTY1IDU5LjYwNiw0Mi44MDAyMjczIEM2MC4yMyw0My41NDc1Mzk2IDYwLjEyOSw0NC42Nzk0Njg2IDYwLjA2OCw0NS4wODAwMjggQzYwLjA5Nyw0Ny4xODY0NTIyIDYxLjI2LDQ3LjU5Nzk3MjIgNjEuMzk1LDQ3LjYzODgyNTMgQzYxLjgyNSw0Ny43NjgzNTk0IDYyLjEyOCw0OC4xNzE5MDggNjIuMTE3LDQ4LjYyMDI5NTQgQzYyLjEwNiw0OS4wNjg2ODI4IDYxLjgwOSw0OS40NTcyODUyIDYxLjM3Miw0OS41NjU4OTQ2IEM2MS4yNTksNDkuNjAwNzY5MiA2MC4wNjcsNTAuMDIyMjUzMyA2MC4wNjcsNTIuMTk2NDMzOSBDNjAuMDksNTMuMzY5MjE2IDU5LjUyNyw1NC42Njk1Mzk0IDU4LjIzNyw1NC43MDgzOTk2IEw1Ny40NjksNTQuNzA4Mzk5NiBMNTcuNDY5LDUyLjcxNTU2NjggTDU3Ljk5Nyw1Mi43MTU1NjY4IEM1OC4wMzcsNTIuNTgzMDQzNCA1OC4wNjgsNTIuMzc0NzkyNCA1OC4wNjcsNTIuMjEwMzgzNyBDNTguMDY3LDUwLjM5MTkyMzggNTguNjc3LDQ5LjI3NDk0MSA1OS4zMjksNDguNjAwMzY3MSBDNTguNjc3LDQ3LjkyNjc4OTYgNTguMDY3LDQ2LjgxMjc5NjEgNTguMDY3LDQ1LjAwMTMxMTEgQzU4LjA2Nyw0NC45NDA1Mjk3IDU4LjA3Myw0NC44Nzg3NTE5IDU4LjA4NCw0NC44MTg5NjY5IEM1OC4xMjIsNDQuNjA0NzM3MyA1OC4xMjIsNDQuMzIzNzQ3OSA1OC4wOSw0NC4xNjAzMzU2IEw1Ny40NjksNDQuMTYwMzM1NiBMNTcuNDY5LDQyLjE2NzUwMjggTDU4LjIwNyw0Mi4xNjc1MDI4IFogTTUzLjUyNyw0Mi4xNjc1MDI4IEw1NC4yOTYsNDIuMTY3NTAyOCBMNTQuMjk2LDQ0LjE2MDMzNTYgTDUzLjc2OSw0NC4xNjAzMzU2IEM1My43MjgsNDQuMjkyODU5IDUzLjY5Nyw0NC41MDExMSA1My42OTgsNDQuNjY1NTE4NyBDNTMuNjk4LDQ2LjQ4Mzk3ODcgNTMuMDg5LDQ3LjYwMDk2MTUgNTIuNDM3LDQ4LjI3NTUzNTQgQzUzLjA4OSw0OC45NDkxMTI4IDUzLjY5OCw1MC4wNjMxMDY0IDUzLjY5OCw1MS44NzQ1OTE0IEM1My42OTgsNTEuOTM2MzY5MiA1My42OTIsNTEuOTk3MTUwNiA1My42ODIsNTIuMDU2OTM1NiBDNTMuNjQ0LDUyLjI3MTE2NTEgNTMuNjQ0LDUyLjU1MjE1NDUgNTMuNjc2LDUyLjcxNTU2NjggTDU0LjI5Niw1Mi43MTU1NjY4IEw1NC4yOTYsNTQuNzA4Mzk5NiBMNTMuNTU4LDU0LjcwODM5OTYgQzUyLjk5NSw1NC43MDgzOTk2IDUyLjQ5OCw1NC40ODQyMDU5IDUyLjE1OCw1NC4wNzY2NzE2IEM1MS41MzUsNTMuMzI5MzU5MyA1MS42MzcsNTIuMTk3NDMwMyA1MS42OTcsNTEuNzk1ODc0NSBDNTEuNjY5LDQ5LjY5MDQ0NjYgNTAuNTA1LDQ5LjI3NzkzMDMgNTAuMzcsNDkuMjM4MDczNiBDNDkuOTM5LDQ5LjEwNzU0MyA0OS42MzcsNDguNzAzOTk0NCA0OS42NDcsNDguMjU1NjA3IEM0OS42NTgsNDcuODA4MjE2MSA0OS45NTYsNDcuNDE4NjE3MyA1MC4zOTMsNDcuMzEwMDA3OSBDNTAuNTA3LDQ3LjI3NTEzMzMgNTEuNjk4LDQ2Ljg1MzY0OTIgNTEuNjk4LDQ0LjY3OTQ2ODYgQzUxLjY3NSw0My41MDc2ODI5IDUyLjIzNyw0Mi4yMDYzNjMxIDUzLjUyNyw0Mi4xNjc1MDI4IEw1My41MjcsNDIuMTY3NTAyOCBaIE02NCw1OC44MzE1NzA3IEw0Nyw1OC44MzE1NzA3IEw0NywzNC45MTc1NzcxIEw1OCwzNC45MTc1NzcxIEw1OCwzOC45MDMyNDI3IEM1OCwzOS40NTMyNjQ2IDU4LjQ0NywzOS44OTk2NTkxIDU5LDM5Ljg5OTY1OTEgTDY0LDM5Ljg5OTY1OTEgTDY0LDU4LjgzMTU3MDcgWiBNNjAsMzQuOTE3NTc3MSBMNjAuMjQ1LDM0LjkxNzU3NzEgTDYzLjI2OCwzNy45MDY4MjYzIEw2MCwzNy45MDY4MjYzIEw2MCwzNC45MTc1NzcxIFogTTY1LjcwNCwzNy41MDgyNTk4IEw2MS4zNjEsMzMuMjEzNzA1MSBDNjEuMTc1LDMzLjAyODM3MTYgNjAuOTIxLDMyLjkyNDc0NDMgNjAuNjU3LDMyLjkyNDc0NDMgTDYwLDMyLjkyNDc0NDMgTDU5LjYzNSwzMi45MjQ3NDQzIEw1Ni41NDgsMjkuMjkxODEwMiBDNTYuMzU3LDI5LjA2NzYxNjUgNTYuMDc4LDI4LjkzOTA3ODggNTUuNzg0LDI4LjkzOTA3ODggTDQyLDI4LjkzOTA3ODggQzQxLjQ0NywyOC45MzkwNzg4IDQxLDI5LjM4NTQ3MzMgNDEsMjkuOTM1NDk1MSBMNDEsNTUuODQyMzIxNSBDNDEsNTYuMzkyMzQzMyA0MS40NDcsNTYuODM4NzM3OSA0Miw1Ni44Mzg3Mzc5IEw0NCw1Ni44Mzg3Mzc5IEw0NCw1NC44NDU5MDUxIEw0Myw1NC44NDU5MDUxIEw0MywzMC45MzE5MTE1IEw1NS4zMiwzMC45MzE5MTE1IEw1Ny4wMTQsMzIuOTI0NzQ0MyBMNDYsMzIuOTI0NzQ0MyBDNDUuNDQ3LDMyLjkyNDc0NDMgNDUsMzMuMzcxMTM4OSA0NSwzMy45MjExNjA3IEw0NSw1OS44Mjc5ODcxIEM0NSw2MC4zNzgwMDg5IDQ1LjQ0Nyw2MC44MjQ0MDM1IDQ2LDYwLjgyNDQwMzUgTDY1LDYwLjgyNDQwMzUgQzY1LjU1Myw2MC44MjQ0MDM1IDY2LDYwLjM3ODAwODkgNjYsNTkuODI3OTg3MSBMNjYsMzguMjE1NzE1NCBDNjYsMzcuOTQ5NjcyMiA2NS44OTQsMzcuNjk1NTg2MSA2NS43MDQsMzcuNTA4MjU5OCBMNjUuNzA0LDM3LjUwODI1OTggWiIvPiYjeGE7ICAgIDwvZz4mI3hhOzwvc3ZnPg==;" vertex="1" parent="1">
          <mxGeometry x="980" y="1651" width="51" height="51" as="geometry" />
        </mxCell>
        <mxCell id="_cskd8p5I6brAU5aOjfc-42" value="" style="shape=image;verticalLabelPosition=bottom;labelBackgroundColor=default;verticalAlign=top;aspect=fixed;imageAspect=0;image=data:image/webp,UklGRpIKAABXRUJQVlA4TIYKAAAvf8AfEFWHgbRtWv+2z/s7iIgJ4N/0a1HBCJAspvmAay1700in2v5XciPmwqFq+zlzv2/COdsKWprZe+8//PofCWcPCjFQ73JbV6qnNokIY4/aoWEIC8BVBmAMRpCzwQiAKWzvMMddWhjXoVTnnM3AvSrhMRHXsROLnwMJpXIYOJULY4/b5SAEC8EEXKl1IKHOMGIlMHOGiUmoMwOXcY56p9FxDgxi5c5RJMmy8pGGCU7/xvqqir8p+NhALaRIkhxJe8yPjO5Njz39XQLHCQ4AAAST2ba37Lr6bNu+bby267Jt27Zt23YTQCn6//dz4l9N77333kt67703yrf8vskvOhj+EjIrAQU5xQrdRzYKctszHZyAg1igrwCKgJhIcICGfs9tr38ZsRAFaKjLuTvIWgALKwEcdA1ICAZ2PpM4oN47EpAQC0wkxAAl5YWUrAM8ZCIhEigWcNAchHVA55rBQQcFTcKKwEA/7w1iAAAEkw6ebdu2bdu2lW3bchgAANHs/2Oybds127b7PwEa5IrLA7AMYZQR4UWWBFXTDVDLxBnsDvVC/dthw83rviaq5o5NFoZlCI9UxPo4bDQbKo1sDHmynO+GjVKp+GZd+b6y4jZ23hGJ6XXJNs05bANJIXTHlz94pErngf2PFKEezVPiAVZ45rL/PzQ+5XViqFjUhXk91a2+JhMXmBJZM+rP/KcboTMexWJUGcyheQuUmoWZjqIAbvp0MxYwMj0ZXoUjQbRY4FB3QrJh1d7fqDnUtwVP9oWKKx0HGVCFaVG7FkXYdrKkEco7l9L9WiQLKnNjEFUmj6xYRGFLRwcAZ3+YRZV4Q7n6Vrod8JUWXShx6e8C8qpNVFqEkbp3PCp5MHSdFmWob3x+wnlTfb7Q5y3SHyVE84Sfm+ATizaxNe1Fafmj7rKIk+2U/GF4cMq8RR1a5HYjODuW6rLIz/7l6LlTLfqo+uvcrBEBW04IB5OweMbBp8irCEZ2Qz+4ub1ztgkJmxjkRWWYmJfm9EMhRwFSzWXjnyYoanWQB1mSiYoKygEkdYwsyGs5/GxUuwk7k+kFE5deNTOMqCl5XstQGcxNYHJVTveZCP3qvQPWWjB0PLV5N9UPJuKY7Q0w6eJsY4kU09wu02SKxwoZRm9vgEnnJ6sC601kopbJmK3S+zf6XV1lvnhAezhkPN22bVufUjsMCCqGippgQHcuhFriDtGm8kTN7kGzNSZoqTfSpQlljXWa0RXLBctvMnbeER/IBd23Gzoml/3Q0BWlfdbHW5l6d4tC44bNDTslCAGAo7fWaOf9/WtSpXg8VlXvNAmjsQTGSWcnL5bsmKqUbapIOFpfaE+9uc79+2MMTH96jN3fVceLWALpgzyDPfHsFICZb+9B3VEUErVKF0pjD3Zzf3/dEgFDclRGs7LFE8csVbtp1k88O+J1zve3JxQALGjtAbTDpjObGBw5+/0N3SKSxOQCTmDJqq+naSh1cDhsNg8FQQtYXbZGP+/3Fw6BLYpsHjo538k+7VHPaaY93F3Qp9JdwPo1+gaOsygPpqYlTvqjqkfU0s77bwEjN1aJNCaeTOszJEpDoZn9+VE6kznCws1OWZMKoNDiiuXLE44PAIMH44XCjOenaZG3F5LyzlRgcmzkuG5gT68hHAxFIrEwMOQf3v13//6Rq+Wst1frjKdHkzfEjSzJiXQAxBEpWT64P162qTUAtEy+uryUb3LCQJDydF2uqctUKTzRQ7DQ5tXn6up4EQFH5oeaLlHEKVn8jJv9nUC7VIZTrKfcXLNVhoiMWC1h7s/vdLvyYAIUu0JfPIAMupHpT08gjS9JdSy3o+VkkT6lDrDBbtzhHsiUab6YPcfRHs3SnheHLxeXdLW1tQ0ZTZoB5nx9Y/GkXAOMP9xbhcOQt+Ctlb6AFokzN/EUBuBpsc4z2F1ATaqUlWuh816bpcAy8QV00nfTUGwrx9lJbboCRm2tRT4G8g22TU2yBNb4Y3iuk3SR3AhMvb2Jxyy5BmwR2Qz0bw5sRm2sgGyV7g/klfpxECywuLM/PgD1+cZLmkACptxcRVL5ErDJovcICKz3x1XZBjT7HfqmtkWoV0ejMUehQPACYJWpHRh/dBCfnJvJ8wH//5NF/+8q/WU6GTqZAaXu0HQf8IxP5vqOWko9kagJVGZgZ3gB1spOYKtpK5CrNX0yhJ26GXewO1zUYoffiEdlMTDr/b1CF/wIvo5CYT4hjtdl2rvNfOiXKVwhKOpDXwO0tGqPMEgzcKbuV+AXUfvVe/MlXay4IRZg/ZlOFu8RCHTmyxOYfH3JUurvi/ZwU/9GH9isK3YGQN9aT1ObqUxxRMqiKpabEumsG1jPjAd3Am/EYHExWjwELNENbA+AfKOjaTJtNIUBwYmnR9O3bh4gS/LgD2CjOHizExojYIhmyvUFuFiTzOZN835/FcHkBs0hwxcLjOeL2xbh5cES4FGLXcBpivwPPK9cDEy+PIt+kwFmvLz+aCi2axJF30p39Pa6EXNttnZ0AcrIg+HzObDaYh+wTFOXrYH3lIeAewz3WXie8/OLJVKOOmUIe7Aa6P7XsPI0oE+5ozkc6A4DQyIyZDgBCq2uYV+PszPEMf3gjlCP7ha3ABNOj5+EgiARCQUA7buBr+/SBKfd34Fv7pDDG4GbDZLCE9c52rvPUX+0ZLoAYKPupKHQoJ7Y2tq6DnVgeyD6mnQFMP3hflgAaBbLXL11opPzLxbHdMOqL3rQu02xHLm+et/w71+YB3ZHNnLmIw4ejoAj4hpKVL0izU3ALhcSbOq2mPn6qgynvWL+82rT2VYSDoWrYvlHHnZfK+4PUt2QJoHClLiCjmvF8YrDC21+h1pk807oFevlbWO2N+OPDnuBwL12IivurooXfavdbdpB/fGHpZ4ojkTJ/Nyrqm+mCPRsYOzeVvx6jqrqi6H9D5QHE9/AEhoI3cAuBdb965snGsaXP3g/qE/2AE+JX7e0GxRWGEwIAIxGY5lStWstcMRy35DlatNkYRhKsAf9TvEtvOk0W359hBBngcha3Qbx7e5BM0XFhjJ4MFbO/0n8Sxa5ZLoAJqx6RItA7m3b2JHM5i3g4tiJFGoNxPewJk25KBO5KqfReYk+1tTPSMQYpFOySXkeHWWYlGdRs74hDVShmX8hPmVBnurjsL1pSxaUvzosHQcJ25bknEEeuljI8d8mzfdFOY7SnP86WQpifJCXVl+TOUwG1HWy4Gj+BxUSFBWOibqEEiWgotVp78T4EeU9NzpAOmJH9P6lriv3T+xHcUOm96j72vuFsitmf/6sPk7vjNfOU9RPFPnZWL26VX3dsyNOJ43PTzj1t30gRnS1Y+cdoT73WkVsirN66vkPU3G5frv6//j6mOyf1hAXiND/YlF0BxooSPWcOMCWNmm4C3A+d4eHvE61NegNSFFor9Teh6fBP4EaCunZRY1i5UNlRyj7t2s0kyWFq6gf/wqom85Yo0o/uGQhyKFfxNml72l0Fzqw/C2+DGF5kwsa53ZS2mRJqFV350CJP7Q16ns5Zrl2Xz+v/vq1IIufVcbpFyh3svgTZ6HFR4bIk9ndw0dumz1AFn9Bpxy+hgk=;" vertex="1" parent="1">
          <mxGeometry x="1600" y="1170" width="28" height="28" as="geometry" />
        </mxCell>
        <mxCell id="_cskd8p5I6brAU5aOjfc-43" value="&lt;span style=&quot;color: rgb(33, 33, 33); font-family: Inter, system-ui, -apple-system, BlinkMacSystemFont, &amp;quot;Segoe UI&amp;quot;, Roboto, Oxygen, Ubuntu, Cantarell, &amp;quot;Fira Sans&amp;quot;, &amp;quot;Droid Sans&amp;quot;, Helvetica, Arial, sans-serif; text-align: left; white-space-collapse: preserve; background-color: rgb(255, 255, 255);&quot;&gt;Token&lt;/span&gt;" style="rounded=1;whiteSpace=wrap;html=1;" vertex="1" parent="1">
          <mxGeometry x="1651.5" y="1405" width="107" height="27.5" as="geometry" />
        </mxCell>
        <mxCell id="_cskd8p5I6brAU5aOjfc-44" value="&lt;span style=&quot;color: rgb(33, 33, 33); font-family: Inter, system-ui, -apple-system, BlinkMacSystemFont, &amp;quot;Segoe UI&amp;quot;, Roboto, Oxygen, Ubuntu, Cantarell, &amp;quot;Fira Sans&amp;quot;, &amp;quot;Droid Sans&amp;quot;, Helvetica, Arial, sans-serif; text-align: left; white-space-collapse: preserve; background-color: rgb(255, 255, 255);&quot;&gt;Crear Tx&lt;/span&gt;" style="rounded=1;whiteSpace=wrap;html=1;" vertex="1" parent="1">
          <mxGeometry x="1651.5" y="1446.75" width="107" height="27.5" as="geometry" />
        </mxCell>
        <mxCell id="_cskd8p5I6brAU5aOjfc-45" value="&lt;span style=&quot;color: rgb(33, 33, 33); font-family: Inter, system-ui, -apple-system, BlinkMacSystemFont, &amp;quot;Segoe UI&amp;quot;, Roboto, Oxygen, Ubuntu, Cantarell, &amp;quot;Fira Sans&amp;quot;, &amp;quot;Droid Sans&amp;quot;, Helvetica, Arial, sans-serif; text-align: left; white-space-collapse: preserve; background-color: rgb(255, 255, 255);&quot;&gt;Consultar Tx&lt;/span&gt;" style="rounded=1;whiteSpace=wrap;html=1;" vertex="1" parent="1">
          <mxGeometry x="1649.5" y="1494" width="103.5" height="27.5" as="geometry" />
        </mxCell>
        <mxCell id="_cskd8p5I6brAU5aOjfc-46" value="&lt;span style=&quot;color: rgb(33, 33, 33); font-family: Inter, system-ui, -apple-system, BlinkMacSystemFont, &amp;quot;Segoe UI&amp;quot;, Roboto, Oxygen, Ubuntu, Cantarell, &amp;quot;Fira Sans&amp;quot;, &amp;quot;Droid Sans&amp;quot;, Helvetica, Arial, sans-serif; text-align: left; white-space-collapse: preserve; background-color: rgb(255, 255, 255);&quot;&gt;Crear Tx&lt;/span&gt;" style="rounded=1;whiteSpace=wrap;html=1;" vertex="1" parent="1">
          <mxGeometry x="1649.5" y="1221.25" width="110.5" height="27.5" as="geometry" />
        </mxCell>
        <mxCell id="_cskd8p5I6brAU5aOjfc-47" value="&lt;span style=&quot;color: rgb(33, 33, 33); font-family: Inter, system-ui, -apple-system, BlinkMacSystemFont, &amp;quot;Segoe UI&amp;quot;, Roboto, Oxygen, Ubuntu, Cantarell, &amp;quot;Fira Sans&amp;quot;, &amp;quot;Droid Sans&amp;quot;, Helvetica, Arial, sans-serif; text-align: left; white-space-collapse: preserve; background-color: rgb(255, 255, 255);&quot;&gt;Consultar Tx&lt;/span&gt;" style="rounded=1;whiteSpace=wrap;html=1;" vertex="1" parent="1">
          <mxGeometry x="1650.5" y="1266.25" width="107" height="27.5" as="geometry" />
        </mxCell>
        <mxCell id="_cskd8p5I6brAU5aOjfc-48" value="" style="shape=image;verticalLabelPosition=bottom;labelBackgroundColor=default;verticalAlign=top;aspect=fixed;imageAspect=0;image=https://cdn0.iconfinder.com/data/icons/font-awesome-brands-vol-1/640/aws-64.png;" vertex="1" parent="1">
          <mxGeometry x="850" y="1192" width="32" height="32" as="geometry" />
        </mxCell>
        <mxCell id="_cskd8p5I6brAU5aOjfc-49" value="Reservar Puntos" style="rounded=1;whiteSpace=wrap;html=1;" vertex="1" parent="1">
          <mxGeometry x="150" y="1351.5" width="100" height="40.5" as="geometry" />
        </mxCell>
        <mxCell id="_cskd8p5I6brAU5aOjfc-50" value="Confirmar Puntos" style="rounded=1;whiteSpace=wrap;html=1;" vertex="1" parent="1">
          <mxGeometry x="150" y="1407.5" width="100" height="40.5" as="geometry" />
        </mxCell>
        <mxCell id="_cskd8p5I6brAU5aOjfc-51" value="Devolver Puntos" style="rounded=1;whiteSpace=wrap;html=1;" vertex="1" parent="1">
          <mxGeometry x="150" y="1471.5" width="100" height="40.5" as="geometry" />
        </mxCell>
        <mxCell id="_cskd8p5I6brAU5aOjfc-52" value="" style="shape=image;verticalLabelPosition=bottom;labelBackgroundColor=default;verticalAlign=top;aspect=fixed;imageAspect=0;image=https://cdn0.iconfinder.com/data/icons/font-awesome-brands-vol-1/640/aws-64.png;" vertex="1" parent="1">
          <mxGeometry x="170.16999999999996" y="1682" width="32" height="32" as="geometry" />
        </mxCell>
        <mxCell id="_cskd8p5I6brAU5aOjfc-53" style="edgeStyle=orthogonalEdgeStyle;rounded=0;orthogonalLoop=1;jettySize=auto;html=1;entryX=0;entryY=0.75;entryDx=0;entryDy=0;" edge="1" parent="1" source="_cskd8p5I6brAU5aOjfc-57" target="_cskd8p5I6brAU5aOjfc-21">
          <mxGeometry relative="1" as="geometry">
            <Array as="points">
              <mxPoint x="425" y="1662" />
              <mxPoint x="730" y="1662" />
              <mxPoint x="730" y="1352" />
            </Array>
          </mxGeometry>
        </mxCell>
        <mxCell id="_cskd8p5I6brAU5aOjfc-54" value="GET /Payments" style="edgeLabel;html=1;align=center;verticalAlign=middle;resizable=0;points=[];" vertex="1" connectable="0" parent="_cskd8p5I6brAU5aOjfc-53">
          <mxGeometry x="-0.2957" y="-4" relative="1" as="geometry">
            <mxPoint x="12" y="-14" as="offset" />
          </mxGeometry>
        </mxCell>
        <mxCell id="_cskd8p5I6brAU5aOjfc-55" style="edgeStyle=orthogonalEdgeStyle;rounded=0;orthogonalLoop=1;jettySize=auto;html=1;entryX=0;entryY=0.5;entryDx=0;entryDy=0;" edge="1" parent="1" source="_cskd8p5I6brAU5aOjfc-57" target="_cskd8p5I6brAU5aOjfc-41">
          <mxGeometry relative="1" as="geometry">
            <Array as="points">
              <mxPoint x="820" y="1852" />
              <mxPoint x="820" y="1676" />
            </Array>
          </mxGeometry>
        </mxCell>
        <mxCell id="_cskd8p5I6brAU5aOjfc-56" style="edgeStyle=orthogonalEdgeStyle;rounded=0;orthogonalLoop=1;jettySize=auto;html=1;targetPerimeterSpacing=20;" edge="1" parent="1" source="_cskd8p5I6brAU5aOjfc-57" target="_cskd8p5I6brAU5aOjfc-21">
          <mxGeometry relative="1" as="geometry">
            <Array as="points">
              <mxPoint x="760" y="1842" />
              <mxPoint x="760" y="1472" />
              <mxPoint x="880" y="1472" />
            </Array>
          </mxGeometry>
        </mxCell>
        <mxCell id="_cskd8p5I6brAU5aOjfc-57" value="Sonda Pagos API" style="shape=image;verticalLabelPosition=bottom;labelBackgroundColor=none;verticalAlign=top;aspect=fixed;imageAspect=0;image=https://icon.icepanel.io/AWS/svg/Containers/Fargate.svg;" vertex="1" parent="1">
          <mxGeometry x="404.66999999999996" y="1822" width="40" height="40" as="geometry" />
        </mxCell>
        <mxCell id="_cskd8p5I6brAU5aOjfc-58" style="edgeStyle=orthogonalEdgeStyle;rounded=0;orthogonalLoop=1;jettySize=auto;html=1;sourcePerimeterSpacing=20;exitX=0;exitY=0.5;exitDx=0;exitDy=0;targetPerimeterSpacing=20;" edge="1" parent="1" source="_cskd8p5I6brAU5aOjfc-59" target="_cskd8p5I6brAU5aOjfc-57">
          <mxGeometry relative="1" as="geometry">
            <Array as="points" />
          </mxGeometry>
        </mxCell>
        <mxCell id="_cskd8p5I6brAU5aOjfc-59" value="SQS" style="shape=image;verticalLabelPosition=bottom;labelBackgroundColor=none;verticalAlign=top;aspect=fixed;imageAspect=0;editableCssRules=.*;image=data:image/svg+xml,PHN2ZyB4bWxuczp4bGluaz0iaHR0cDovL3d3dy53My5vcmcvMTk5OS94bGluayIgeG1sbnM9Imh0dHA6Ly93d3cudzMub3JnLzIwMDAvc3ZnIiB2ZXJzaW9uPSIxLjEiIHZpZXdCb3g9Ii0wLjUgLTAuNSA4MSA4MSIgaGVpZ2h0PSI4MSIgd2lkdGg9IjgxIj4mI3hhOyAgICAmI3hhOyAgICA8dGl0bGU+SWNvbi1BcmNoaXRlY3R1cmUvNjQvQXJjaF9BV1MtU2ltcGxlLVF1ZXVlLVNlcnZpY2VfNjQ8L3RpdGxlPiYjeGE7ICAgIDxkZXNjPkNyZWF0ZWQgd2l0aCBTa2V0Y2guPC9kZXNjPiYjeGE7ICAgIDxkZWZzPiYjeGE7ICAgICAgICA8bGluZWFyR3JhZGllbnQgaWQ9ImxpbmVhckdyYWRpZW50LTEiIHkyPSIwJSIgeDI9IjEwMCUiIHkxPSIxMDAlIiB4MT0iMCUiPiYjeGE7ICAgICAgICAgICAgPHN0b3Agb2Zmc2V0PSIwJSIgc3RvcC1jb2xvcj0iI0IwMDg0RCIvPiYjeGE7ICAgICAgICAgICAgPHN0b3Agb2Zmc2V0PSIxMDAlIiBzdG9wLWNvbG9yPSIjRkY0RjhCIi8+JiN4YTsgICAgICAgIDwvbGluZWFyR3JhZGllbnQ+JiN4YTsgICAgPC9kZWZzPiYjeGE7ICAgIDxnIGZpbGwtcnVsZT0iZXZlbm9kZCIgZmlsbD0ibm9uZSIgc3Ryb2tlLXdpZHRoPSIxIiBzdHJva2U9Im5vbmUiIGlkPSJJY29uLUFyY2hpdGVjdHVyZS82NC9BcmNoX0FXUy1TaW1wbGUtUXVldWUtU2VydmljZV82NCI+JiN4YTsgICAgICAgIDxnIGZpbGw9InVybCgjbGluZWFyR3JhZGllbnQtMSkiIGlkPSJJY29uLUFyY2hpdGVjdHVyZS1CRy82NC9BcHBsaWNhdGlvbi1JbnRlZ3JhdGlvbiI+JiN4YTsgICAgICAgICAgICA8cmVjdCBoZWlnaHQ9IjgwIiB3aWR0aD0iODAiIHk9IjAiIHg9IjAiIGlkPSJSZWN0YW5nbGUiLz4mI3hhOyAgICAgICAgPC9nPiYjeGE7ICAgICAgICA8cGF0aCBmaWxsPSIjRkZGRkZGIiBpZD0iQVdTLVNpbXBsZS1RdWV1ZS1TZXJ2aWNlX0ljb25fNjRfU3F1aWQiIGQ9Ik0yOC43MTY5OTY2LDQzLjY4NzY3NTYgTDMxLjcxODkyNjUsNDAuNzIxODI2IEMzMS45MDcwNDc0LDQwLjUzNTkwMTEgMzIuMDEzMTE1Niw0MC4yODMzNjE0IDMyLjAxNDEyMzMsNDAuMDE5ODg1IEMzMi4wMTUxMTY5LDM5Ljc1NjQwODYgMzEuOTEwMDQ5MywzOS41MDI4NzQ3IDMxLjcyMjkyOSwzOS4zMTU5NTU2IEwyOC43MjA5OTkyLDM2LjMxNjMwMTQgTDI3LjMwMjA4NzEsMzcuNzE4MTk0OCBMMjguNTg5OTE0OSwzOS4wMDU3NDk0IEwyNC4wMDg5NzAxLDM5LjAwNTc0OTQgTDI0LjAwODk3MDEsNDAuOTk0MjUwNiBMMjguNjA1OTI1Miw0MC45OTQyNTA2IEwyNy4zMDYwODk2LDQyLjI3NzgyODIgTDI4LjcxNjk5NjYsNDMuNjg3Njc1NiBaIE01MS42Mjc3MjUsNDMuNzc4MTUyNCBMNTUuNjMwMjk4LDQwLjc5MzQxMiBDNTUuODgwNDU4OSw0MC42MDU0OTg2IDU2LjAyOTU1NDcsNDAuMzExMjAwNCA1Ni4wMjk1NTQ3LDM5Ljk5OTAwNTcgQzU2LjAyOTU1NDcsMzkuNjg1ODE2OCA1NS44ODA0NTg5LDM5LjM5MDUyNDQgNTUuNjI5Mjk3NCwzOS4yMDI2MTEgTDUxLjYyNjcyNDMsMzYuMjIxODQ3NiBMNTAuNDI1OTUyNCwzNy44MTI2NDg2IEw1Mi4wMjY5ODE2LDM5LjAwNTc0OTQgTDQ4LjAyNDQwODUsMzkuMDA1NzQ5NCBMNDguMDI0NDA4NSw0MC45OTQyNTA2IEw1Mi4wMjU5ODEsNDAuOTk0MjUwNiBMNTAuNDI0OTUxOCw0Mi4xODczNTE0IEw1MS42Mjc3MjUsNDMuNzc4MTUyNCBaIE0zNS4yMDgxNjk1LDQwIEMzNS4yMDgxNjk1LDQyLjExMDc5NDEgMzQuODQyOTM0Nyw0NC4xMDEyODM5IDM0LjE2MDQ5Niw0NS44MzMyNjg1IEMzNS45NjA2NTMzLDQ1LjE0MTI3IDM3Ljk5MDk1ODUsNDQuNzk1MjcwOCA0MC4wMTkyNjI0LDQ0Ljc5NTI3MDggQzQyLjA0NzU2NjMsNDQuNzk1MjcwOCA0NC4wNzc4NzE1LDQ1LjE0MTI3IDQ1Ljg3NzAyODEsNDUuODMzMjY4NSBDNDUuMTk1NTksNDQuMTAxMjgzOSA0NC44MzAzNTUyLDQyLjExMDc5NDEgNDQuODMwMzU1Miw0MCBDNDQuODMwMzU1MiwzNy44ODkyMDU5IDQ1LjE5NTU5LDM1Ljg5OTcxMDQgNDUuODc3MDI4MSwzNC4xNjY3MzE1IEM0Mi4yNzc3MTQyLDM1LjU0OTczNDEgMzcuNzYwODEwNSwzNS41NDk3MzQxIDM0LjE2MDQ5NiwzNC4xNjY3MzE1IEMzNC44NDI5MzQ3LDM1Ljg5OTcxMDQgMzUuMjA4MTY5NSwzNy44ODkyMDU5IDM1LjIwODE2OTUsNDAgTDM1LjIwODE2OTUsNDAgWiBNMzAuMzA2MDE4Miw0OS42NTExOTA5IEMzMC4xMTA4OTI3LDQ5LjQ1NzMxMjEgMzAuMDEyODI5Nyw0OS4yMDI3ODM5IDMwLjAxMjgyOTcsNDguOTQ4MjU1NyBDMzAuMDEyODI5Nyw0OC42OTM3Mjc2IDMwLjExMDg5MjcsNDguNDM5MTk5NCAzMC4zMDYwMTgyLDQ4LjI0NTMyMDUgQzMyLjEyMjE4NTcsNDYuNDQwNzU1NiAzMy4yMDY4ODMsNDMuMzU3NTg0NCAzMy4yMDY4ODMsNDAgQzMzLjIwNjg4MywzNi42NDI0MTU2IDMyLjEyMjE4NTcsMzMuNTU5MjQ0NCAzMC4zMDYwMTgyLDMxLjc1NDY3OTUgQzMwLjExMDg5MjcsMzEuNTYwODAwNiAzMC4wMTI4Mjk3LDMxLjMwNjI3MjQgMzAuMDEyODI5NywzMS4wNTE3NDQzIEMzMC4wMTI4Mjk3LDMwLjc5NzIxNjEgMzAuMTEwODkyNywzMC41NDI2ODc5IDMwLjMwNjAxODIsMzAuMzQ4ODA5MSBDMzAuNjk3MjY5NywyOS45NjAwNTcxIDMxLjMyOTY3NjIsMjkuOTYwMDU3MSAzMS43MjA5Mjc3LDMwLjM0ODgwOTEgQzM1LjU5ODQyMDQsMzQuMjAxNTMwMyA0NC40NDAxMDQ0LDM0LjIwMTUzMDMgNDguMzE3NTk3LDMwLjM0ODgwOTEgQzQ4LjcwODg0ODUsMjkuOTYwMDU3MSA0OS4zNDEyNTUxLDI5Ljk2MDA1NzEgNDkuNzMyNTA2NiwzMC4zNDg4MDkxIEM0OS45Mjc2MzIsMzAuNTQyNjg3OSA1MC4wMjU2OTUxLDMwLjc5NzIxNjEgNTAuMDI1Njk1MSwzMS4wNTE3NDQzIEM1MC4wMjU2OTUxLDMxLjMwNjI3MjQgNDkuOTI3NjMyLDMxLjU2MDgwMDYgNDkuNzMyNTA2NiwzMS43NTQ2Nzk1IEM0Ny45MTYzMzkxLDMzLjU1OTI0NDQgNDYuODMxNjQxOCwzNi42NDI0MTU2IDQ2LjgzMTY0MTgsNDAgQzQ2LjgzMTY0MTgsNDMuMzU3NTg0NCA0Ny45MTYzMzkxLDQ2LjQ0MDc1NTYgNDkuNzMyNTA2Niw0OC4yNDUzMjA1IEM0OS45Mjc2MzIsNDguNDM5MTk5NCA1MC4wMjU2OTUxLDQ4LjY5MzcyNzYgNTAuMDI1Njk1MSw0OC45NDgyNTU3IEM1MC4wMjU2OTUxLDQ5LjIwMjc4MzkgNDkuOTI3NjMyLDQ5LjQ1NzMxMjEgNDkuNzMyNTA2Niw0OS42NTExOTA5IEM0OS41MzczODEyLDQ5Ljg0NTA2OTggNDkuMjgxMjE2NSw0OS45NDI1MDY0IDQ5LjAyNTA1MTgsNDkuOTQyNTA2NCBDNDguNzY4ODg3MSw0OS45NDI1MDY0IDQ4LjUxMjcyMjUsNDkuODQ1MDY5OCA0OC4zMTc1OTcsNDkuNjUxMTkwOSBDNDQuNDQwMTA0NCw0NS43OTg0Njk3IDM1LjU5ODQyMDQsNDUuNzk4NDY5NyAzMS43MjA5Mjc3LDQ5LjY1MTE5MDkgQzMxLjMyOTY3NjIsNTAuMDM5OTQyOSAzMC42OTcyNjk3LDUwLjAzOTk0MjkgMzAuMzA2MDE4Miw0OS42NTExOTA5IEwzMC4zMDYwMTgyLDQ5LjY1MTE5MDkgWiBNNjYuMDAwOTY0OSw0MC4wMDQ5NzEzIEM2Ni4wMDA5NjQ5LDM5LjA3ODMyOTcgNjUuNjM3NzMxNCwzOC4yMDczNjYxIDY0Ljk3ODMwNzUsMzcuNTUyMTU0OSBDNjQuMjk3ODcwMSwzNi44NzUwNzAyIDYzLjQwMzI5NSwzNi41MzgwMTkzIDYyLjUwOTcyMDUsMzYuNTM4MDE5MyBDNjEuNjE2MTQ2MSwzNi41MzgwMTkzIDYwLjcyMTU3MSwzNi44NzUwNzAyIDYwLjA0MTEzMzYsMzcuNTUyMTU0OSBDNTguNjc5MjU4MSwzOC45MDQzMzU4IDU4LjY3OTI1ODEsNDEuMTA0NjEyNSA2MC4wNDExMzM2LDQyLjQ1Nzc4NzYgQzYxLjQwMjAwODQsNDMuODA5OTY4NCA2My42MTU0MzEzLDQzLjgxMDk2MjcgNjQuOTc4MzA3NSw0Mi40NTc3ODc2IEM2NS42Mzc3MzE0LDQxLjgwMjU3NjQgNjYuMDAwOTY0OSw0MC45MzE2MTI4IDY2LjAwMDk2NDksNDAuMDA0OTcxMyBMNjYuMDAwOTY0OSw0MC4wMDQ5NzEzIFogTTY2LjM5MzIxNzEsNDMuODYzNjU4IEM2NS4zMjI1Mjg4LDQ0LjkyNzUwNjIgNjMuOTE2NjI1LDQ1LjQ1OTQzMDMgNjIuNTA5NzIwNSw0NS40NTk0MzAzIEM2MS4xMDI4MTYxLDQ1LjQ1OTQzMDMgNTkuNjk2OTEyMyw0NC45Mjc1MDYyIDU4LjYyNjIyNCw0My44NjM2NTggQzU2LjQ4Mzg0NjgsNDEuNzM1OTYxNiA1Ni40ODM4NDY4LDM4LjI3Mzk4MDkgNTguNjI2MjI0LDM2LjE0NjI4NDUgQzYwLjc2ODYwMTIsMzQuMDE2NTk5NyA2NC4yNTI4NDExLDM0LjAxODU4ODIgNjYuMzkzMjE3MSwzNi4xNDYyODQ1IEM2OC41MzU1OTQzLDM4LjI3Mzk4MDkgNjguNTM1NTk0Myw0MS43MzU5NjE2IDY2LjM5MzIxNzEsNDMuODYzNjU4IEw2Ni4zOTMyMTcxLDQzLjg2MzY1OCBaIE0yMC45ODAwMjI5LDQwLjAyNzgzOSBDMjAuOTgwMDIyOSwzOS4xMDExOTc0IDIwLjYxNjc4OTQsMzguMjMwMjMzOSAxOS45NTczNjU0LDM3LjU3NTAyMjcgQzE5LjI5Nzk0MTUsMzYuOTE5ODExNSAxOC40MjEzNzgsMzYuNTU4ODk4NSAxNy40ODg3Nzg1LDM2LjU1ODg5ODUgQzE2LjU1NzE3OTYsMzYuNTU4ODk4NSAxNS42ODA2MTYxLDM2LjkxOTgxMTUgMTUuMDIwMTkxNiwzNy41NzUwMjI3IEMxNC4zNjA3Njc2LDM4LjIzMDIzMzkgMTMuOTk4NTM0OCwzOS4xMDExOTc0IDEzLjk5ODUzNDgsNDAuMDI3ODM5IEMxMy45OTg1MzQ4LDQwLjk1MzQ4NjQgMTQuMzYwNzY3Niw0MS44MjQ0NDk5IDE1LjAyMDE5MTYsNDIuNDgwNjU1MyBDMTYuMzQwMDQsNDMuNzkwMDgzNCAxOC42Mzg1MTc2LDQzLjc5MDA4MzQgMTkuOTU3MzY1NCw0Mi40ODA2NTUzIEMyMC42MTY3ODk0LDQxLjgyNDQ0OTkgMjAuOTgwMDIyOSw0MC45NTM0ODY0IDIwLjk4MDAyMjksNDAuMDI3ODM5IEwyMC45ODAwMjI5LDQwLjAyNzgzOSBaIE0yMS4zNzIyNzUsNDMuODg2NTI1NyBDMjAuMzAxNTg2Nyw0NC45NTAzNzM5IDE4Ljg5NTY4MjksNDUuNDgyMjk4IDE3LjQ4ODc3ODUsNDUuNDgyMjk4IEMxNi4wODI4NzQ3LDQ1LjQ4MjI5OCAxNC42NzY5NzA5LDQ0Ljk1MDM3MzkgMTMuNjA1MjgyLDQzLjg4NjUyNTcgQzExLjQ2NDkwNiw0MS43NTg4Mjk0IDExLjQ2NDkwNiwzOC4yOTY4NDg3IDEzLjYwNTI4MiwzNi4xNjkxNTIzIEMxNS43NDc2NTkyLDM0LjA0MTQ1NTkgMTkuMjMwODk4NCwzNC4wNDE0NTU5IDIxLjM3MjI3NSwzNi4xNjkxNTIzIEMyMy41MTM2NTE2LDM4LjI5Njg0ODcgMjMuNTEzNjUxNiw0MS43NTg4Mjk0IDIxLjM3MjI3NSw0My44ODY1MjU3IEwyMS4zNzIyNzUsNDMuODg2NTI1NyBaIE01NC44OTU4MjU5LDU0Ljg1NjA5MyBDNTAuOTAxMjU4LDU4LjgyNjEzNTggNDUuNTg4ODQyOCw2MS4wMTE0OTg3IDM5LjkzOTIxMDksNjEuMDExNDk4NyBDMzQuMjg3NTc3Nyw2MS4wMTE0OTg3IDI4Ljk3NjE2MzIsNTguODI2MTM1OCAyNC45ODE1OTUzLDU0Ljg1NjA5MyBDMjIuMjQxODM0LDUyLjEzNDgyOSAyMC43MzM4NjQ2LDQ4Ljg4MjYzNTIgMTkuOTUxMzYxNiw0Ni42MzQ2MzQ1IEwxOC4wNjAxNDU4LDQ3LjI4NDg3NDQgQzE4LjkxMTY5MzIsNDkuNzMwNzMxIDIwLjU1Nzc1MTQsNTMuMjczMjQ2IDIzLjU2NjY4NTcsNTYuMjYxOTYzNCBDMjcuOTM5NDk2OCw2MC42MDc4MzMgMzMuNzUzMjM0Miw2MyAzOS45MzkyMTA5LDYzIEM0Ni4xMjQxODcsNjMgNTEuOTM3OTI0NCw2MC42MDc4MzMgNTYuMzEwNzM1NSw1Ni4yNjE5NjM0IEM1OC44MzczNTk3LDUzLjc1MzQ2OTEgNjAuODQ5NjUzMyw1MC41NjM5MTMgNjEuOTc5Mzc5Niw0Ny4yODE4OTE3IEw2MC4wODYxNjI1LDQ2LjYzNzYxNzMgQzU5LjA1MzQ5ODcsNDkuNjM4MjY1NyA1Ny4yMTAzMTM4LDUyLjU1NzM4NTYgNTQuODk1ODI1OSw1NC44NTYwOTMgTDU0Ljg5NTgyNTksNTQuODU2MDkzIFogTTE5Ljk1MDM2MDksMzMuMzY2MzU5NyBMMTguMDYxMTQ2NSwzMi43MTQxMzEzIEMxOS4yNzE5MjQ4LDI5LjI1MDE2MjEgMjEuMjI5MTgzLDI2LjA2MDYwNjEgMjMuNTcyNjg5NiwyMy43MzMwNjUzIEMyNy45NDM0OTk0LDE5LjM5MTE3MjggMzMuNzU1MjM1NSwxNyAzOS45MzkyMTA5LDE3IEM0Ni4xMjMxODYzLDE3IDUxLjkzNDkyMjUsMTkuMzkxMTcyOCA1Ni4zMDQ3MzE2LDIzLjczMzA2NTMgQzU4Ljc3MTMxNzMsMjYuMTgzODkzMSA2MC44Mzk2NDY5LDI5LjQ1Njk2NjIgNjEuOTc3Mzc4MywzMi43MTQxMzEzIEw2MC4wODgxNjM4LDMzLjM2NjM1OTcgQzU5LjA0NDQ5MjksMzAuMzgzNjA3OCA1Ny4xNTAyNzUyLDI3LjM4NDk0NzkgNTQuODg5ODIyLDI1LjEzODkzNTcgQzUwLjg5ODI1NiwyMS4xNzE4NzU3IDQ1LjU4Nzg0MjIsMTguOTg4NTAxMyAzOS45MzkyMTA5LDE4Ljk4ODUwMTMgQzM0LjI4OTU3OSwxOC45ODg1MDEzIDI4Ljk4MDE2NTgsMjEuMTcxODc1NyAyNC45ODc1OTkyLDI1LjEzODkzNTcgQzIyLjg1NDIyNzcsMjcuMjU5NjcyMyAyMS4wNjUwNzc1LDMwLjE4MTc3NSAxOS45NTAzNjA5LDMzLjM2NjM1OTcgTDE5Ljk1MDM2MDksMzMuMzY2MzU5NyBaIi8+JiN4YTsgICAgPC9nPiYjeGE7PC9zdmc+;" vertex="1" parent="1">
          <mxGeometry x="570" y="1942" width="51" height="51" as="geometry" />
        </mxCell>
        <mxCell id="_cskd8p5I6brAU5aOjfc-60" style="edgeStyle=orthogonalEdgeStyle;rounded=0;orthogonalLoop=1;jettySize=auto;html=1;" edge="1" parent="1" source="_cskd8p5I6brAU5aOjfc-63" target="_cskd8p5I6brAU5aOjfc-65">
          <mxGeometry relative="1" as="geometry">
            <Array as="points">
              <mxPoint x="580" y="1552" />
            </Array>
          </mxGeometry>
        </mxCell>
        <mxCell id="_cskd8p5I6brAU5aOjfc-61" style="edgeStyle=orthogonalEdgeStyle;rounded=0;orthogonalLoop=1;jettySize=auto;html=1;entryX=0.5;entryY=1;entryDx=0;entryDy=0;" edge="1" parent="1" source="_cskd8p5I6brAU5aOjfc-63" target="_cskd8p5I6brAU5aOjfc-9">
          <mxGeometry relative="1" as="geometry">
            <Array as="points">
              <mxPoint x="200" y="1570" />
            </Array>
          </mxGeometry>
        </mxCell>
        <mxCell id="_cskd8p5I6brAU5aOjfc-62" style="edgeStyle=orthogonalEdgeStyle;rounded=0;orthogonalLoop=1;jettySize=auto;html=1;sourcePerimeterSpacing=20;" edge="1" parent="1" source="_cskd8p5I6brAU5aOjfc-63" target="_cskd8p5I6brAU5aOjfc-66">
          <mxGeometry relative="1" as="geometry">
            <Array as="points">
              <mxPoint x="920" y="1612" />
              <mxPoint x="-30" y="1612" />
            </Array>
          </mxGeometry>
        </mxCell>
        <mxCell id="_cskd8p5I6brAU5aOjfc-63" value="MsNotificacion" style="shape=image;verticalLabelPosition=bottom;labelBackgroundColor=none;verticalAlign=top;aspect=fixed;imageAspect=0;editableCssRules=.*;image=data:image/svg+xml,PHN2ZyB4bWxuczp4bGluaz0iaHR0cDovL3d3dy53My5vcmcvMTk5OS94bGluayIgeG1sbnM9Imh0dHA6Ly93d3cudzMub3JnLzIwMDAvc3ZnIiB2ZXJzaW9uPSIxLjEiIHZpZXdCb3g9Ii0wLjUgLTAuNSA4MSA4MSIgaGVpZ2h0PSI4MSIgd2lkdGg9IjgxIj4mI3hhOyAgICA8dGl0bGU+SWNvbi1BcmNoaXRlY3R1cmUvNjQvQXJjaF9BbWF6b24tRUtTLUNsb3VkXzY0PC90aXRsZT4mI3hhOyAgICA8ZGVmcz4mI3hhOyAgICAgICAgPGxpbmVhckdyYWRpZW50IGlkPSJsaW5lYXJHcmFkaWVudC0xIiB5Mj0iMCUiIHgyPSIxMDAlIiB5MT0iMTAwJSIgeDE9IjAlIj4mI3hhOyAgICAgICAgICAgIDxzdG9wIG9mZnNldD0iMCUiIHN0b3AtY29sb3I9IiNDODUxMUIiLz4mI3hhOyAgICAgICAgICAgIDxzdG9wIG9mZnNldD0iMTAwJSIgc3RvcC1jb2xvcj0iI0ZGOTkwMCIvPiYjeGE7ICAgICAgICA8L2xpbmVhckdyYWRpZW50PiYjeGE7ICAgIDwvZGVmcz4mI3hhOyAgICA8ZyBmaWxsLXJ1bGU9ImV2ZW5vZGQiIGZpbGw9Im5vbmUiIHN0cm9rZS13aWR0aD0iMSIgc3Ryb2tlPSJub25lIiBpZD0iSWNvbi1BcmNoaXRlY3R1cmUvNjQvQXJjaF9BbWF6b24tRUtTLUNsb3VkXzY0Ij4mI3hhOyAgICAgICAgPGcgZmlsbD0idXJsKCNsaW5lYXJHcmFkaWVudC0xKSIgaWQ9IlJlY3RhbmdsZSI+JiN4YTsgICAgICAgICAgICA8cmVjdCBoZWlnaHQ9IjgwIiB3aWR0aD0iODAiIHk9IjAiIHg9IjAiLz4mI3hhOyAgICAgICAgPC9nPiYjeGE7ICAgICAgICA8ZyBmaWxsPSIjRkZGRkZGIiB0cmFuc2Zvcm09InRyYW5zbGF0ZSg4LjAwMDAwMCwgOC4wMDAwMDApIiBpZD0iSWNvbi1TZXJ2aWNlLzY0L0FtYXpvbi1FS1MtQ2xvdWRfNjQiPiYjeGE7ICAgICAgICAgICAgPHBhdGggaWQ9IkZpbGwtMSIgZD0iTTUzLjIzOSw1My4zNzcwMjYgTDMxLjczNyw1My4zNTUwMjYgQzI5LjEzMyw1My4zNTIwMjYgMjYuOTA2LDUxLjQxNjAyNiAyNi42NjcsNDguOTQ5MDI2IEMyNi42NDcsNDguNzQzMDI2IDI2LjYzNiw0OC41MjgwMjYgMjYuNjM2LDQ4LjMwNTAyNiBDMjYuNjM2LDQ0LjkyOTAyNiAyOC45NjgsNDMuNzk4MDI2IDMwLjM5MSw0My40MjIwMjYgQzMwLjg0OSw0My4zMjgwMjYgMzEuMTg5LDQyLjkyMjAyNiAzMS4xODksNDIuNDQxMDI2IEMzMS4xODksNDIuMzk0MDI2IDMxLjE4Niw0Mi4zNDcwMjYgMzEuMTc5LDQyLjMwMDAyNiBDMzEuMTQ1LDQyLjAwNDAyNiAzMS4xMjgsNDEuNzAyMDI2IDMxLjEyOCw0MS4zOTYwMjYgQzMxLjEyOCwzOC42MTMwMjYgMzMuMDQ2LDM1LjYyMTAyNiAzNS40OTQsMzQuNTg0MDI2IEMzOS43NDUsMzIuNzg2MDI2IDQyLjc1NCwzNS4xNTEwMjYgNDMuODUyLDM2LjI1MzAyNiBDNDQuNzUxLDM3LjE1NDAyNiA0NS40NTMsMzguMzA5MDI2IDQ1LjkzOCwzOS42ODQwMjYgQzQ2LjA2Miw0MC4wMzMwMjYgNDYuMzY4LDQwLjI4NjAyNiA0Ni43MzQsNDAuMzQwMDI2IEM0Ny4wOTcsNDAuMzk0MDI2IDQ3LjQ2Nyw0MC4yNDMwMjYgNDcuNjg2LDM5Ljk0NTAyNiBDNDguMzIyLDM5LjA4NTAyNiA0OS4zNTIsMzguNzA4MDI2IDUwLjMwNywzOC45ODgwMjYgQzUxLjQ3NywzOS4zMzAwMjYgNTIuMjUzLDQwLjU0MTAyNiA1Mi4zOTMsNDIuMjM4MDI2IEM1Mi4zNDIsNDIuNzU2MDI2IDUyLjcsNDMuMjMxMDI2IDUzLjIxOCw0My4zMjAwMjYgQzU0LjU4Nyw0My41NTYwMjYgNTcuNzY5LDQ0LjUxNzAyNiA1Ny43NjksNDguMzU2MDI2IEM1Ny43NjksNTIuODM5MDI2IDUzLjYyNiw1My4zMzgwMjYgNTMuMjM5LDUzLjM3NzAyNiBMNTMuMjM5LDUzLjM3NzAyNiBaIE0yOS40NDQsNTcuODYyMDI2IEw2LDQ1LjM5ODAyNiBMNiwxOC41NzAwMjYgTDI2LDYuNzUyMDI2MDQgTDI2LDE2LjQ1MTAyNiBMMTUuNDYzLDIzLjE1NjAyNiBDMTUuMTc1LDIzLjMzOTAyNiAxNSwyMy42NTgwMjYgMTUsMjQuMDAwMDI2IEwxNSw0MC4wMDAwMjYgQzE1LDQwLjM3MzAyNiAxNS4yMDgsNDAuNzE0MDI2IDE1LjUzOCw0MC44ODcwMjYgTDI0LjkwMSw0NS43NTgwMjYgTDI1LjA0LDQ1LjgzNTAyNiBDMjQuNzg0LDQ2LjU5MjAyNiAyNC42MzYsNDcuNDE1MDI2IDI0LjYzNiw0OC4zMDUwMjYgQzI0LjYzNiw0OC41OTQwMjYgMjQuNjUxLDQ4Ljg3MjAyNiAyNC42NzcsNDkuMTQwMDI2IEMyNS4wMTIsNTIuNjIxMDI2IDI4LjExMyw1NS4zNTEwMjYgMzEuNzM1LDU1LjM1NTAyNiBMMzMuOTgyLDU1LjM1NjAyNiBMMjkuNDQ0LDU3Ljg2MjAyNiBaIE00NC41MDQsMjMuMTM2MDI2IEwzMywxNi40MjUwMjYgTDMzLDYuNzUyMDI2MDQgTDUzLDE4LjU3MDAyNiBMNTMsMzguNDY3MDI2IEM1Mi40MzEsMzcuODAzMDI2IDUxLjcxNiwzNy4zMTYwMjYgNTAuODY4LDM3LjA2ODAyNiBDNDkuNjE2LDM2LjcwMzAyNiA0OC4zMDgsMzYuOTI2MDI2IDQ3LjI0NSwzNy42MzcwMjYgQzQ2LjcxOCwzNi41NjcwMjYgNDYuMDU2LDM1LjYzMTAyNiA0NS4yNjgsMzQuODQxMDI2IEM0NS4xODIsMzQuNzU1MDI2IDQ1LjA4OCwzNC42ODkwMjYgNDUsMzQuNjA2MDI2IEw0NSwyNC4wMDAwMjYgQzQ1LDIzLjY0NDAyNiA0NC44MTEsMjMuMzE1MDI2IDQ0LjUwNCwyMy4xMzYwMjYgTDQ0LjUwNCwyMy4xMzYwMjYgWiBNNTUsNDEuNzI2MDI2IEw1NSwxOC4wMDAwMjYgQzU1LDE3LjY0NjAyNiA1NC44MTMsMTcuMzE4MDI2IDU0LjUwOSwxNy4xMzkwMjYgTDMyLjUwOSw0LjEzOTAyNjA0IEMzMi4xOTksMy45NTYwMjYwNCAzMS44MTcsMy45NTQwMjYwNCAzMS41MDQsNC4xMzEwMjYwNCBDMzEuMTkyLDQuMzA5MDI2MDQgMzEsNC42NDEwMjYwNCAzMSw1LjAwMDAyNjA0IEwzMSwxNy4wMDAwMjYgQzMxLDE3LjM1NTAyNiAzMS4xODgsMTcuNjg0MDI2IDMxLjQ5NiwxNy44NjMwMjYgTDQzLDI0LjU3NDAyNiBMNDMsMzMuMTE4MDI2IEM0MC40ODMsMzEuNzE0MDI2IDM3LjUzNywzMS41NDgwMjYgMzQuNzE1LDMyLjc0MjAyNiBDMzMuNzI1LDMzLjE2MTAyNiAzMi44MjcsMzMuODI4MDI2IDMyLjAzNywzNC42MjkwMjYgTDI5LjAxMSwzMS4xMjAwMjYgTDM1Ljg0MiwyMy4xOTkwMjYgTDMzLjE4LDIzLjE5OTAyNiBMMjcsMzAuMDAwMDI2IEwyNywyMy4wMDAwMjYgTDI1LDIzLjAwMDAyNiBMMjUsNDAuMDAwMDI2IEwyNyw0MC4wMDAwMjYgTDI3LDMyLjAwMDAyNiBMMzAuNjgyLDM2LjMxMTAyNiBDMjkuNzE0LDM3Ljg0MTAyNiAyOS4xMjgsMzkuNjMzMDI2IDI5LjEyOCw0MS4zOTYwMjYgQzI5LjEyOCw0MS41MDUwMjYgMjkuMTMsNDEuNjE0MDI2IDI5LjEzMyw0MS43MjMwMjYgQzI3Ljc4NSw0Mi4yMTYwMjYgMjYuNzEyLDQzLjAyNzAyNiAyNS45NDYsNDQuMDczMDI2IEwxNywzOS4zOTMwMjYgTDE3LDI0LjU0ODAyNiBMMjcuNTM3LDE3Ljg0MzAyNiBDMjcuODI1LDE3LjY2MDAyNiAyOCwxNy4zNDEwMjYgMjgsMTcuMDAwMDI2IEwyOCw1LjAwMDAyNjA0IEMyOCw0LjY0MTAyNjA0IDI3LjgwNyw0LjMwOTAyNjA0IDI3LjQ5Niw0LjEzMTAyNjA0IEMyNy4xODMsMy45NTQwMjYwNCAyNi44MDIsMy45NTYwMjYwNCAyNi40OTEsNC4xMzkwMjYwNCBMNC40OTEsMTcuMTM5MDI2IEM0LjE4NiwxNy4zMTgwMjYgNCwxNy42NDYwMjYgNCwxOC4wMDAwMjYgTDQsNDYuMDAwMDI2IEM0LDQ2LjM2OTAyNiA0LjIwNCw0Ni43MDkwMjYgNC41Myw0Ni44ODIwMjYgTDI4Ljk4Myw1OS44ODIwMjYgQzI5LjEzMSw1OS45NjAwMjYgMjkuMjkyLDYwLjAwMDAyNiAyOS40NTMsNjAuMDAwMDI2IEMyOS42Miw2MC4wMDAwMjYgMjkuNzg2LDU5Ljk1ODAyNiAyOS45MzYsNTkuODc1MDI2IEwzOC4xMTQsNTUuMzYwMDI2IEw1My4zMTksNTUuMzc0MDI2IEM1NS41NTEsNTUuMTkyMDI2IDU5Ljc2OSw1My40OTIwMjYgNTkuNzY5LDQ4LjM1NjAyNiBDNTkuNzY5LDQ0LjY3ODAyNiA1Ny41MDUsNDIuNjAzMDI2IDU1LDQxLjcyNjAyNiBMNTUsNDEuNzI2MDI2IFoiLz4mI3hhOyAgICAgICAgPC9nPiYjeGE7ICAgIDwvZz4mI3hhOzwvc3ZnPg==;" vertex="1" parent="1">
          <mxGeometry x="900" y="1542" width="40" height="40" as="geometry" />
        </mxCell>
        <mxCell id="_cskd8p5I6brAU5aOjfc-64" value="POST /Receiver" style="text;html=1;align=center;verticalAlign=middle;resizable=0;points=[];autosize=1;strokeColor=none;fillColor=none;" vertex="1" parent="1">
          <mxGeometry x="750" y="1441.5" width="110" height="30" as="geometry" />
        </mxCell>
        <mxCell id="_cskd8p5I6brAU5aOjfc-65" value="Notificación" style="rounded=1;whiteSpace=wrap;html=1;" vertex="1" parent="1">
          <mxGeometry x="530" y="1355" width="100" height="57" as="geometry" />
        </mxCell>
        <mxCell id="_cskd8p5I6brAU5aOjfc-66" value="Notificación" style="rounded=1;whiteSpace=wrap;html=1;" vertex="1" parent="1">
          <mxGeometry x="-80" y="1640" width="100" height="42" as="geometry" />
        </mxCell>
        <mxCell id="_cskd8p5I6brAU5aOjfc-67" style="edgeStyle=orthogonalEdgeStyle;rounded=0;orthogonalLoop=1;jettySize=auto;html=1;exitX=0.25;exitY=1;exitDx=0;exitDy=0;entryX=0.292;entryY=0.927;entryDx=0;entryDy=0;entryPerimeter=0;" edge="1" parent="1" source="_cskd8p5I6brAU5aOjfc-3" target="_cskd8p5I6brAU5aOjfc-3">
          <mxGeometry relative="1" as="geometry" />
        </mxCell>
        <mxCell id="_cskd8p5I6brAU5aOjfc-68" value="3DS" style="rounded=0;whiteSpace=wrap;html=1;verticalAlign=top;fontStyle=1" vertex="1" parent="1">
          <mxGeometry x="1588.25" y="1610" width="240" height="150" as="geometry" />
        </mxCell>
        <mxCell id="_cskd8p5I6brAU5aOjfc-73" style="edgeStyle=orthogonalEdgeStyle;rounded=0;orthogonalLoop=1;jettySize=auto;html=1;entryX=0;entryY=0.5;entryDx=0;entryDy=0;" edge="1" parent="1" source="_cskd8p5I6brAU5aOjfc-69" target="_cskd8p5I6brAU5aOjfc-71">
          <mxGeometry relative="1" as="geometry" />
        </mxCell>
        <mxCell id="_cskd8p5I6brAU5aOjfc-69" value="3DS" style="shape=image;verticalLabelPosition=bottom;labelBackgroundColor=none;verticalAlign=top;aspect=fixed;imageAspect=0;editableCssRules=.*;image=data:image/svg+xml,PHN2ZyB4bWxuczp4bGluaz0iaHR0cDovL3d3dy53My5vcmcvMTk5OS94bGluayIgeG1sbnM9Imh0dHA6Ly93d3cudzMub3JnLzIwMDAvc3ZnIiB2ZXJzaW9uPSIxLjEiIHZpZXdCb3g9Ii0wLjUgLTAuNSA4MSA4MSIgaGVpZ2h0PSI4MSIgd2lkdGg9IjgxIj4mI3hhOyAgICA8dGl0bGU+SWNvbi1BcmNoaXRlY3R1cmUvNjQvQXJjaF9BbWF6b24tRUtTLUNsb3VkXzY0PC90aXRsZT4mI3hhOyAgICA8ZGVmcz4mI3hhOyAgICAgICAgPGxpbmVhckdyYWRpZW50IGlkPSJsaW5lYXJHcmFkaWVudC0xIiB5Mj0iMCUiIHgyPSIxMDAlIiB5MT0iMTAwJSIgeDE9IjAlIj4mI3hhOyAgICAgICAgICAgIDxzdG9wIG9mZnNldD0iMCUiIHN0b3AtY29sb3I9IiNDODUxMUIiLz4mI3hhOyAgICAgICAgICAgIDxzdG9wIG9mZnNldD0iMTAwJSIgc3RvcC1jb2xvcj0iI0ZGOTkwMCIvPiYjeGE7ICAgICAgICA8L2xpbmVhckdyYWRpZW50PiYjeGE7ICAgIDwvZGVmcz4mI3hhOyAgICA8ZyBmaWxsLXJ1bGU9ImV2ZW5vZGQiIGZpbGw9Im5vbmUiIHN0cm9rZS13aWR0aD0iMSIgc3Ryb2tlPSJub25lIiBpZD0iSWNvbi1BcmNoaXRlY3R1cmUvNjQvQXJjaF9BbWF6b24tRUtTLUNsb3VkXzY0Ij4mI3hhOyAgICAgICAgPGcgZmlsbD0idXJsKCNsaW5lYXJHcmFkaWVudC0xKSIgaWQ9IlJlY3RhbmdsZSI+JiN4YTsgICAgICAgICAgICA8cmVjdCBoZWlnaHQ9IjgwIiB3aWR0aD0iODAiIHk9IjAiIHg9IjAiLz4mI3hhOyAgICAgICAgPC9nPiYjeGE7ICAgICAgICA8ZyBmaWxsPSIjRkZGRkZGIiB0cmFuc2Zvcm09InRyYW5zbGF0ZSg4LjAwMDAwMCwgOC4wMDAwMDApIiBpZD0iSWNvbi1TZXJ2aWNlLzY0L0FtYXpvbi1FS1MtQ2xvdWRfNjQiPiYjeGE7ICAgICAgICAgICAgPHBhdGggaWQ9IkZpbGwtMSIgZD0iTTUzLjIzOSw1My4zNzcwMjYgTDMxLjczNyw1My4zNTUwMjYgQzI5LjEzMyw1My4zNTIwMjYgMjYuOTA2LDUxLjQxNjAyNiAyNi42NjcsNDguOTQ5MDI2IEMyNi42NDcsNDguNzQzMDI2IDI2LjYzNiw0OC41MjgwMjYgMjYuNjM2LDQ4LjMwNTAyNiBDMjYuNjM2LDQ0LjkyOTAyNiAyOC45NjgsNDMuNzk4MDI2IDMwLjM5MSw0My40MjIwMjYgQzMwLjg0OSw0My4zMjgwMjYgMzEuMTg5LDQyLjkyMjAyNiAzMS4xODksNDIuNDQxMDI2IEMzMS4xODksNDIuMzk0MDI2IDMxLjE4Niw0Mi4zNDcwMjYgMzEuMTc5LDQyLjMwMDAyNiBDMzEuMTQ1LDQyLjAwNDAyNiAzMS4xMjgsNDEuNzAyMDI2IDMxLjEyOCw0MS4zOTYwMjYgQzMxLjEyOCwzOC42MTMwMjYgMzMuMDQ2LDM1LjYyMTAyNiAzNS40OTQsMzQuNTg0MDI2IEMzOS43NDUsMzIuNzg2MDI2IDQyLjc1NCwzNS4xNTEwMjYgNDMuODUyLDM2LjI1MzAyNiBDNDQuNzUxLDM3LjE1NDAyNiA0NS40NTMsMzguMzA5MDI2IDQ1LjkzOCwzOS42ODQwMjYgQzQ2LjA2Miw0MC4wMzMwMjYgNDYuMzY4LDQwLjI4NjAyNiA0Ni43MzQsNDAuMzQwMDI2IEM0Ny4wOTcsNDAuMzk0MDI2IDQ3LjQ2Nyw0MC4yNDMwMjYgNDcuNjg2LDM5Ljk0NTAyNiBDNDguMzIyLDM5LjA4NTAyNiA0OS4zNTIsMzguNzA4MDI2IDUwLjMwNywzOC45ODgwMjYgQzUxLjQ3NywzOS4zMzAwMjYgNTIuMjUzLDQwLjU0MTAyNiA1Mi4zOTMsNDIuMjM4MDI2IEM1Mi4zNDIsNDIuNzU2MDI2IDUyLjcsNDMuMjMxMDI2IDUzLjIxOCw0My4zMjAwMjYgQzU0LjU4Nyw0My41NTYwMjYgNTcuNzY5LDQ0LjUxNzAyNiA1Ny43NjksNDguMzU2MDI2IEM1Ny43NjksNTIuODM5MDI2IDUzLjYyNiw1My4zMzgwMjYgNTMuMjM5LDUzLjM3NzAyNiBMNTMuMjM5LDUzLjM3NzAyNiBaIE0yOS40NDQsNTcuODYyMDI2IEw2LDQ1LjM5ODAyNiBMNiwxOC41NzAwMjYgTDI2LDYuNzUyMDI2MDQgTDI2LDE2LjQ1MTAyNiBMMTUuNDYzLDIzLjE1NjAyNiBDMTUuMTc1LDIzLjMzOTAyNiAxNSwyMy42NTgwMjYgMTUsMjQuMDAwMDI2IEwxNSw0MC4wMDAwMjYgQzE1LDQwLjM3MzAyNiAxNS4yMDgsNDAuNzE0MDI2IDE1LjUzOCw0MC44ODcwMjYgTDI0LjkwMSw0NS43NTgwMjYgTDI1LjA0LDQ1LjgzNTAyNiBDMjQuNzg0LDQ2LjU5MjAyNiAyNC42MzYsNDcuNDE1MDI2IDI0LjYzNiw0OC4zMDUwMjYgQzI0LjYzNiw0OC41OTQwMjYgMjQuNjUxLDQ4Ljg3MjAyNiAyNC42NzcsNDkuMTQwMDI2IEMyNS4wMTIsNTIuNjIxMDI2IDI4LjExMyw1NS4zNTEwMjYgMzEuNzM1LDU1LjM1NTAyNiBMMzMuOTgyLDU1LjM1NjAyNiBMMjkuNDQ0LDU3Ljg2MjAyNiBaIE00NC41MDQsMjMuMTM2MDI2IEwzMywxNi40MjUwMjYgTDMzLDYuNzUyMDI2MDQgTDUzLDE4LjU3MDAyNiBMNTMsMzguNDY3MDI2IEM1Mi40MzEsMzcuODAzMDI2IDUxLjcxNiwzNy4zMTYwMjYgNTAuODY4LDM3LjA2ODAyNiBDNDkuNjE2LDM2LjcwMzAyNiA0OC4zMDgsMzYuOTI2MDI2IDQ3LjI0NSwzNy42MzcwMjYgQzQ2LjcxOCwzNi41NjcwMjYgNDYuMDU2LDM1LjYzMTAyNiA0NS4yNjgsMzQuODQxMDI2IEM0NS4xODIsMzQuNzU1MDI2IDQ1LjA4OCwzNC42ODkwMjYgNDUsMzQuNjA2MDI2IEw0NSwyNC4wMDAwMjYgQzQ1LDIzLjY0NDAyNiA0NC44MTEsMjMuMzE1MDI2IDQ0LjUwNCwyMy4xMzYwMjYgTDQ0LjUwNCwyMy4xMzYwMjYgWiBNNTUsNDEuNzI2MDI2IEw1NSwxOC4wMDAwMjYgQzU1LDE3LjY0NjAyNiA1NC44MTMsMTcuMzE4MDI2IDU0LjUwOSwxNy4xMzkwMjYgTDMyLjUwOSw0LjEzOTAyNjA0IEMzMi4xOTksMy45NTYwMjYwNCAzMS44MTcsMy45NTQwMjYwNCAzMS41MDQsNC4xMzEwMjYwNCBDMzEuMTkyLDQuMzA5MDI2MDQgMzEsNC42NDEwMjYwNCAzMSw1LjAwMDAyNjA0IEwzMSwxNy4wMDAwMjYgQzMxLDE3LjM1NTAyNiAzMS4xODgsMTcuNjg0MDI2IDMxLjQ5NiwxNy44NjMwMjYgTDQzLDI0LjU3NDAyNiBMNDMsMzMuMTE4MDI2IEM0MC40ODMsMzEuNzE0MDI2IDM3LjUzNywzMS41NDgwMjYgMzQuNzE1LDMyLjc0MjAyNiBDMzMuNzI1LDMzLjE2MTAyNiAzMi44MjcsMzMuODI4MDI2IDMyLjAzNywzNC42MjkwMjYgTDI5LjAxMSwzMS4xMjAwMjYgTDM1Ljg0MiwyMy4xOTkwMjYgTDMzLjE4LDIzLjE5OTAyNiBMMjcsMzAuMDAwMDI2IEwyNywyMy4wMDAwMjYgTDI1LDIzLjAwMDAyNiBMMjUsNDAuMDAwMDI2IEwyNyw0MC4wMDAwMjYgTDI3LDMyLjAwMDAyNiBMMzAuNjgyLDM2LjMxMTAyNiBDMjkuNzE0LDM3Ljg0MTAyNiAyOS4xMjgsMzkuNjMzMDI2IDI5LjEyOCw0MS4zOTYwMjYgQzI5LjEyOCw0MS41MDUwMjYgMjkuMTMsNDEuNjE0MDI2IDI5LjEzMyw0MS43MjMwMjYgQzI3Ljc4NSw0Mi4yMTYwMjYgMjYuNzEyLDQzLjAyNzAyNiAyNS45NDYsNDQuMDczMDI2IEwxNywzOS4zOTMwMjYgTDE3LDI0LjU0ODAyNiBMMjcuNTM3LDE3Ljg0MzAyNiBDMjcuODI1LDE3LjY2MDAyNiAyOCwxNy4zNDEwMjYgMjgsMTcuMDAwMDI2IEwyOCw1LjAwMDAyNjA0IEMyOCw0LjY0MTAyNjA0IDI3LjgwNyw0LjMwOTAyNjA0IDI3LjQ5Niw0LjEzMTAyNjA0IEMyNy4xODMsMy45NTQwMjYwNCAyNi44MDIsMy45NTYwMjYwNCAyNi40OTEsNC4xMzkwMjYwNCBMNC40OTEsMTcuMTM5MDI2IEM0LjE4NiwxNy4zMTgwMjYgNCwxNy42NDYwMjYgNCwxOC4wMDAwMjYgTDQsNDYuMDAwMDI2IEM0LDQ2LjM2OTAyNiA0LjIwNCw0Ni43MDkwMjYgNC41Myw0Ni44ODIwMjYgTDI4Ljk4Myw1OS44ODIwMjYgQzI5LjEzMSw1OS45NjAwMjYgMjkuMjkyLDYwLjAwMDAyNiAyOS40NTMsNjAuMDAwMDI2IEMyOS42Miw2MC4wMDAwMjYgMjkuNzg2LDU5Ljk1ODAyNiAyOS45MzYsNTkuODc1MDI2IEwzOC4xMTQsNTUuMzYwMDI2IEw1My4zMTksNTUuMzc0MDI2IEM1NS41NTEsNTUuMTkyMDI2IDU5Ljc2OSw1My40OTIwMjYgNTkuNzY5LDQ4LjM1NjAyNiBDNTkuNzY5LDQ0LjY3ODAyNiA1Ny41MDUsNDIuNjAzMDI2IDU1LDQxLjcyNjAyNiBMNTUsNDEuNzI2MDI2IFoiLz4mI3hhOyAgICAgICAgPC9nPiYjeGE7ICAgIDwvZz4mI3hhOzwvc3ZnPg==;" vertex="1" parent="1">
          <mxGeometry x="1084.5" y="1651" width="41" height="41" as="geometry" />
        </mxCell>
        <mxCell id="_cskd8p5I6brAU5aOjfc-71" value="&lt;span style=&quot;color: rgb(33, 33, 33); font-family: Inter, system-ui, -apple-system, BlinkMacSystemFont, &amp;quot;Segoe UI&amp;quot;, Roboto, Oxygen, Ubuntu, Cantarell, &amp;quot;Fira Sans&amp;quot;, &amp;quot;Droid Sans&amp;quot;, Helvetica, Arial, sans-serif; text-align: left; white-space-collapse: preserve; background-color: rgb(255, 255, 255);&quot;&gt;Verificación 3DS&lt;/span&gt;" style="rounded=1;whiteSpace=wrap;html=1;" vertex="1" parent="1">
          <mxGeometry x="1656.5" y="1657.75" width="103.5" height="27.5" as="geometry" />
        </mxCell>
      </root>
    </mxGraphModel>
  </diagram>
</mxfile>
